<?xml version="1.0" encoding="utf-8"?>
<!-- Generator: Adobe Illustrator 27.0.1, SVG Export Plug-In . SVG Version: 6.00 Build 0)  -->
<svg version="1.1" id="Layer_1" xmlns="http://www.w3.org/2000/svg" xmlns:xlink="http://www.w3.org/1999/xlink" x="0px" y="0px"
	 viewBox="0 0 258.8 102" style="enable-background:new 0 0 258.8 102;" xml:space="preserve">
<style type="text/css">
	.st0{fill:#84BD00;}
	.st1{fill:none;stroke:#000000;}
	.st2{fill:none;stroke:#000000;stroke-width:1.4816;}
</style>
	<g>
	<path class="st0" d="M11.4,0.5c-6,0-10.9,4.9-10.9,10.9V91c0,5.8,4.7,10.5,10.5,10.5h236.7c5.8,0,10.5-4.7,10.5-10.5V11
		c0-5.8-4.7-10.5-10.5-10.5H11.4L11.4,0.5z"/>
		<path class="st1" d="M11.4,0.5c-6,0-10.9,4.9-10.9,10.9V91c0,5.8,4.7,10.5,10.5,10.5h236.7c5.8,0,10.5-4.7,10.5-10.5V11
		c0-5.8-4.7-10.5-10.5-10.5H11.4L11.4,0.5z"/>
		<line class="st2" x1="0.5" y1="41" x2="258.3" y2="41"/>
		<g>
		<path d="M24.7,22h-5.9v6.7c0,0.3-0.1,0.5-0.2,0.5c-0.1,0.1-0.3,0.1-0.6,0.1h-1.3c-0.3,0-0.5,0-0.6-0.1C16,29.2,16,29.1,16,28.8
			V13.6c0-0.3,0-0.5,0.2-0.5c0.1-0.1,0.3-0.1,0.6-0.1h8.6c0.3,0,0.5,0.1,0.5,0.2c0.1,0.1,0.1,0.3,0.1,0.6v1c0,0.3,0,0.5-0.1,0.6
			c-0.1,0.1-0.3,0.2-0.5,0.2h-6.5v4.1h5.9c0.3,0,0.5,0.1,0.5,0.2c0.1,0.1,0.1,0.3,0.1,0.6v1c0,0.3,0,0.5-0.1,0.6
			C25.1,22,25,22,24.7,22z"/>
			<path d="M34.1,12.6c2.8,0,4.6,1,5.5,3.1c0.2,0.4,0.3,0.9,0.4,1.5s0.1,1.3,0.1,2.2v3.4c0,0.8,0,1.5-0.1,2.1s-0.2,1.1-0.4,1.6
			c-0.4,1.1-1.1,1.9-2.1,2.5c-0.9,0.6-2.1,0.9-3.5,0.9c-2.8,0-4.6-1-5.5-3.1c-0.2-0.4-0.3-0.9-0.4-1.5C28.1,24.6,28,23.9,28,23v-3.4
			c0-0.8,0-1.5,0.1-2.1c0.1-0.6,0.2-1.1,0.4-1.6c0.4-1.1,1.1-1.9,2.1-2.5C31.6,12.9,32.7,12.6,34.1,12.6z M34.1,15.1
			c-1.1,0-2,0.3-2.4,1s-0.7,1.7-0.7,3.2v3.9c0,1.5,0.2,2.6,0.7,3.2s1.3,1,2.4,1s2-0.3,2.4-1s0.7-1.7,0.7-3.2v-3.9
			c0-1.5-0.2-2.6-0.7-3.2S35.2,15.1,34.1,15.1z"/>
			<path d="M48.7,12.6c2.8,0,4.6,1,5.5,3.1c0.2,0.4,0.3,0.9,0.4,1.5c0.1,0.6,0.1,1.3,0.1,2.2v3.4c0,0.8,0,1.5-0.1,2.1
			c-0.1,0.6-0.2,1.1-0.4,1.6c-0.4,1.1-1.1,1.9-2.1,2.5c-0.9,0.6-2.1,0.9-3.5,0.9c-2.8,0-4.6-1-5.5-3.1c-0.2-0.4-0.3-0.9-0.4-1.5
			s-0.1-1.3-0.1-2.2v-3.4c0-0.8,0-1.5,0.1-2.1c0.1-0.6,0.2-1.1,0.4-1.6c0.4-1.1,1.1-1.9,2.1-2.5C46.2,12.9,47.4,12.6,48.7,12.6z
			 M48.7,15.1c-1.1,0-2,0.3-2.4,1s-0.7,1.7-0.7,3.2v3.9c0,1.5,0.2,2.6,0.7,3.2s1.3,1,2.4,1s2-0.3,2.4-1s0.7-1.7,0.7-3.2v-3.9
			c0-1.5-0.2-2.6-0.7-3.2S49.9,15.1,48.7,15.1z"/>
			<path d="M58.4,13h4.7c1.5,0,2.7,0.3,3.6,0.9c0.9,0.6,1.5,1.4,1.9,2.2c0.2,0.4,0.3,0.9,0.4,1.4c0.1,0.5,0.2,1.2,0.2,2.1v3.3
			c0,0.9-0.1,1.6-0.2,2.1c-0.1,0.5-0.2,1-0.4,1.4c-0.4,0.8-0.9,1.6-1.8,2.2c-0.8,0.6-1.9,0.9-3.4,0.9h-5.1c-0.3,0-0.5,0-0.6-0.1
			c-0.1-0.1-0.2-0.3-0.2-0.5V13.6c0-0.3,0-0.5,0.2-0.5C58,13,58.2,13,58.4,13z M60.5,15.5v11.5h2.6c0.7,0,1.3-0.1,1.7-0.4
			s0.8-0.7,1.1-1.2c0.2-0.6,0.4-1.4,0.4-2.4v-3.4c0-1.5-0.3-2.6-0.8-3.1c-0.6-0.6-1.3-0.9-2.3-0.9H60.5z"/>
			<path d="M88.7,13.6v15.1c0,0.3,0,0.5-0.2,0.5c-0.1,0.1-0.3,0.1-0.6,0.1h-1.3c-0.3,0-0.5,0-0.6-0.1c-0.1-0.1-0.2-0.3-0.2-0.5v-6.7
			h-6.3v6.7c0,0.3-0.1,0.5-0.2,0.5c-0.1,0.1-0.3,0.1-0.6,0.1h-1.3c-0.3,0-0.5,0-0.6-0.1c-0.1-0.1-0.2-0.3-0.2-0.5V13.6
			c0-0.3,0.1-0.5,0.2-0.5C77,13,77.2,13,77.5,13h1.3c0.3,0,0.5,0,0.6,0.1c0.1,0.1,0.2,0.3,0.2,0.5v5.9h6.3v-5.9c0-0.3,0-0.5,0.2-0.5
			c0.1-0.1,0.3-0.1,0.6-0.1h1.3c0.3,0,0.5,0,0.6,0.1C88.6,13.2,88.7,13.4,88.7,13.6z"/>
			<path d="M91.3,13h1.7c0.3,0,0.4,0,0.5,0.1c0.1,0.1,0.2,0.2,0.3,0.4l3.4,6.8l3.3-6.8c0.1-0.2,0.2-0.4,0.3-0.4s0.3-0.1,0.5-0.1h1.6
			c0.4,0,0.6,0.1,0.6,0.4c0,0.1,0,0.2-0.1,0.3l-5,9.6v5.6c0,0.3-0.1,0.5-0.2,0.5c-0.1,0.1-0.3,0.1-0.6,0.1h-1.3
			c-0.3,0-0.5,0-0.6-0.1c-0.1-0.1-0.2-0.3-0.2-0.5v-5.6l-5-9.6c0-0.1-0.1-0.2-0.1-0.3C90.8,13.1,90.9,13,91.3,13z"/>
	</g>
		<g>
		<path d="M104.7,23v-3.4c0-1.6,0.2-2.8,0.5-3.7c0.4-1.1,1.2-2,2.2-2.5s2.2-0.9,3.6-0.9c1,0,2,0.2,2.9,0.5c0.9,0.3,1.6,0.9,2.1,1.6
			s0.8,1.7,0.8,2.8c0,0.2-0.1,0.4-0.2,0.4c-0.1,0.1-0.3,0.1-0.6,0.1h-1.4c-0.3,0-0.5,0-0.6-0.1c-0.1-0.1-0.2-0.2-0.2-0.5
			c-0.1-0.9-0.3-1.5-0.8-1.9c-0.5-0.4-1.2-0.6-2.2-0.6c-0.8,0-1.4,0.1-1.8,0.4c-0.5,0.2-0.8,0.7-1,1.3s-0.3,1.5-0.3,2.5v3.9
			c0,1.6,0.3,2.7,0.8,3.3s1.3,0.9,2.4,0.9c1,0,1.8-0.3,2.3-0.8c0.5-0.5,0.8-1.4,0.8-2.7v-0.4h-1.8c-0.3,0-0.5,0-0.5-0.2
			c-0.1-0.1-0.1-0.3-0.1-0.6v-1c0-0.3,0-0.5,0.1-0.6c0.1-0.1,0.3-0.2,0.5-0.2h3.9c0.3,0,0.5,0,0.6,0.1c0.1,0.1,0.2,0.3,0.2,0.5v2.6
			c0,1-0.2,1.9-0.6,2.8c-0.4,0.8-1.1,1.5-2,2c-0.9,0.5-2,0.8-3.4,0.8c-1.5,0-2.7-0.3-3.6-0.8c-0.9-0.6-1.5-1.3-2-2.3
			c-0.2-0.4-0.3-0.9-0.4-1.5C104.8,24.6,104.7,23.9,104.7,23z"/>
			<path d="M122.5,13.6v15.1c0,0.3-0.1,0.5-0.2,0.5c-0.1,0.1-0.3,0.1-0.6,0.1h-1.3c-0.3,0-0.5,0-0.6-0.1c-0.1-0.1-0.2-0.3-0.2-0.5
			V13.6c0-0.3,0.1-0.5,0.2-0.5c0.1-0.1,0.3-0.1,0.6-0.1h1.3c0.3,0,0.5,0,0.6,0.1C122.5,13.2,122.5,13.4,122.5,13.6z"/>
			<path d="M136,27.7v1c0,0.3,0,0.5-0.1,0.6c-0.1,0.1-0.3,0.2-0.5,0.2h-8.7c-0.3,0-0.5,0-0.6-0.1c-0.1-0.1-0.2-0.3-0.2-0.5V13.6
			c0-0.3,0-0.5,0.2-0.5c0.1-0.1,0.3-0.1,0.6-0.1h8.6c0.3,0,0.5,0.1,0.5,0.2c0.1,0.1,0.1,0.3,0.1,0.6v1c0,0.3,0,0.5-0.1,0.6
			c-0.1,0.1-0.3,0.2-0.5,0.2h-6.6v4.3h6c0.3,0,0.5,0.1,0.5,0.2c0.1,0.1,0.1,0.3,0.1,0.6v1c0,0.3,0,0.5-0.1,0.6
			c-0.1,0.1-0.3,0.2-0.5,0.2h-6v4.7h6.6c0.3,0,0.5,0.1,0.5,0.2C136,27.2,136,27.4,136,27.7z"/>
			<path d="M147.2,28.8l-5.5-10.5v10.5c0,0.3-0.1,0.5-0.2,0.5c-0.1,0.1-0.3,0.1-0.6,0.1h-1.3c-0.3,0-0.5,0-0.6-0.1
			c-0.1-0.1-0.2-0.3-0.2-0.5V13.6c0-0.3,0-0.5,0.2-0.5c0.1-0.1,0.3-0.1,0.6-0.1h1.3c0.3,0,0.5,0,0.6,0.1s0.3,0.3,0.4,0.5l5.5,10.5
			V13.6c0-0.3,0.1-0.5,0.2-0.5c0.1-0.1,0.3-0.1,0.6-0.1h1.3c0.3,0,0.5,0,0.6,0.1c0.1,0.1,0.2,0.3,0.2,0.5v15.1
			c0,0.3-0.1,0.5-0.2,0.5c-0.1,0.1-0.3,0.1-0.6,0.1h-1.3c-0.3,0-0.5,0-0.6-0.1C147.5,29.3,147.4,29.1,147.2,28.8z"/>
			<path d="M163.8,27.7v1c0,0.3,0,0.5-0.1,0.6c-0.1,0.1-0.3,0.2-0.5,0.2h-8.7c-0.3,0-0.5,0-0.6-0.1c-0.1-0.1-0.2-0.3-0.2-0.5V13.6
			c0-0.3,0.1-0.5,0.2-0.5c0.1-0.1,0.3-0.1,0.6-0.1h8.6c0.3,0,0.5,0.1,0.5,0.2c0.1,0.1,0.1,0.3,0.1,0.6v1c0,0.3,0,0.5-0.1,0.6
			c-0.1,0.1-0.3,0.2-0.5,0.2h-6.6v4.3h6c0.3,0,0.5,0.1,0.5,0.2c0.1,0.1,0.1,0.3,0.1,0.6v1c0,0.3,0,0.5-0.1,0.6
			c-0.1,0.1-0.3,0.2-0.5,0.2h-6v4.7h6.6c0.3,0,0.5,0.1,0.5,0.2C163.8,27.2,163.8,27.4,163.8,27.7z"/>
			<path d="M176.7,23h-2.5v5.8c0,0.3,0,0.4-0.1,0.5c-0.1,0.1-0.3,0.1-0.6,0.1h-1.3c-0.3,0-0.5,0-0.6-0.1c-0.1-0.1-0.1-0.3-0.1-0.5
			V13.6c0-0.3,0-0.4,0.1-0.5s0.3-0.1,0.6-0.1h5c1.8,0,3.2,0.4,4,1.2c0.9,0.8,1.3,2,1.3,3.7v0.4c0,2.3-0.9,3.8-2.8,4.4l3.5,6.1
			c0.1,0.1,0.1,0.2,0.1,0.3c0,0.2-0.2,0.4-0.6,0.4h-1.7c-0.2,0-0.4,0-0.6-0.1c-0.1-0.1-0.3-0.3-0.4-0.5L176.7,23z M174.2,15.4v5.2
			h2.9c0.9,0,1.5-0.2,1.9-0.6s0.6-1,0.6-1.9v-0.3c0-0.9-0.2-1.6-0.5-1.9s-1-0.6-1.9-0.6H174.2z"/>
			<path d="M193.1,13.4l5.1,15.4c0,0.1,0,0.2,0,0.3c0,0.3-0.2,0.4-0.5,0.4h-1.6c-0.3,0-0.5,0-0.6-0.1c-0.1-0.1-0.2-0.3-0.3-0.5
			l-1.1-3.3h-6.1l-1,3.3c-0.1,0.3-0.2,0.5-0.3,0.5c-0.1,0.1-0.3,0.1-0.6,0.1h-1.5c-0.3,0-0.5-0.1-0.5-0.4c0,0,0-0.1,0-0.3l5.2-15.4
			c0.1-0.2,0.1-0.3,0.3-0.3c0.1,0,0.3-0.1,0.5-0.1h2.1c0.2,0,0.4,0,0.5,0.1C193,13.1,193.1,13.2,193.1,13.4z M191.3,16.1l-2.2,7h4.5
			L191.3,16.1z"/>
	</g>
		<g>
		<path d="M202.2,28.8V15.5h-4.1c-0.3,0-0.5-0.1-0.5-0.2c-0.1-0.1-0.1-0.3-0.1-0.6v-1c0-0.3,0-0.5,0.1-0.6c0.1-0.1,0.3-0.2,0.5-0.2
			h10.9c0.3,0,0.5,0.1,0.5,0.2c0.1,0.1,0.1,0.3,0.1,0.6v1c0,0.3,0,0.5-0.1,0.6c-0.1,0.1-0.3,0.2-0.5,0.2H205v13.3
			c0,0.3,0,0.5-0.2,0.5c-0.1,0.1-0.3,0.1-0.6,0.1h-1.3c-0.3,0-0.5,0-0.6-0.1C202.3,29.2,202.2,29.1,202.2,28.8z"/>
			<path d="M214.8,13.6v15.1c0,0.3,0,0.5-0.2,0.5c-0.1,0.1-0.3,0.1-0.6,0.1h-1.3c-0.3,0-0.5,0-0.6-0.1c-0.1-0.1-0.2-0.3-0.2-0.5V13.6
			c0-0.3,0-0.5,0.2-0.5c0.1-0.1,0.3-0.1,0.6-0.1h1.3c0.3,0,0.5,0,0.6,0.1C214.8,13.2,214.8,13.4,214.8,13.6z"/>
			<path d="M226.5,28.8l-5.5-10.5v10.5c0,0.3,0,0.5-0.2,0.5c-0.1,0.1-0.3,0.1-0.6,0.1h-1.3c-0.3,0-0.5,0-0.6-0.1
			c-0.1-0.1-0.2-0.3-0.2-0.5V13.6c0-0.3,0.1-0.5,0.2-0.5c0.1-0.1,0.3-0.1,0.6-0.1h1.3c0.3,0,0.5,0,0.6,0.1c0.1,0.1,0.3,0.3,0.4,0.5
			l5.5,10.5V13.6c0-0.3,0-0.5,0.2-0.5c0.1-0.1,0.3-0.1,0.6-0.1h1.3c0.3,0,0.5,0,0.6,0.1c0.1,0.1,0.2,0.3,0.2,0.5v15.1
			c0,0.3-0.1,0.5-0.2,0.5c-0.1,0.1-0.3,0.1-0.6,0.1h-1.3c-0.3,0-0.5,0-0.6-0.1C226.8,29.3,226.6,29.1,226.5,28.8z"/>
			<path d="M232.5,23v-3.4c0-1.6,0.2-2.8,0.5-3.7c0.4-1.1,1.2-2,2.2-2.5c1-0.6,2.2-0.9,3.6-0.9c1,0,2,0.2,2.9,0.5
			c0.9,0.3,1.6,0.9,2.1,1.6c0.5,0.7,0.8,1.7,0.8,2.8c0,0.2-0.1,0.4-0.2,0.4c-0.1,0.1-0.3,0.1-0.6,0.1h-1.4c-0.3,0-0.5,0-0.6-0.1
			c-0.1-0.1-0.2-0.2-0.2-0.5c-0.1-0.9-0.3-1.5-0.8-1.9c-0.5-0.4-1.2-0.6-2.2-0.6c-0.8,0-1.4,0.1-1.8,0.4s-0.8,0.7-1,1.3
			c-0.2,0.6-0.3,1.5-0.3,2.5v3.9c0,1.6,0.3,2.7,0.8,3.3c0.5,0.6,1.3,0.9,2.4,0.9c1,0,1.8-0.3,2.3-0.8c0.5-0.5,0.8-1.4,0.8-2.7v-0.4
			h-1.8c-0.3,0-0.5,0-0.5-0.2c-0.1-0.1-0.1-0.3-0.1-0.6v-1c0-0.3,0-0.5,0.1-0.6c0.1-0.1,0.3-0.2,0.5-0.2h3.9c0.3,0,0.5,0,0.6,0.1
			c0.1,0.1,0.2,0.3,0.2,0.5v2.6c0,1-0.2,1.9-0.6,2.8c-0.4,0.8-1.1,1.5-2,2c-0.9,0.5-2,0.8-3.4,0.8c-1.5,0-2.7-0.3-3.6-0.8
			c-0.9-0.6-1.5-1.3-2-2.3c-0.2-0.4-0.3-0.9-0.4-1.5C232.6,24.6,232.5,23.9,232.5,23z"/>
	</g>
		<g>
		<path d="M20.8,63.9l5,15c0,0.1,0,0.2,0,0.2c0,0.3-0.2,0.4-0.5,0.4h-1.6c-0.3,0-0.5,0-0.6-0.1c-0.1-0.1-0.2-0.3-0.3-0.5l-1-3.2H16
			l-1,3.2c-0.1,0.3-0.2,0.4-0.3,0.5s-0.3,0.1-0.6,0.1h-1.5c-0.3,0-0.5-0.1-0.5-0.4c0,0,0-0.1,0-0.2l5.1-15c0.1-0.2,0.1-0.3,0.2-0.3
			s0.3-0.1,0.5-0.1h2c0.2,0,0.4,0,0.5,0.1C20.7,63.6,20.7,63.7,20.8,63.9z M19,66.5l-2.2,6.8h4.4L19,66.5z"/>
			<path d="M26,63.5h1.5c0.3,0,0.5,0,0.6,0.1c0.1,0.1,0.2,0.3,0.2,0.5l2.1,11l2.3-10.7c0-0.2,0.1-0.3,0.2-0.3
			c0.1-0.1,0.3-0.1,0.5-0.1h1.4c0.2,0,0.4,0,0.5,0.1c0.1,0.1,0.2,0.2,0.2,0.3l2.1,10.8l2.4-11.2c0.1-0.3,0.1-0.5,0.2-0.5
			c0.1-0.1,0.3-0.1,0.6-0.1h1.5c0.3,0,0.5,0.1,0.5,0.4c0,0.1,0,0.3-0.1,0.5l-3.3,14.8c0,0.2-0.1,0.3-0.2,0.3
			c-0.1,0.1-0.3,0.1-0.5,0.1H37c-0.2,0-0.4,0-0.5-0.1c-0.1-0.1-0.2-0.2-0.2-0.3l-2.2-10.6l-2.2,10.6c0,0.2-0.1,0.3-0.2,0.3
			c-0.1,0.1-0.3,0.1-0.5,0.1h-1.7c-0.2,0-0.4,0-0.5-0.1c-0.1-0.1-0.2-0.2-0.2-0.3l-3.2-14.8c0-0.2-0.1-0.3-0.1-0.5
			C25.5,63.6,25.7,63.5,26,63.5z"/>
	</g>
		<g>
		<path d="M51.1,63.9l5,15c0,0.1,0,0.2,0,0.2c0,0.3-0.2,0.4-0.5,0.4h-1.6c-0.3,0-0.5,0-0.6-0.1c-0.1-0.1-0.2-0.3-0.3-0.5l-1-3.2
			h-5.9l-1,3.2c-0.1,0.3-0.2,0.4-0.3,0.5s-0.3,0.1-0.6,0.1h-1.5c-0.3,0-0.5-0.1-0.5-0.4c0,0,0-0.1,0-0.2l5.1-15
			c0.1-0.2,0.1-0.3,0.2-0.3s0.3-0.1,0.5-0.1h2c0.2,0,0.4,0,0.5,0.1C51,63.6,51.1,63.7,51.1,63.9z M49.3,66.5l-2.2,6.8h4.4L49.3,66.5
			z"/>
			<path d="M60.9,64.1v14.7c0,0.3,0,0.4-0.1,0.5c-0.1,0.1-0.3,0.1-0.6,0.1h-1.3c-0.3,0-0.5,0-0.6-0.1c-0.1-0.1-0.1-0.3-0.1-0.5V64.1
			c0-0.3,0-0.4,0.1-0.5s0.3-0.1,0.6-0.1h1.3c0.3,0,0.5,0,0.6,0.1C60.9,63.7,60.9,63.8,60.9,64.1z"/>
			<path d="M67.7,78.8V65.9h-3.9c-0.3,0-0.4,0-0.5-0.1c-0.1-0.1-0.1-0.3-0.1-0.6v-1c0-0.3,0-0.5,0.1-0.6c0.1-0.1,0.3-0.1,0.5-0.1
			h10.6c0.3,0,0.4,0,0.5,0.1c0.1,0.1,0.1,0.3,0.1,0.6v1c0,0.3,0,0.5-0.1,0.6c-0.1,0.1-0.3,0.1-0.5,0.1h-3.9v12.9
			c0,0.3,0,0.4-0.1,0.5c-0.1,0.1-0.3,0.1-0.6,0.1h-1.3c-0.3,0-0.5,0-0.6-0.1C67.8,79.3,67.7,79.1,67.7,78.8z"/>
			<path d="M80,64.1v14.7c0,0.3,0,0.4-0.1,0.5c-0.1,0.1-0.3,0.1-0.6,0.1H78c-0.3,0-0.5,0-0.6-0.1c-0.1-0.1-0.1-0.3-0.1-0.5V64.1
			c0-0.3,0-0.4,0.1-0.5c0.1-0.1,0.3-0.1,0.6-0.1h1.3c0.3,0,0.5,0,0.6,0.1S80,63.8,80,64.1z"/>
			<path d="M91.3,78.8l-5.4-10.2v10.2c0,0.3,0,0.4-0.1,0.5c-0.1,0.1-0.3,0.1-0.6,0.1h-1.2c-0.3,0-0.5,0-0.6-0.1
			c-0.1-0.1-0.1-0.3-0.1-0.5V64.1c0-0.3,0-0.4,0.1-0.5s0.3-0.1,0.6-0.1h1.3c0.3,0,0.5,0,0.6,0.1c0.1,0.1,0.3,0.2,0.4,0.5l5.4,10.2
			V64.1c0-0.3,0-0.4,0.1-0.5s0.3-0.1,0.6-0.1h1.2c0.3,0,0.5,0,0.6,0.1c0.1,0.1,0.1,0.3,0.1,0.5v14.7c0,0.3,0,0.4-0.1,0.5
			c-0.1,0.1-0.3,0.1-0.6,0.1h-1.3c-0.3,0-0.5,0-0.6-0.1C91.6,79.3,91.4,79.1,91.3,78.8z"/>
			<path d="M97.2,73.2v-3.3c0-1.5,0.2-2.7,0.5-3.6c0.4-1.1,1.1-1.9,2.1-2.5c1-0.6,2.1-0.8,3.5-0.8c1,0,2,0.2,2.8,0.5
			c0.9,0.3,1.5,0.9,2,1.6c0.5,0.7,0.8,1.6,0.8,2.7c0,0.2-0.1,0.4-0.2,0.4c-0.1,0.1-0.3,0.1-0.6,0.1h-1.4c-0.3,0-0.5,0-0.6-0.1
			c-0.1-0.1-0.2-0.2-0.2-0.5c-0.1-0.8-0.3-1.5-0.8-1.8c-0.5-0.4-1.2-0.6-2.2-0.6c-0.7,0-1.3,0.1-1.8,0.4c-0.5,0.2-0.8,0.7-1,1.3
			c-0.2,0.6-0.3,1.4-0.3,2.5v3.8c0,1.5,0.3,2.6,0.8,3.2c0.5,0.6,1.3,0.9,2.4,0.9c1,0,1.7-0.3,2.2-0.8s0.8-1.4,0.8-2.6v-0.4h-1.7
			c-0.3,0-0.4,0-0.5-0.1c-0.1-0.1-0.1-0.3-0.1-0.6v-1c0-0.3,0-0.5,0.1-0.6c0.1-0.1,0.3-0.1,0.5-0.1h3.8c0.3,0,0.5,0,0.6,0.1
			c0.1,0.1,0.1,0.3,0.1,0.5v2.5c0,1-0.2,1.9-0.6,2.7c-0.4,0.8-1.1,1.5-1.9,2c-0.9,0.5-2,0.7-3.3,0.7c-1.5,0-2.6-0.3-3.5-0.8
			s-1.5-1.3-1.9-2.2c-0.2-0.4-0.3-0.9-0.4-1.4S97.2,74.1,97.2,73.2z"/>
			<path d="M121.4,73.5h-2.5v5.3c0,0.3,0,0.4-0.1,0.5c-0.1,0.1-0.3,0.1-0.6,0.1H117c-0.3,0-0.5,0-0.6-0.1c-0.1-0.1-0.1-0.3-0.1-0.5
			V64.1c0-0.3,0-0.4,0.1-0.5s0.3-0.1,0.6-0.1h4.5c1.8,0,3.1,0.4,4,1.1c0.9,0.7,1.3,2,1.3,3.8v0.5c0,1.6-0.5,2.8-1.4,3.6
			C124.5,73.2,123.2,73.5,121.4,73.5z M118.9,65.8v5.4h2.5c0.8,0,1.3-0.1,1.7-0.3c0.4-0.2,0.6-0.5,0.7-0.9c0.1-0.4,0.2-0.8,0.2-1.2
			v-0.3c0-0.5-0.1-0.9-0.2-1.3c-0.1-0.4-0.4-0.7-0.7-0.9c-0.4-0.2-0.9-0.3-1.7-0.3H118.9z"/>
			<path d="M140.3,64.1v9.8c0,2-0.5,3.4-1.4,4.4s-2.3,1.5-4.1,1.5h-0.2c-1.8,0-3.2-0.5-4.1-1.5c-0.9-1-1.4-2.5-1.4-4.4v-9.8
			c0-0.3,0-0.4,0.1-0.5c0.1-0.1,0.3-0.1,0.6-0.1h1.3c0.3,0,0.5,0,0.6,0.1c0.1,0.1,0.1,0.3,0.1,0.5v9.8c0,2.3,0.9,3.5,2.8,3.5h0.3
			c1.8,0,2.8-1.2,2.8-3.5v-9.8c0-0.3,0-0.4,0.1-0.5c0.1-0.1,0.3-0.1,0.6-0.1h1.3c0.3,0,0.5,0,0.6,0.1
			C140.3,63.7,140.3,63.9,140.3,64.1z"/>
			<path d="M148.9,79.5h-4.7c-0.3,0-0.5,0-0.6-0.1c-0.1-0.1-0.1-0.3-0.1-0.5V64.1c0-0.3,0-0.4,0.1-0.5s0.3-0.1,0.6-0.1h5.2
			c1.6,0,2.8,0.3,3.6,1c0.8,0.7,1.2,1.7,1.2,3v0.3c0,0.8-0.2,1.5-0.6,2.1s-0.9,1-1.6,1.1c0.7,0.2,1.3,0.6,1.7,1.2
			c0.5,0.6,0.7,1.4,0.7,2.3v0.4c0,1.7-0.5,2.8-1.4,3.5C152,79.1,150.7,79.5,148.9,79.5z M146.1,65.8V70h3c0.8,0,1.3-0.1,1.7-0.5
			c0.4-0.3,0.6-0.8,0.6-1.5v-0.3c0-1.3-0.8-2-2.4-2H146.1z M146.1,72.2v4.9h2.8c0.8,0,1.5-0.2,1.9-0.5c0.5-0.3,0.7-0.9,0.7-1.7v-0.4
			c0-0.7-0.2-1.2-0.6-1.6s-1-0.6-1.7-0.6H146.1z"/>
			<path d="M166.3,77.8v1c0,0.3,0,0.5-0.1,0.6c-0.1,0.1-0.3,0.1-0.5,0.1h-8c-0.3,0-0.5,0-0.6-0.1c-0.1-0.1-0.1-0.3-0.1-0.5V64.1
			c0-0.3,0-0.4,0.1-0.5s0.3-0.1,0.6-0.1h1.3c0.3,0,0.5,0,0.6,0.1s0.1,0.3,0.1,0.5V77h6c0.3,0,0.4,0,0.5,0.1
			C166.3,77.3,166.3,77.5,166.3,77.8z"/>
			<path d="M171.2,64.1v14.7c0,0.3,0,0.4-0.1,0.5c-0.1,0.1-0.3,0.1-0.6,0.1h-1.3c-0.3,0-0.5,0-0.6-0.1c-0.1-0.1-0.1-0.3-0.1-0.5V64.1
			c0-0.3,0-0.4,0.1-0.5s0.3-0.1,0.6-0.1h1.3c0.3,0,0.5,0,0.6,0.1S171.2,63.8,171.2,64.1z"/>
			<path d="M182.7,74.8c0-0.2,0.1-0.4,0.2-0.5c0.1-0.1,0.3-0.1,0.6-0.1h1.3c0.3,0,0.5,0,0.6,0.1s0.1,0.2,0.1,0.5c0,0.8-0.1,1.5-0.3,2
			c-0.2,0.5-0.5,1-1,1.5c-1,1-2.5,1.5-4.5,1.5c-2.5,0-4.2-1-5.1-3.1c-0.2-0.4-0.3-0.9-0.4-1.4c-0.1-0.5-0.1-1.2-0.1-2.1v-3.3
			c0-0.8,0-1.5,0.1-2c0.1-0.5,0.2-1.1,0.4-1.5c0.4-1,1.1-1.9,2-2.4c0.9-0.6,2.1-0.9,3.4-0.9c1.9,0,3.3,0.5,4.3,1.5
			c0.4,0.5,0.7,1,0.9,1.5c0.2,0.5,0.3,1.2,0.3,2c0,0.2,0,0.4-0.1,0.5c-0.1,0.1-0.3,0.1-0.6,0.1h-1.4c-0.3,0-0.5,0-0.6-0.1
			s-0.2-0.2-0.2-0.5c0-0.9-0.2-1.6-0.7-2c-0.4-0.4-1.1-0.6-2.1-0.6c-1.1,0-1.9,0.3-2.3,0.9c-0.4,0.6-0.7,1.7-0.7,3.2v3.8
			c0,1.4,0.2,2.5,0.7,3.1s1.2,1,2.3,1c0.9,0,1.6-0.2,2.1-0.7C182.4,76.3,182.6,75.7,182.7,74.8z"/>
			<path d="M195.2,63.9l5,15c0,0.1,0,0.2,0,0.2c0,0.3-0.2,0.4-0.5,0.4h-1.6c-0.3,0-0.5,0-0.6-0.1c-0.1-0.1-0.2-0.3-0.3-0.5l-1-3.2
			h-5.9l-1,3.2c-0.1,0.3-0.2,0.4-0.3,0.5s-0.3,0.1-0.6,0.1h-1.5c-0.3,0-0.5-0.1-0.5-0.4c0,0,0-0.1,0-0.2l5.1-15
			c0.1-0.2,0.1-0.3,0.2-0.3s0.3-0.1,0.5-0.1h2c0.2,0,0.4,0,0.5,0.1S195.2,63.7,195.2,63.9z M193.4,66.5l-2.2,6.8h4.4L193.4,66.5z"/>
	</g>
		<g>
		<path d="M204,78.8V65.9h-3.9c-0.3,0-0.4,0-0.5-0.1s-0.1-0.3-0.1-0.6v-1c0-0.3,0-0.5,0.1-0.6s0.3-0.1,0.5-0.1h10.6
			c0.3,0,0.4,0,0.5,0.1c0.1,0.1,0.1,0.3,0.1,0.6v1c0,0.3,0,0.5-0.1,0.6c-0.1,0.1-0.3,0.1-0.5,0.1h-3.9v12.9c0,0.3,0,0.4-0.1,0.5
			c-0.1,0.1-0.3,0.1-0.6,0.1h-1.3c-0.3,0-0.5,0-0.6-0.1C204.1,79.3,204,79.1,204,78.8z"/>
			<path d="M216.3,64.1v14.7c0,0.3,0,0.4-0.1,0.5c-0.1,0.1-0.3,0.1-0.6,0.1h-1.3c-0.3,0-0.5,0-0.6-0.1c-0.1-0.1-0.1-0.3-0.1-0.5V64.1
			c0-0.3,0-0.4,0.1-0.5s0.3-0.1,0.6-0.1h1.3c0.3,0,0.5,0,0.6,0.1S216.3,63.8,216.3,64.1z"/>
			<path d="M225,63.1c2.7,0,4.5,1,5.4,3.1c0.2,0.4,0.3,0.9,0.4,1.5c0.1,0.5,0.1,1.2,0.1,2.1V73c0,0.8,0,1.5-0.1,2s-0.2,1.1-0.4,1.5
			c-0.4,1.1-1.1,1.9-2,2.4c-0.9,0.6-2,0.8-3.4,0.8c-2.7,0-4.5-1-5.4-3.1c-0.2-0.4-0.3-0.9-0.4-1.5c-0.1-0.5-0.1-1.2-0.1-2.1v-3.3
			c0-0.8,0-1.5,0.1-2c0.1-0.6,0.2-1.1,0.4-1.5c0.4-1.1,1.1-1.9,2-2.4C222.6,63.4,223.7,63.1,225,63.1z M225,65.5
			c-1.1,0-1.9,0.3-2.4,0.9s-0.7,1.7-0.7,3.1v3.8c0,1.5,0.2,2.5,0.7,3.1c0.5,0.6,1.3,0.9,2.4,0.9c1.1,0,1.9-0.3,2.4-0.9
			c0.5-0.6,0.7-1.7,0.7-3.1v-3.8c0-1.5-0.2-2.5-0.7-3.1S226.1,65.5,225,65.5z"/>
			<path d="M241.8,78.8l-5.4-10.2v10.2c0,0.3,0,0.4-0.1,0.5c-0.1,0.1-0.3,0.1-0.6,0.1h-1.2c-0.3,0-0.5,0-0.6-0.1
			c-0.1-0.1-0.1-0.3-0.1-0.5V64.1c0-0.3,0-0.4,0.1-0.5s0.3-0.1,0.6-0.1h1.3c0.3,0,0.5,0,0.6,0.1c0.1,0.1,0.3,0.2,0.4,0.5l5.4,10.2
			V64.1c0-0.3,0-0.4,0.1-0.5s0.3-0.1,0.6-0.1h1.2c0.3,0,0.5,0,0.6,0.1s0.1,0.3,0.1,0.5v14.7c0,0.3,0,0.4-0.1,0.5
			c-0.1,0.1-0.3,0.1-0.6,0.1h-1.3c-0.3,0-0.5,0-0.6-0.1C242.1,79.3,242,79.1,241.8,78.8z"/>
	</g>
</g>
</svg>
