<?xml version="1.0" encoding="utf-8"?>
<!-- Generator: Adobe Illustrator 26.0.1, SVG Export Plug-In . SVG Version: 6.00 Build 0)  -->
<svg version="1.1" id="Layer_1" xmlns="http://www.w3.org/2000/svg" xmlns:xlink="http://www.w3.org/1999/xlink" x="0px" y="0px"
	 viewBox="0 0 428.03 102.04" style="enable-background:new 0 0 428.03 102.04;" xml:space="preserve">
<style type="text/css">
	.st0{enable-background:new    ;}
	.st1{fill:#84BD00;}
	.st2{fill:#FFFFFF;}
	.st3{fill:none;}
</style>
<g class="st0">
	<path d="M19.09,22.03v6.74c0,0.28-0.05,0.46-0.15,0.54s-0.3,0.13-0.59,0.13h-1.34c-0.29,0-0.49-0.04-0.59-0.13
		s-0.15-0.27-0.15-0.54V13.62c0-0.28,0.05-0.46,0.15-0.54s0.3-0.13,0.59-0.13h8.59c0.28,0,0.46,0.05,0.54,0.15
		c0.08,0.1,0.13,0.3,0.13,0.59v1.02c0,0.29-0.04,0.49-0.13,0.59c-0.08,0.1-0.27,0.15-0.54,0.15h-6.51v4.08H25
		c0.28,0,0.46,0.05,0.54,0.15s0.13,0.3,0.13,0.59v1.02c0,0.29-0.04,0.49-0.13,0.59s-0.27,0.15-0.54,0.15H19.09z"/>
	<path d="M34.52,12.58c1.37,0,2.53,0.27,3.46,0.8c0.93,0.53,1.62,1.32,2.07,2.35c0.2,0.45,0.34,0.95,0.42,1.51s0.12,1.27,0.12,2.15
		v3.38c0,0.8-0.04,1.49-0.13,2.07c-0.09,0.58-0.22,1.11-0.41,1.59c-0.45,1.11-1.14,1.95-2.07,2.52s-2.09,0.86-3.46,0.86
		s-2.53-0.27-3.46-0.8c-0.93-0.53-1.62-1.32-2.07-2.35c-0.2-0.45-0.34-0.95-0.42-1.5c-0.08-0.56-0.12-1.27-0.12-2.15v-3.38
		c0-0.8,0.04-1.49,0.13-2.07s0.22-1.11,0.41-1.59c0.45-1.11,1.14-1.95,2.07-2.52C31.99,12.87,33.14,12.58,34.52,12.58z M34.52,15.06
		c-1.14,0-1.96,0.32-2.44,0.97c-0.49,0.65-0.73,1.72-0.73,3.22v3.89c0,1.5,0.24,2.57,0.73,3.22s1.3,0.97,2.44,0.97
		s1.96-0.32,2.44-0.97c0.49-0.65,0.73-1.72,0.73-3.22v-3.89c0-1.5-0.24-2.57-0.73-3.22C36.47,15.38,35.66,15.06,34.52,15.06z"/>
	<path d="M49.15,12.58c1.37,0,2.53,0.27,3.46,0.8c0.93,0.53,1.62,1.32,2.07,2.35c0.2,0.45,0.34,0.95,0.42,1.51s0.12,1.27,0.12,2.15
		v3.38c0,0.8-0.04,1.49-0.13,2.07c-0.09,0.58-0.22,1.11-0.41,1.59c-0.45,1.11-1.14,1.95-2.07,2.52s-2.09,0.86-3.46,0.86
		s-2.53-0.27-3.46-0.8c-0.93-0.53-1.62-1.32-2.07-2.35c-0.2-0.45-0.34-0.95-0.42-1.5c-0.08-0.56-0.12-1.27-0.12-2.15v-3.38
		c0-0.8,0.04-1.49,0.13-2.07s0.22-1.11,0.41-1.59c0.45-1.11,1.14-1.95,2.07-2.52C46.63,12.87,47.78,12.58,49.15,12.58z M49.15,15.06
		c-1.14,0-1.96,0.32-2.44,0.97c-0.49,0.65-0.73,1.72-0.73,3.22v3.89c0,1.5,0.24,2.57,0.73,3.22s1.3,0.97,2.44,0.97
		s1.96-0.32,2.44-0.97c0.49-0.65,0.73-1.72,0.73-3.22v-3.89c0-1.5-0.24-2.57-0.73-3.22C51.11,15.38,50.3,15.06,49.15,15.06z"/>
	<path d="M63.61,12.95c0.76,0,1.43,0.08,2.03,0.25s1.12,0.4,1.58,0.68c0.46,0.29,0.84,0.62,1.15,1c0.31,0.38,0.56,0.78,0.74,1.22
		c0.17,0.42,0.3,0.88,0.41,1.4c0.1,0.52,0.15,1.22,0.15,2.1v3.31c0,0.87-0.05,1.55-0.15,2.06s-0.24,0.96-0.41,1.37
		c-0.17,0.42-0.4,0.81-0.69,1.19c-0.29,0.38-0.65,0.71-1.07,1c-0.42,0.29-0.91,0.51-1.47,0.67c-0.56,0.16-1.2,0.24-1.91,0.24h-5.07
		c-0.29,0-0.49-0.04-0.59-0.13s-0.15-0.27-0.15-0.54V13.62c0-0.28,0.05-0.46,0.15-0.54s0.3-0.13,0.59-0.13H63.61z M60.97,26.94h2.59
		c0.52,0,0.98-0.07,1.38-0.2c0.39-0.13,0.73-0.35,1-0.66c0.27-0.31,0.47-0.72,0.61-1.24c0.14-0.52,0.21-1.16,0.21-1.93v-3.43
		c0-0.76-0.07-1.39-0.22-1.91c-0.15-0.52-0.36-0.93-0.63-1.24s-0.6-0.53-1-0.67s-0.85-0.21-1.35-0.21h-2.59V26.94z"/>
	<path d="M89.1,28.77c0,0.28-0.05,0.46-0.15,0.54c-0.1,0.08-0.3,0.13-0.59,0.13h-1.34c-0.29,0-0.49-0.04-0.59-0.13
		c-0.1-0.08-0.15-0.27-0.15-0.54v-6.72h-6.25v6.72c0,0.28-0.05,0.46-0.15,0.54s-0.3,0.13-0.59,0.13h-1.34
		c-0.29,0-0.49-0.04-0.59-0.13s-0.15-0.27-0.15-0.54V13.62c0-0.28,0.05-0.46,0.15-0.54s0.3-0.13,0.59-0.13h1.34
		c0.29,0,0.49,0.04,0.59,0.13s0.15,0.27,0.15,0.54v5.93h6.25v-5.93c0-0.28,0.05-0.46,0.15-0.54c0.1-0.08,0.3-0.13,0.59-0.13h1.34
		c0.29,0,0.49,0.04,0.59,0.13c0.1,0.08,0.15,0.27,0.15,0.54V28.77z"/>
	<path d="M93.32,12.95c0.26,0,0.44,0.04,0.54,0.1c0.1,0.07,0.2,0.21,0.31,0.43l3.36,6.83l3.31-6.83c0.11-0.22,0.21-0.36,0.31-0.43
		c0.1-0.07,0.28-0.1,0.54-0.1h1.6c0.39,0,0.58,0.12,0.58,0.37c0,0.11-0.02,0.21-0.07,0.3l-4.96,9.57v5.58
		c0,0.28-0.05,0.46-0.15,0.54s-0.3,0.13-0.59,0.13h-1.34c-0.29,0-0.49-0.04-0.59-0.13s-0.15-0.27-0.15-0.54v-5.58l-4.96-9.57
		c-0.05-0.09-0.07-0.19-0.07-0.3c0-0.25,0.19-0.37,0.58-0.37H93.32z"/>
</g>
<g class="st0">
	<path d="M104.77,19.62c0-1.59,0.18-2.81,0.53-3.66c0.45-1.11,1.17-1.95,2.17-2.52c1-0.57,2.19-0.86,3.58-0.86
		c0.79,0,1.53,0.1,2.23,0.29c0.7,0.19,1.32,0.49,1.84,0.89c0.52,0.4,0.94,0.92,1.25,1.54c0.31,0.63,0.46,1.37,0.46,2.24
		c0,0.22-0.05,0.36-0.16,0.44s-0.3,0.12-0.58,0.12h-1.44c-0.28,0-0.47-0.04-0.57-0.12c-0.1-0.08-0.16-0.23-0.17-0.46
		c-0.06-0.88-0.34-1.51-0.83-1.9s-1.24-0.58-2.22-0.58c-0.57,0-1.06,0.07-1.46,0.2c-0.4,0.13-0.73,0.36-0.98,0.68
		s-0.44,0.76-0.57,1.3c-0.12,0.54-0.19,1.22-0.19,2.04v3.89c0,1.56,0.26,2.66,0.78,3.29c0.52,0.63,1.32,0.95,2.42,0.95
		c1.02,0,1.79-0.26,2.32-0.79c0.52-0.52,0.79-1.42,0.79-2.69v-0.44h-1.78c-0.28,0-0.46-0.05-0.54-0.15c-0.08-0.1-0.13-0.3-0.13-0.59
		V21.7c0-0.29,0.04-0.49,0.13-0.59c0.08-0.1,0.27-0.15,0.54-0.15h3.91c0.29,0,0.49,0.04,0.59,0.13c0.1,0.09,0.15,0.27,0.15,0.54
		v2.62c0,0.76-0.12,1.47-0.36,2.14c-0.24,0.67-0.61,1.26-1.1,1.77c-0.49,0.51-1.12,0.91-1.88,1.2c-0.76,0.29-1.64,0.44-2.66,0.44
		c-1.5,0-2.68-0.27-3.55-0.82c-0.87-0.55-1.53-1.32-1.98-2.33c-0.2-0.45-0.34-0.95-0.42-1.49c-0.08-0.55-0.12-1.27-0.12-2.17V19.62z
		"/>
	<path d="M122.58,28.77c0,0.28-0.05,0.46-0.15,0.54s-0.3,0.13-0.59,0.13h-1.34c-0.29,0-0.49-0.04-0.59-0.13s-0.15-0.27-0.15-0.54
		V13.62c0-0.28,0.05-0.46,0.15-0.54s0.3-0.13,0.59-0.13h1.34c0.29,0,0.49,0.04,0.59,0.13s0.15,0.27,0.15,0.54V28.77z"/>
	<path d="M136.06,28.7c0,0.29-0.04,0.49-0.13,0.59s-0.27,0.15-0.54,0.15h-8.73c-0.29,0-0.49-0.04-0.59-0.13s-0.15-0.27-0.15-0.54
		V13.62c0-0.28,0.05-0.46,0.15-0.54s0.3-0.13,0.59-0.13h8.64c0.28,0,0.46,0.05,0.54,0.15c0.08,0.1,0.13,0.3,0.13,0.59v1.02
		c0,0.29-0.04,0.49-0.13,0.59c-0.09,0.1-0.27,0.15-0.54,0.15h-6.55v4.26h5.95c0.28,0,0.46,0.05,0.54,0.15s0.13,0.3,0.13,0.59v1.02
		c0,0.29-0.04,0.49-0.13,0.59s-0.27,0.15-0.54,0.15h-5.95v4.72h6.65c0.28,0,0.46,0.05,0.54,0.15s0.13,0.3,0.13,0.59V28.7z"/>
	<path d="M141.73,18.3v10.47c0,0.28-0.05,0.46-0.15,0.54c-0.1,0.08-0.3,0.13-0.59,0.13h-1.27c-0.29,0-0.49-0.04-0.59-0.13
		s-0.15-0.27-0.15-0.54V13.62c0-0.28,0.05-0.46,0.15-0.54s0.3-0.13,0.59-0.13h1.34c0.29,0,0.51,0.04,0.64,0.1s0.27,0.25,0.43,0.54
		l5.54,10.49V13.62c0-0.28,0.05-0.46,0.15-0.54s0.3-0.13,0.59-0.13h1.27c0.29,0,0.49,0.04,0.59,0.13c0.1,0.08,0.15,0.27,0.15,0.54
		v15.15c0,0.28-0.05,0.46-0.15,0.54c-0.1,0.08-0.3,0.13-0.59,0.13h-1.34c-0.29,0-0.51-0.04-0.64-0.1c-0.13-0.07-0.27-0.25-0.43-0.54
		L141.73,18.3z"/>
	<path d="M163.9,28.7c0,0.29-0.04,0.49-0.13,0.59s-0.27,0.15-0.54,0.15h-8.73c-0.29,0-0.49-0.04-0.59-0.13s-0.15-0.27-0.15-0.54
		V13.62c0-0.28,0.05-0.46,0.15-0.54s0.3-0.13,0.59-0.13h8.64c0.28,0,0.46,0.05,0.54,0.15c0.08,0.1,0.13,0.3,0.13,0.59v1.02
		c0,0.29-0.04,0.49-0.13,0.59c-0.09,0.1-0.27,0.15-0.54,0.15h-6.55v4.26h5.95c0.28,0,0.46,0.05,0.54,0.15s0.13,0.3,0.13,0.59v1.02
		c0,0.29-0.04,0.49-0.13,0.59s-0.27,0.15-0.54,0.15h-5.95v4.72h6.65c0.28,0,0.46,0.05,0.54,0.15s0.13,0.3,0.13,0.59V28.7z"/>
	<path d="M174.23,23v5.77c0,0.26-0.05,0.44-0.14,0.53c-0.09,0.09-0.29,0.14-0.6,0.14h-1.3c-0.31,0-0.51-0.05-0.6-0.14
		c-0.09-0.09-0.14-0.27-0.14-0.53V13.62c0-0.26,0.05-0.44,0.14-0.53c0.09-0.09,0.29-0.14,0.6-0.14h4.96c1.84,0,3.18,0.38,4.03,1.15
		c0.85,0.76,1.27,1.99,1.27,3.67v0.44c0,2.35-0.93,3.83-2.8,4.45l3.45,6.11c0.06,0.12,0.09,0.22,0.09,0.3c0,0.25-0.2,0.37-0.6,0.37
		h-1.74c-0.26,0-0.45-0.04-0.57-0.13s-0.25-0.27-0.41-0.54L176.75,23H174.23z M174.23,20.59h2.9c0.9,0,1.53-0.18,1.9-0.54
		c0.37-0.36,0.56-0.98,0.56-1.86v-0.32c0-0.93-0.18-1.58-0.54-1.95c-0.36-0.37-1-0.56-1.91-0.56h-2.9V20.59z"/>
	<path d="M198.17,28.77c0.03,0.12,0.05,0.21,0.05,0.25c0,0.28-0.17,0.42-0.51,0.42h-1.62c-0.29,0-0.48-0.04-0.57-0.13
		c-0.08-0.08-0.17-0.27-0.27-0.54l-1.07-3.27h-6.07l-1.04,3.29c-0.09,0.28-0.18,0.46-0.27,0.53c-0.08,0.08-0.27,0.12-0.57,0.12
		h-1.53c-0.34,0-0.51-0.14-0.51-0.42c0-0.05,0.02-0.13,0.05-0.25l5.21-15.4c0.06-0.19,0.15-0.3,0.25-0.35
		c0.11-0.05,0.27-0.07,0.49-0.07h2.08c0.22,0,0.38,0.02,0.49,0.07c0.11,0.05,0.19,0.16,0.25,0.35L198.17,28.77z M188.89,23.09h4.52
		l-2.27-7.04L188.89,23.09z"/>
</g>
<g class="st0">
	<path d="M202.02,15.45h-4.05c-0.28,0-0.46-0.05-0.54-0.15c-0.09-0.1-0.13-0.3-0.13-0.59v-1.02c0-0.29,0.04-0.49,0.13-0.59
		c0.08-0.1,0.27-0.15,0.54-0.15h10.93c0.28,0,0.46,0.05,0.54,0.15c0.08,0.1,0.13,0.3,0.13,0.59v1.02c0,0.29-0.04,0.49-0.13,0.59
		c-0.09,0.1-0.27,0.15-0.54,0.15h-4.05v13.32c0,0.28-0.05,0.46-0.15,0.54c-0.1,0.08-0.3,0.13-0.59,0.13h-1.34
		c-0.29,0-0.49-0.04-0.59-0.13c-0.1-0.08-0.15-0.27-0.15-0.54V15.45z"/>
	<path d="M214.52,28.77c0,0.28-0.05,0.46-0.15,0.54s-0.3,0.13-0.59,0.13h-1.34c-0.29,0-0.49-0.04-0.59-0.13s-0.15-0.27-0.15-0.54
		V13.62c0-0.28,0.05-0.46,0.15-0.54s0.3-0.13,0.59-0.13h1.34c0.29,0,0.49,0.04,0.59,0.13s0.15,0.27,0.15,0.54V28.77z"/>
	<path d="M220.61,18.3v10.47c0,0.28-0.05,0.46-0.15,0.54s-0.3,0.13-0.59,0.13h-1.27c-0.29,0-0.49-0.04-0.59-0.13
		s-0.15-0.27-0.15-0.54V13.62c0-0.28,0.05-0.46,0.15-0.54s0.3-0.13,0.59-0.13h1.34c0.29,0,0.5,0.04,0.64,0.1
		c0.13,0.07,0.27,0.25,0.43,0.54l5.54,10.49V13.62c0-0.28,0.05-0.46,0.15-0.54s0.3-0.13,0.59-0.13h1.27c0.29,0,0.49,0.04,0.59,0.13
		c0.1,0.08,0.15,0.27,0.15,0.54v15.15c0,0.28-0.05,0.46-0.15,0.54c-0.1,0.08-0.3,0.13-0.59,0.13h-1.34c-0.29,0-0.51-0.04-0.64-0.1
		s-0.27-0.25-0.43-0.54L220.61,18.3z"/>
	<path d="M232.22,19.62c0-1.59,0.18-2.81,0.53-3.66c0.45-1.11,1.17-1.95,2.17-2.52c1-0.57,2.19-0.86,3.58-0.86
		c0.79,0,1.53,0.1,2.23,0.29c0.7,0.19,1.32,0.49,1.84,0.89c0.52,0.4,0.94,0.92,1.25,1.54c0.31,0.63,0.46,1.37,0.46,2.24
		c0,0.22-0.05,0.36-0.16,0.44c-0.11,0.08-0.3,0.12-0.58,0.12h-1.44c-0.28,0-0.47-0.04-0.57-0.12c-0.1-0.08-0.16-0.23-0.17-0.46
		c-0.06-0.88-0.34-1.51-0.83-1.9s-1.24-0.58-2.22-0.58c-0.57,0-1.06,0.07-1.46,0.2c-0.4,0.13-0.73,0.36-0.98,0.68
		s-0.44,0.76-0.57,1.3c-0.12,0.54-0.19,1.22-0.19,2.04v3.89c0,1.56,0.26,2.66,0.78,3.29c0.52,0.63,1.32,0.95,2.42,0.95
		c1.02,0,1.79-0.26,2.32-0.79c0.52-0.52,0.79-1.42,0.79-2.69v-0.44h-1.78c-0.28,0-0.46-0.05-0.54-0.15c-0.08-0.1-0.13-0.3-0.13-0.59
		V21.7c0-0.29,0.04-0.49,0.13-0.59c0.08-0.1,0.27-0.15,0.54-0.15h3.91c0.29,0,0.49,0.04,0.59,0.13c0.1,0.09,0.15,0.27,0.15,0.54
		v2.62c0,0.76-0.12,1.47-0.36,2.14c-0.24,0.67-0.61,1.26-1.1,1.77c-0.49,0.51-1.12,0.91-1.88,1.2c-0.76,0.29-1.64,0.44-2.66,0.44
		c-1.5,0-2.68-0.27-3.55-0.82s-1.53-1.32-1.98-2.33c-0.2-0.45-0.34-0.95-0.42-1.49c-0.08-0.55-0.12-1.27-0.12-2.17V19.62z"/>
</g>
<g>
	<path class="st1" d="M11.37,0.5c-6,0-10.87,4.87-10.87,10.87V91c-0.01,5.81,4.69,10.53,10.5,10.55h406
		c5.82,0,10.53-4.71,10.53-10.53c0-0.01,0-0.01,0-0.02V11C427.51,5.2,422.8,0.5,417,0.5H11.37"/>
</g>
<g>
	<path d="M11.37,0.5V0C5.09,0,0,5.09,0,11.37V91c0,6.08,4.92,11,11,11l0,0h406c6.08,0,11-4.92,11-11l0,0V11c0-6.08-4.92-11-11-11
		l0,0H11.37v1H417c5.52,0,10,4.48,10,10v80c-0.03,5.51-4.49,9.97-10,10H11c-5.51-0.03-9.97-4.49-10-10V11.37
		C1.01,5.65,5.65,1.01,11.37,1V0.5"/>
</g>
<g>
	<path d="M428,90.93V11.11c0.02-5.84-4.7-10.59-10.54-10.61H258.32v101h159.17C423.3,101.46,427.99,96.74,428,90.93"/>
</g>
<g class="st0">
	<path d="M18.5,21.73v6.71c0,0.28-0.05,0.46-0.15,0.54c-0.1,0.08-0.3,0.13-0.59,0.13h-1.34c-0.29,0-0.49-0.04-0.59-0.13
		c-0.1-0.08-0.15-0.26-0.15-0.54V13.36c0-0.28,0.05-0.46,0.15-0.54c0.1-0.08,0.3-0.13,0.59-0.13h8.55c0.28,0,0.46,0.05,0.54,0.15
		c0.08,0.1,0.13,0.3,0.13,0.59v1.01c0,0.29-0.04,0.49-0.13,0.59c-0.08,0.1-0.26,0.15-0.54,0.15H18.5v4.05h5.88
		c0.28,0,0.46,0.05,0.54,0.15c0.08,0.1,0.13,0.3,0.13,0.59v1.01c0,0.29-0.04,0.49-0.13,0.59s-0.26,0.15-0.54,0.15H18.5z"/>
	<path d="M33.84,12.33c1.37,0,2.51,0.27,3.44,0.79c0.93,0.53,1.62,1.31,2.06,2.34c0.2,0.45,0.34,0.94,0.42,1.5
		c0.08,0.55,0.11,1.27,0.11,2.14v3.36c0,0.8-0.04,1.49-0.13,2.06c-0.08,0.58-0.22,1.1-0.4,1.58c-0.45,1.11-1.13,1.94-2.06,2.51
		c-0.93,0.57-2.08,0.85-3.44,0.85c-1.37,0-2.52-0.26-3.44-0.79c-0.93-0.53-1.62-1.31-2.06-2.34c-0.2-0.45-0.34-0.94-0.41-1.5
		c-0.08-0.55-0.12-1.27-0.12-2.14v-3.36c0-0.8,0.04-1.49,0.13-2.06c0.08-0.58,0.22-1.1,0.4-1.58c0.45-1.11,1.13-1.94,2.06-2.51
		C31.33,12.61,32.48,12.33,33.84,12.33z M33.84,14.79c-1.14,0-1.95,0.32-2.43,0.97c-0.48,0.64-0.73,1.71-0.73,3.2v3.87
		c0,1.49,0.24,2.56,0.73,3.2C31.9,26.68,32.71,27,33.84,27c1.14,0,1.95-0.32,2.43-0.97c0.48-0.64,0.73-1.71,0.73-3.2v-3.87
		c0-1.49-0.24-2.56-0.73-3.2C35.79,15.11,34.98,14.79,33.84,14.79z"/>
	<path d="M48.41,12.33c1.37,0,2.51,0.27,3.44,0.79c0.93,0.53,1.62,1.31,2.06,2.34c0.2,0.45,0.34,0.94,0.42,1.5
		c0.08,0.55,0.11,1.27,0.11,2.14v3.36c0,0.8-0.04,1.49-0.13,2.06c-0.08,0.58-0.22,1.1-0.4,1.58c-0.45,1.11-1.13,1.94-2.06,2.51
		c-0.93,0.57-2.08,0.85-3.44,0.85c-1.37,0-2.52-0.26-3.44-0.79c-0.93-0.53-1.62-1.31-2.06-2.34c-0.2-0.45-0.34-0.94-0.41-1.5
		c-0.08-0.55-0.12-1.27-0.12-2.14v-3.36c0-0.8,0.04-1.49,0.13-2.06c0.08-0.58,0.22-1.1,0.4-1.58c0.45-1.11,1.13-1.94,2.06-2.51
		C45.89,12.61,47.04,12.33,48.41,12.33z M48.41,14.79c-1.14,0-1.95,0.32-2.43,0.97c-0.48,0.64-0.73,1.71-0.73,3.2v3.87
		c0,1.49,0.24,2.56,0.73,3.2c0.48,0.65,1.29,0.97,2.43,0.97c1.14,0,1.95-0.32,2.43-0.97c0.48-0.64,0.73-1.71,0.73-3.2v-3.87
		c0-1.49-0.24-2.56-0.73-3.2C50.35,15.11,49.54,14.79,48.41,14.79z"/>
	<path d="M62.78,12.7c0.75,0,1.42,0.08,2.02,0.25c0.59,0.17,1.11,0.4,1.57,0.68c0.45,0.29,0.83,0.62,1.14,0.99s0.55,0.78,0.74,1.21
		c0.17,0.42,0.3,0.88,0.4,1.39c0.1,0.51,0.15,1.21,0.15,2.08v3.29c0,0.86-0.05,1.54-0.15,2.05c-0.1,0.51-0.23,0.96-0.4,1.36
		c-0.17,0.41-0.4,0.81-0.69,1.19c-0.29,0.38-0.65,0.71-1.06,0.99c-0.41,0.28-0.9,0.51-1.46,0.67c-0.56,0.16-1.19,0.24-1.9,0.24
		h-5.05c-0.29,0-0.49-0.04-0.59-0.13c-0.1-0.08-0.15-0.26-0.15-0.54V13.36c0-0.28,0.05-0.46,0.15-0.54c0.1-0.08,0.3-0.13,0.59-0.13
		H62.78z M60.16,26.61h2.58c0.52,0,0.98-0.07,1.37-0.2c0.39-0.13,0.72-0.35,0.99-0.66c0.27-0.31,0.47-0.72,0.61-1.23
		s0.21-1.16,0.21-1.92v-3.41c0-0.75-0.07-1.39-0.22-1.9s-0.35-0.93-0.62-1.23c-0.27-0.31-0.6-0.53-0.99-0.67
		c-0.39-0.14-0.84-0.21-1.35-0.21h-2.58V26.61z"/>
	<path d="M88.15,28.43c0,0.28-0.05,0.46-0.15,0.54c-0.1,0.08-0.3,0.13-0.59,0.13h-1.34c-0.29,0-0.49-0.04-0.59-0.13
		c-0.1-0.08-0.15-0.26-0.15-0.54v-6.68h-6.22v6.68c0,0.28-0.05,0.46-0.15,0.54c-0.1,0.08-0.3,0.13-0.59,0.13h-1.34
		c-0.29,0-0.49-0.04-0.59-0.13c-0.1-0.08-0.15-0.26-0.15-0.54V13.36c0-0.28,0.05-0.46,0.15-0.54c0.1-0.08,0.3-0.13,0.59-0.13h1.34
		c0.29,0,0.49,0.04,0.59,0.13c0.1,0.08,0.15,0.26,0.15,0.54v5.9h6.22v-5.9c0-0.28,0.05-0.46,0.15-0.54c0.1-0.08,0.3-0.13,0.59-0.13
		h1.34c0.29,0,0.49,0.04,0.59,0.13c0.1,0.08,0.15,0.26,0.15,0.54V28.43z"/>
	<path d="M92.34,12.7c0.26,0,0.44,0.03,0.54,0.1s0.2,0.21,0.31,0.43l3.34,6.8l3.29-6.8c0.11-0.21,0.21-0.36,0.31-0.43
		c0.1-0.07,0.28-0.1,0.54-0.1h1.59c0.38,0,0.58,0.12,0.58,0.37c0,0.11-0.02,0.21-0.07,0.3l-4.93,9.52v5.55
		c0,0.28-0.05,0.46-0.15,0.54c-0.1,0.08-0.3,0.13-0.59,0.13h-1.34c-0.29,0-0.49-0.04-0.59-0.13c-0.1-0.08-0.15-0.26-0.15-0.54v-5.55
		l-4.93-9.52c-0.05-0.09-0.07-0.19-0.07-0.3c0-0.25,0.19-0.37,0.58-0.37H92.34z"/>
</g>
<g class="st0">
	<path d="M103.75,19.33c0-1.58,0.18-2.8,0.53-3.64c0.45-1.11,1.16-1.94,2.15-2.51c0.99-0.57,2.18-0.85,3.56-0.85
		c0.78,0,1.52,0.1,2.22,0.29c0.7,0.19,1.31,0.49,1.83,0.89s0.94,0.91,1.24,1.53c0.31,0.62,0.46,1.36,0.46,2.22
		c0,0.22-0.05,0.36-0.16,0.44c-0.11,0.08-0.3,0.12-0.58,0.12h-1.43c-0.28,0-0.46-0.04-0.56-0.12c-0.1-0.08-0.16-0.23-0.17-0.46
		c-0.06-0.88-0.34-1.51-0.83-1.89s-1.23-0.58-2.21-0.58c-0.57,0-1.05,0.07-1.45,0.2s-0.73,0.36-0.98,0.68
		c-0.25,0.32-0.44,0.75-0.56,1.29c-0.12,0.54-0.18,1.21-0.18,2.03v3.87c0,1.55,0.26,2.64,0.77,3.27s1.32,0.94,2.41,0.94
		c1.01,0,1.78-0.26,2.3-0.78c0.52-0.52,0.78-1.41,0.78-2.67v-0.44h-1.77c-0.28,0-0.46-0.05-0.54-0.15c-0.08-0.1-0.13-0.3-0.13-0.59
		V21.4c0-0.29,0.04-0.49,0.13-0.59c0.08-0.1,0.26-0.15,0.54-0.15h3.89c0.29,0,0.49,0.04,0.59,0.13c0.1,0.08,0.15,0.26,0.15,0.54v2.6
		c0,0.75-0.12,1.46-0.36,2.13c-0.24,0.67-0.6,1.25-1.09,1.76c-0.49,0.51-1.11,0.91-1.87,1.2c-0.75,0.29-1.64,0.44-2.65,0.44
		c-1.49,0-2.67-0.27-3.54-0.82s-1.52-1.32-1.97-2.32c-0.2-0.45-0.34-0.94-0.42-1.49c-0.08-0.54-0.12-1.26-0.12-2.15V19.33z"/>
	<path d="M121.47,28.43c0,0.28-0.05,0.46-0.15,0.54c-0.1,0.08-0.3,0.13-0.59,0.13h-1.34c-0.29,0-0.49-0.04-0.59-0.13
		c-0.1-0.08-0.15-0.26-0.15-0.54V13.36c0-0.28,0.05-0.46,0.15-0.54c0.1-0.08,0.3-0.13,0.59-0.13h1.34c0.29,0,0.49,0.04,0.59,0.13
		c0.1,0.08,0.15,0.26,0.15,0.54V28.43z"/>
	<path d="M134.88,28.36c0,0.29-0.04,0.49-0.13,0.59c-0.08,0.1-0.26,0.15-0.54,0.15h-8.69c-0.29,0-0.49-0.04-0.59-0.13
		c-0.1-0.08-0.15-0.26-0.15-0.54V13.36c0-0.28,0.05-0.46,0.15-0.54c0.1-0.08,0.29-0.13,0.59-0.13h8.59c0.28,0,0.46,0.05,0.54,0.15
		c0.08,0.1,0.13,0.3,0.13,0.59v1.01c0,0.29-0.04,0.49-0.13,0.59c-0.08,0.1-0.26,0.15-0.54,0.15h-6.52v4.24h5.92
		c0.28,0,0.46,0.05,0.54,0.15c0.08,0.1,0.13,0.3,0.13,0.59v1.01c0,0.29-0.04,0.49-0.13,0.59c-0.08,0.1-0.27,0.15-0.54,0.15h-5.92
		v4.7h6.61c0.28,0,0.46,0.05,0.54,0.15c0.08,0.1,0.13,0.3,0.13,0.59V28.36z"/>
	<path d="M140.53,18.02v10.41c0,0.28-0.05,0.46-0.15,0.54c-0.1,0.08-0.3,0.13-0.59,0.13h-1.27c-0.29,0-0.49-0.04-0.59-0.13
		c-0.1-0.08-0.15-0.26-0.15-0.54V13.36c0-0.28,0.05-0.46,0.15-0.54c0.1-0.08,0.3-0.13,0.59-0.13h1.34c0.29,0,0.5,0.03,0.63,0.1
		s0.27,0.25,0.43,0.54l5.51,10.44V13.36c0-0.28,0.05-0.46,0.15-0.54c0.1-0.08,0.29-0.13,0.59-0.13h1.27c0.29,0,0.49,0.04,0.59,0.13
		c0.1,0.08,0.15,0.26,0.15,0.54v15.07c0,0.28-0.05,0.46-0.15,0.54c-0.1,0.08-0.3,0.13-0.59,0.13h-1.34c-0.29,0-0.5-0.03-0.63-0.1
		c-0.13-0.07-0.27-0.25-0.43-0.54L140.53,18.02z"/>
	<path d="M162.57,28.36c0,0.29-0.04,0.49-0.13,0.59c-0.08,0.1-0.26,0.15-0.54,0.15h-8.69c-0.29,0-0.49-0.04-0.59-0.13
		c-0.1-0.08-0.15-0.26-0.15-0.54V13.36c0-0.28,0.05-0.46,0.15-0.54c0.1-0.08,0.29-0.13,0.59-0.13h8.59c0.28,0,0.46,0.05,0.54,0.15
		c0.08,0.1,0.13,0.3,0.13,0.59v1.01c0,0.29-0.04,0.49-0.13,0.59c-0.08,0.1-0.26,0.15-0.54,0.15h-6.52v4.24h5.92
		c0.28,0,0.46,0.05,0.54,0.15c0.08,0.1,0.13,0.3,0.13,0.59v1.01c0,0.29-0.04,0.49-0.13,0.59c-0.08,0.1-0.27,0.15-0.54,0.15h-5.92
		v4.7h6.61c0.28,0,0.46,0.05,0.54,0.15c0.08,0.1,0.13,0.3,0.13,0.59V28.36z"/>
	<path d="M172.85,22.69v5.74c0,0.26-0.05,0.44-0.14,0.53c-0.09,0.09-0.29,0.14-0.6,0.14h-1.29c-0.31,0-0.51-0.05-0.6-0.14
		c-0.09-0.09-0.14-0.27-0.14-0.53V13.36c0-0.26,0.05-0.44,0.14-0.53c0.09-0.09,0.29-0.14,0.6-0.14h4.93c1.83,0,3.16,0.38,4.01,1.14
		c0.84,0.76,1.27,1.98,1.27,3.65v0.44c0,2.33-0.93,3.81-2.79,4.42l3.43,6.08c0.06,0.12,0.09,0.22,0.09,0.3c0,0.25-0.2,0.37-0.6,0.37
		h-1.73c-0.26,0-0.45-0.04-0.56-0.13c-0.12-0.08-0.25-0.26-0.4-0.54l-3.11-5.74H172.85z M172.85,20.3h2.88
		c0.89,0,1.52-0.18,1.89-0.54c0.37-0.36,0.55-0.98,0.55-1.85v-0.32c0-0.92-0.18-1.57-0.54-1.94c-0.36-0.37-0.99-0.55-1.9-0.55h-2.88
		V20.3z"/>
	<path d="M196.67,28.43c0.03,0.12,0.05,0.21,0.05,0.25c0,0.28-0.17,0.42-0.51,0.42h-1.61c-0.29,0-0.48-0.04-0.56-0.13
		c-0.08-0.08-0.17-0.26-0.26-0.54l-1.06-3.25h-6.04l-1.04,3.27c-0.09,0.28-0.18,0.45-0.27,0.53c-0.08,0.08-0.27,0.12-0.56,0.12
		h-1.52c-0.34,0-0.51-0.14-0.51-0.42c0-0.05,0.02-0.13,0.05-0.25l5.18-15.32c0.06-0.18,0.15-0.3,0.25-0.34
		c0.11-0.05,0.27-0.07,0.48-0.07h2.07c0.21,0,0.38,0.02,0.48,0.07c0.11,0.05,0.19,0.16,0.25,0.34L196.67,28.43z M187.43,22.79h4.49
		l-2.26-7L187.43,22.79z"/>
</g>
<g class="st0">
	<path d="M200.49,15.18h-4.03c-0.28,0-0.46-0.05-0.54-0.15c-0.08-0.1-0.13-0.29-0.13-0.59v-1.01c0-0.29,0.04-0.49,0.13-0.59
		c0.08-0.1,0.27-0.15,0.54-0.15h10.88c0.28,0,0.46,0.05,0.54,0.15c0.08,0.1,0.13,0.3,0.13,0.59v1.01c0,0.29-0.04,0.49-0.13,0.59
		c-0.08,0.1-0.27,0.15-0.54,0.15h-4.03v13.25c0,0.28-0.05,0.46-0.15,0.54c-0.1,0.08-0.3,0.13-0.59,0.13h-1.34
		c-0.29,0-0.49-0.04-0.59-0.13c-0.1-0.08-0.15-0.26-0.15-0.54V15.18z"/>
	<path d="M212.93,28.43c0,0.28-0.05,0.46-0.15,0.54c-0.1,0.08-0.3,0.13-0.59,0.13h-1.34c-0.29,0-0.49-0.04-0.59-0.13
		c-0.1-0.08-0.15-0.26-0.15-0.54V13.36c0-0.28,0.05-0.46,0.15-0.54c0.1-0.08,0.3-0.13,0.59-0.13h1.34c0.29,0,0.49,0.04,0.59,0.13
		c0.1,0.08,0.15,0.26,0.15,0.54V28.43z"/>
	<path d="M218.99,18.02v10.41c0,0.28-0.05,0.46-0.15,0.54c-0.1,0.08-0.3,0.13-0.59,0.13h-1.27c-0.29,0-0.49-0.04-0.59-0.13
		c-0.1-0.08-0.15-0.26-0.15-0.54V13.36c0-0.28,0.05-0.46,0.15-0.54c0.1-0.08,0.3-0.13,0.59-0.13h1.34c0.29,0,0.5,0.03,0.63,0.1
		s0.27,0.25,0.43,0.54l5.51,10.44V13.36c0-0.28,0.05-0.46,0.15-0.54c0.1-0.08,0.29-0.13,0.59-0.13h1.27c0.29,0,0.49,0.04,0.59,0.13
		c0.1,0.08,0.15,0.26,0.15,0.54v15.07c0,0.28-0.05,0.46-0.15,0.54c-0.1,0.08-0.3,0.13-0.59,0.13h-1.34c-0.29,0-0.5-0.03-0.63-0.1
		c-0.13-0.07-0.27-0.25-0.43-0.54L218.99,18.02z"/>
	<path d="M230.53,19.33c0-1.58,0.18-2.8,0.53-3.64c0.45-1.11,1.16-1.94,2.15-2.51c0.99-0.57,2.18-0.85,3.56-0.85
		c0.78,0,1.52,0.1,2.22,0.29c0.7,0.19,1.31,0.49,1.83,0.89s0.94,0.91,1.24,1.53c0.31,0.62,0.46,1.36,0.46,2.22
		c0,0.22-0.05,0.36-0.16,0.44c-0.11,0.08-0.3,0.12-0.58,0.12h-1.43c-0.28,0-0.46-0.04-0.56-0.12c-0.1-0.08-0.16-0.23-0.17-0.46
		c-0.06-0.88-0.34-1.51-0.83-1.89s-1.23-0.58-2.21-0.58c-0.57,0-1.05,0.07-1.45,0.2s-0.73,0.36-0.98,0.68
		c-0.25,0.32-0.44,0.75-0.56,1.29c-0.12,0.54-0.18,1.21-0.18,2.03v3.87c0,1.55,0.26,2.64,0.77,3.27s1.32,0.94,2.41,0.94
		c1.01,0,1.78-0.26,2.3-0.78c0.52-0.52,0.78-1.41,0.78-2.67v-0.44h-1.77c-0.28,0-0.46-0.05-0.54-0.15c-0.08-0.1-0.13-0.3-0.13-0.59
		V21.4c0-0.29,0.04-0.49,0.13-0.59c0.08-0.1,0.26-0.15,0.54-0.15h3.89c0.29,0,0.49,0.04,0.59,0.13c0.1,0.08,0.15,0.26,0.15,0.54v2.6
		c0,0.75-0.12,1.46-0.36,2.13c-0.24,0.67-0.6,1.25-1.09,1.76c-0.49,0.51-1.11,0.91-1.87,1.2c-0.75,0.29-1.64,0.44-2.65,0.44
		c-1.49,0-2.67-0.27-3.54-0.82s-1.52-1.32-1.97-2.32c-0.2-0.45-0.34-0.94-0.42-1.49c-0.08-0.54-0.12-1.26-0.12-2.15V19.33z"/>
</g>
<g>
	<polyline points="258.31,41.87 1,41.87 1,40.39 258.31,40.39 258.31,41.87 	"/>
</g>
<g>
	<polyline points="0.5,41.87 0,41.87 0,40.39 0.5,40.39 0.5,41.76 0.5,41.87 	"/>
</g>
<g>
	<polyline points="1,41.87 0.5,41.87 0.5,41.76 0.5,40.39 1,40.39 1,41.87 	"/>
</g>
<g>
	<polyline points="258.81,41.87 258.31,41.87 258.31,40.39 258.81,40.39 258.81,41.87 	"/>
</g>
<g class="st0">
	<path class="st2" d="M276.91,45.65c0,0.26-0.05,0.43-0.14,0.51c-0.1,0.08-0.28,0.12-0.56,0.12h-1.27c-0.28,0-0.46-0.04-0.56-0.12
		s-0.14-0.25-0.14-0.51V31.33c0-0.26,0.05-0.43,0.14-0.51s0.28-0.12,0.56-0.12h1.27c0.28,0,0.46,0.04,0.56,0.12
		c0.09,0.08,0.14,0.25,0.14,0.51V45.65z"/>
	<path class="st2" d="M285.97,41.73c-0.29,0-0.49-0.04-0.58-0.12c-0.09-0.08-0.2-0.25-0.32-0.51l-2.41-5.23v9.79
		c0,0.26-0.05,0.43-0.14,0.51s-0.28,0.12-0.56,0.12h-1.2c-0.28,0-0.46-0.04-0.56-0.12c-0.1-0.08-0.14-0.25-0.14-0.51V31.33
		c0-0.26,0.05-0.43,0.14-0.51c0.09-0.08,0.28-0.12,0.56-0.12h1.27c0.29,0,0.5,0.04,0.61,0.11c0.12,0.07,0.24,0.25,0.37,0.53
		l3.57,7.68l3.59-7.68c0.13-0.28,0.25-0.45,0.37-0.53c0.12-0.07,0.32-0.11,0.61-0.11h1.27c0.28,0,0.46,0.04,0.56,0.12
		s0.14,0.25,0.14,0.51v14.32c0,0.26-0.05,0.43-0.14,0.51s-0.28,0.12-0.56,0.12h-1.2c-0.28,0-0.46-0.04-0.56-0.12
		s-0.14-0.25-0.14-0.51v-9.79l-2.41,5.23c-0.12,0.26-0.22,0.43-0.32,0.51c-0.09,0.08-0.29,0.12-0.58,0.12H285.97z"/>
	<path class="st2" d="M298.91,40.5v5.14c0,0.26-0.05,0.43-0.14,0.51c-0.1,0.08-0.28,0.12-0.56,0.12h-1.23
		c-0.28,0-0.46-0.04-0.56-0.12s-0.14-0.25-0.14-0.51V31.33c0-0.26,0.05-0.43,0.14-0.51s0.28-0.12,0.56-0.12h4.36
		c0.86,0,1.62,0.08,2.28,0.25c0.66,0.17,1.2,0.44,1.64,0.82c0.44,0.38,0.77,0.87,0.99,1.47c0.22,0.6,0.33,1.34,0.33,2.21v0.44
		c0,1.59-0.44,2.76-1.32,3.5c-0.88,0.74-2.19,1.12-3.91,1.12H298.91z M298.91,38.22h2.43c0.55,0,1-0.06,1.32-0.19
		s0.58-0.3,0.75-0.51s0.29-0.47,0.35-0.77c0.06-0.29,0.09-0.6,0.09-0.92v-0.31c0-0.36-0.03-0.7-0.09-1.01
		c-0.06-0.31-0.18-0.58-0.35-0.81s-0.43-0.42-0.75-0.55c-0.33-0.13-0.77-0.2-1.32-0.2h-2.43V38.22z"/>
	<path class="st2" d="M311.4,40.2v5.45c0,0.25-0.04,0.42-0.13,0.5c-0.09,0.09-0.28,0.13-0.57,0.13h-1.23
		c-0.29,0-0.48-0.04-0.57-0.13c-0.09-0.09-0.13-0.26-0.13-0.5V31.33c0-0.25,0.04-0.42,0.13-0.5c0.09-0.09,0.28-0.13,0.57-0.13h4.68
		c1.74,0,3.01,0.36,3.81,1.08s1.2,1.88,1.2,3.47v0.42c0,2.22-0.88,3.62-2.65,4.2l3.26,5.78c0.06,0.12,0.09,0.21,0.09,0.28
		c0,0.23-0.19,0.35-0.57,0.35h-1.64c-0.25,0-0.43-0.04-0.54-0.12s-0.24-0.25-0.38-0.51l-2.96-5.45H311.4z M311.4,37.92h2.74
		c0.85,0,1.45-0.17,1.79-0.51c0.35-0.34,0.53-0.93,0.53-1.76v-0.31c0-0.88-0.17-1.49-0.51-1.84c-0.34-0.35-0.95-0.53-1.81-0.53
		h-2.74V37.92z"/>
	<path class="st2" d="M327.32,30.34c1.3,0,2.39,0.25,3.27,0.75c0.88,0.5,1.54,1.24,1.96,2.22c0.19,0.42,0.32,0.9,0.39,1.42
		s0.11,1.2,0.11,2.04v3.2c0,0.76-0.04,1.41-0.12,1.96c-0.08,0.55-0.21,1.05-0.38,1.5c-0.42,1.05-1.08,1.85-1.96,2.39
		c-0.88,0.54-1.97,0.81-3.27,0.81c-1.3,0-2.39-0.25-3.27-0.76c-0.88-0.5-1.54-1.24-1.96-2.22c-0.19-0.42-0.32-0.9-0.39-1.42
		c-0.07-0.53-0.11-1.2-0.11-2.04V37c0-0.76,0.04-1.41,0.12-1.96c0.08-0.55,0.21-1.05,0.38-1.5c0.42-1.05,1.08-1.85,1.96-2.39
		S326.02,30.34,327.32,30.34z M327.32,32.69c-1.08,0-1.85,0.31-2.31,0.92c-0.46,0.61-0.69,1.63-0.69,3.04v3.68
		c0,1.42,0.23,2.43,0.69,3.04c0.46,0.61,1.23,0.92,2.31,0.92c1.08,0,1.85-0.31,2.31-0.92c0.46-0.61,0.69-1.63,0.69-3.04v-3.68
		c0-1.42-0.23-2.43-0.69-3.04C329.17,32.99,328.4,32.69,327.32,32.69z"/>
</g>
<g class="st0">
	<path class="st2" d="M334.25,31.33c-0.03-0.12-0.04-0.2-0.04-0.24c0-0.26,0.16-0.39,0.48-0.39h1.58c0.28,0,0.46,0.04,0.55,0.12
		s0.17,0.25,0.24,0.51l3.35,11.65l3.35-11.65c0.07-0.26,0.15-0.43,0.24-0.51c0.09-0.08,0.27-0.12,0.55-0.12h1.51
		c0.32,0,0.48,0.13,0.48,0.39c0,0.04-0.01,0.12-0.04,0.24l-4.44,14.56c-0.06,0.17-0.14,0.28-0.24,0.33
		c-0.1,0.04-0.26,0.07-0.46,0.07h-1.95c-0.2,0-0.36-0.02-0.46-0.07c-0.1-0.04-0.18-0.15-0.24-0.33L334.25,31.33z"/>
	<path class="st2" d="M358,45.58c0,0.28-0.04,0.46-0.12,0.56c-0.08,0.1-0.25,0.14-0.51,0.14h-8.25c-0.28,0-0.46-0.04-0.56-0.12
		s-0.14-0.25-0.14-0.51V31.33c0-0.26,0.05-0.43,0.14-0.51s0.28-0.12,0.56-0.12h8.17c0.26,0,0.43,0.05,0.51,0.14
		c0.08,0.09,0.12,0.28,0.12,0.56v0.96c0,0.28-0.04,0.46-0.12,0.56c-0.08,0.1-0.25,0.14-0.51,0.14h-6.2v4.03h5.63
		c0.26,0,0.43,0.05,0.51,0.14c0.08,0.1,0.12,0.28,0.12,0.56v0.96c0,0.28-0.04,0.46-0.12,0.56s-0.25,0.14-0.51,0.14h-5.63v4.47h6.28
		c0.26,0,0.43,0.05,0.51,0.14s0.12,0.28,0.12,0.56V45.58z"/>
	<path class="st2" d="M366.67,41.73c-0.29,0-0.49-0.04-0.58-0.12c-0.09-0.08-0.2-0.25-0.32-0.51l-2.41-5.23v9.79
		c0,0.26-0.05,0.43-0.14,0.51s-0.28,0.12-0.56,0.12h-1.2c-0.28,0-0.46-0.04-0.56-0.12c-0.1-0.08-0.14-0.25-0.14-0.51V31.33
		c0-0.26,0.05-0.43,0.14-0.51c0.09-0.08,0.28-0.12,0.56-0.12h1.27c0.29,0,0.5,0.04,0.61,0.11c0.12,0.07,0.24,0.25,0.37,0.53
		l3.57,7.68l3.59-7.68c0.13-0.28,0.25-0.45,0.37-0.53c0.12-0.07,0.32-0.11,0.61-0.11h1.27c0.28,0,0.46,0.04,0.56,0.12
		s0.14,0.25,0.14,0.51v14.32c0,0.26-0.05,0.43-0.14,0.51s-0.28,0.12-0.56,0.12h-1.2c-0.28,0-0.46-0.04-0.56-0.12
		s-0.14-0.25-0.14-0.51v-9.79l-2.41,5.23c-0.12,0.26-0.22,0.43-0.32,0.51c-0.09,0.08-0.29,0.12-0.58,0.12H366.67z"/>
	<path class="st2" d="M386.57,45.58c0,0.28-0.04,0.46-0.12,0.56c-0.08,0.1-0.25,0.14-0.51,0.14h-8.25c-0.28,0-0.46-0.04-0.56-0.12
		s-0.14-0.25-0.14-0.51V31.33c0-0.26,0.05-0.43,0.14-0.51s0.28-0.12,0.56-0.12h8.17c0.26,0,0.43,0.05,0.51,0.14
		c0.08,0.09,0.12,0.28,0.12,0.56v0.96c0,0.28-0.04,0.46-0.12,0.56c-0.08,0.1-0.25,0.14-0.51,0.14h-6.2v4.03h5.63
		c0.26,0,0.43,0.05,0.51,0.14c0.08,0.1,0.12,0.28,0.12,0.56v0.96c0,0.28-0.04,0.46-0.12,0.56s-0.25,0.14-0.51,0.14h-5.63v4.47h6.28
		c0.26,0,0.43,0.05,0.51,0.14s0.12,0.28,0.12,0.56V45.58z"/>
	<path class="st2" d="M391.93,35.75v9.89c0,0.26-0.05,0.43-0.14,0.51s-0.28,0.12-0.56,0.12h-1.2c-0.28,0-0.46-0.04-0.56-0.12
		s-0.14-0.25-0.14-0.51V31.33c0-0.26,0.05-0.43,0.14-0.51s0.28-0.12,0.56-0.12h1.27c0.28,0,0.48,0.03,0.6,0.1s0.26,0.24,0.41,0.51
		l5.23,9.92v-9.89c0-0.26,0.05-0.43,0.14-0.51s0.28-0.12,0.56-0.12h1.2c0.28,0,0.46,0.04,0.56,0.12s0.14,0.25,0.14,0.51v14.32
		c0,0.26-0.05,0.43-0.14,0.51s-0.28,0.12-0.56,0.12h-1.27c-0.28,0-0.48-0.03-0.6-0.1s-0.26-0.24-0.41-0.51L391.93,35.75z"/>
	<path class="st2" d="M406.62,33.06h-3.83c-0.26,0-0.43-0.05-0.51-0.14c-0.08-0.09-0.12-0.28-0.12-0.56V31.4
		c0-0.28,0.04-0.46,0.12-0.56s0.25-0.14,0.51-0.14h10.33c0.26,0,0.43,0.05,0.51,0.14s0.12,0.28,0.12,0.56v0.96
		c0,0.28-0.04,0.46-0.12,0.56c-0.08,0.1-0.25,0.14-0.51,0.14h-3.83v12.59c0,0.26-0.05,0.43-0.14,0.51c-0.1,0.08-0.28,0.12-0.56,0.12
		h-1.27c-0.28,0-0.46-0.04-0.56-0.12c-0.09-0.08-0.14-0.25-0.14-0.51V33.06z"/>
</g>
<g class="st0">
	<path class="st2" d="M289.76,60.62v9.89c0,0.26-0.05,0.43-0.14,0.51s-0.28,0.12-0.56,0.12h-1.2c-0.28,0-0.46-0.04-0.56-0.12
		s-0.14-0.25-0.14-0.51V56.2c0-0.26,0.05-0.43,0.14-0.51s0.28-0.12,0.56-0.12h1.27c0.28,0,0.48,0.03,0.6,0.1s0.26,0.24,0.41,0.51
		l5.23,9.92V56.2c0-0.26,0.05-0.43,0.14-0.51s0.28-0.12,0.56-0.12h1.2c0.28,0,0.46,0.04,0.56,0.12s0.14,0.25,0.14,0.51v14.32
		c0,0.26-0.05,0.43-0.14,0.51s-0.28,0.12-0.56,0.12H296c-0.28,0-0.48-0.03-0.6-0.1s-0.26-0.24-0.41-0.51L289.76,60.62z"/>
	<path class="st2" d="M310.71,70.45c0,0.28-0.04,0.46-0.12,0.56c-0.08,0.1-0.25,0.14-0.51,0.14h-8.25c-0.28,0-0.46-0.04-0.56-0.12
		c-0.1-0.08-0.14-0.25-0.14-0.51V56.2c0-0.26,0.05-0.43,0.14-0.51c0.09-0.08,0.28-0.12,0.56-0.12h8.17c0.26,0,0.43,0.05,0.51,0.14
		s0.12,0.28,0.12,0.56v0.96c0,0.28-0.04,0.46-0.12,0.56c-0.08,0.1-0.25,0.14-0.51,0.14h-6.19v4.03h5.63c0.26,0,0.43,0.05,0.51,0.14
		c0.08,0.1,0.12,0.28,0.12,0.56v0.96c0,0.28-0.04,0.46-0.12,0.56s-0.25,0.14-0.51,0.14h-5.63v4.47h6.28c0.26,0,0.43,0.05,0.51,0.14
		c0.08,0.09,0.12,0.28,0.12,0.56V70.45z"/>
	<path class="st2" d="M321.46,66.55c0.01-0.22,0.07-0.37,0.16-0.44c0.09-0.07,0.27-0.11,0.54-0.11h1.31c0.28,0,0.46,0.04,0.56,0.12
		s0.14,0.24,0.14,0.47c0,0.79-0.1,1.44-0.29,1.96s-0.5,1-0.94,1.46c-0.96,0.99-2.42,1.49-4.38,1.49c-1.2,0-2.22-0.25-3.06-0.76
		c-0.85-0.5-1.49-1.24-1.93-2.22c-0.19-0.42-0.32-0.89-0.39-1.4s-0.11-1.2-0.11-2.06v-3.2c0-0.79,0.04-1.45,0.12-1.97
		c0.08-0.53,0.21-1.02,0.38-1.49c0.39-1.04,1.04-1.83,1.94-2.38c0.9-0.55,2.01-0.82,3.34-0.82c1.87,0,3.25,0.49,4.16,1.47
		c0.42,0.45,0.72,0.94,0.9,1.47c0.17,0.53,0.26,1.16,0.26,1.9c0,0.23-0.05,0.39-0.14,0.47c-0.09,0.08-0.28,0.12-0.56,0.12h-1.36
		c-0.26,0-0.44-0.04-0.54-0.11c-0.1-0.07-0.15-0.22-0.17-0.44c-0.03-0.92-0.25-1.58-0.66-1.97c-0.41-0.39-1.09-0.59-2.04-0.59
		c-1.07,0-1.82,0.3-2.25,0.91c-0.44,0.61-0.66,1.63-0.66,3.08v3.68c0,1.4,0.22,2.41,0.67,3.03c0.44,0.62,1.19,0.93,2.22,0.93
		c0.92,0,1.6-0.21,2.05-0.63C321.19,68.1,321.43,67.44,321.46,66.55z"/>
	<path class="st2" d="M336.25,70.45c0,0.28-0.04,0.46-0.12,0.56c-0.08,0.1-0.25,0.14-0.51,0.14h-8.25c-0.28,0-0.46-0.04-0.56-0.12
		s-0.14-0.25-0.14-0.51V56.2c0-0.26,0.05-0.43,0.14-0.51s0.28-0.12,0.56-0.12h8.17c0.26,0,0.43,0.05,0.51,0.14
		c0.08,0.09,0.12,0.28,0.12,0.56v0.96c0,0.28-0.04,0.46-0.12,0.56c-0.08,0.1-0.25,0.14-0.51,0.14h-6.2v4.03h5.63
		c0.26,0,0.43,0.05,0.51,0.14c0.08,0.1,0.12,0.28,0.12,0.56v0.96c0,0.28-0.04,0.46-0.12,0.56s-0.25,0.14-0.51,0.14h-5.63v4.47h6.28
		c0.26,0,0.43,0.05,0.51,0.14s0.12,0.28,0.12,0.56V70.45z"/>
	<path class="st2" d="M340.98,67.34c0.13,0.63,0.42,1.1,0.85,1.41c0.44,0.31,1.06,0.47,1.86,0.47c0.92,0,1.58-0.16,1.99-0.49
		c0.41-0.33,0.61-0.86,0.61-1.61c0-0.58-0.17-1.06-0.5-1.43s-0.88-0.67-1.62-0.91l-2.32-0.72c-1.08-0.33-1.91-0.85-2.48-1.55
		s-0.86-1.53-0.86-2.5v-0.2c0-1.46,0.46-2.59,1.39-3.39c0.93-0.8,2.24-1.2,3.95-1.2c1.84,0,3.2,0.49,4.09,1.47
		c0.61,0.7,0.92,1.55,0.92,2.54c0,0.23-0.05,0.39-0.14,0.47s-0.28,0.12-0.56,0.12h-1.25c-0.28,0-0.46-0.04-0.55-0.11
		c-0.09-0.07-0.15-0.22-0.18-0.44c-0.13-1.2-0.98-1.79-2.56-1.79c-1.61,0-2.41,0.72-2.41,2.17c0,0.29,0.04,0.55,0.11,0.77
		s0.2,0.41,0.37,0.58c0.18,0.17,0.41,0.32,0.69,0.46c0.29,0.14,0.64,0.27,1.06,0.4l2.32,0.72c1.11,0.34,1.94,0.87,2.48,1.59
		c0.55,0.72,0.82,1.6,0.82,2.64v0.29c0,1.42-0.46,2.51-1.38,3.27c-0.92,0.77-2.22,1.15-3.9,1.15c-1.98,0-3.44-0.46-4.36-1.38
		c-0.36-0.38-0.65-0.8-0.84-1.27c-0.2-0.47-0.29-0.96-0.29-1.47c0-0.23,0.05-0.39,0.14-0.47c0.09-0.08,0.28-0.12,0.56-0.12h1.23
		c0.26,0,0.44,0.04,0.54,0.11C340.87,66.98,340.94,67.12,340.98,67.34z"/>
	<path class="st2" d="M353.48,67.34c0.13,0.63,0.42,1.1,0.85,1.41c0.44,0.31,1.06,0.47,1.86,0.47c0.92,0,1.58-0.16,1.99-0.49
		c0.41-0.33,0.61-0.86,0.61-1.61c0-0.58-0.17-1.06-0.5-1.43s-0.88-0.67-1.62-0.91l-2.32-0.72c-1.08-0.33-1.91-0.85-2.48-1.55
		s-0.86-1.53-0.86-2.5v-0.2c0-1.46,0.46-2.59,1.39-3.39c0.93-0.8,2.24-1.2,3.95-1.2c1.84,0,3.2,0.49,4.09,1.47
		c0.61,0.7,0.92,1.55,0.92,2.54c0,0.23-0.05,0.39-0.14,0.47s-0.28,0.12-0.56,0.12h-1.25c-0.28,0-0.46-0.04-0.55-0.11
		c-0.09-0.07-0.15-0.22-0.18-0.44c-0.13-1.2-0.98-1.79-2.56-1.79c-1.61,0-2.41,0.72-2.41,2.17c0,0.29,0.04,0.55,0.11,0.77
		s0.2,0.41,0.37,0.58c0.18,0.17,0.41,0.32,0.69,0.46c0.29,0.14,0.64,0.27,1.06,0.4l2.32,0.72c1.11,0.34,1.94,0.87,2.48,1.59
		c0.55,0.72,0.82,1.6,0.82,2.64v0.29c0,1.42-0.46,2.51-1.38,3.27c-0.92,0.77-2.22,1.15-3.9,1.15c-1.98,0-3.44-0.46-4.36-1.38
		c-0.36-0.38-0.65-0.8-0.84-1.27c-0.2-0.47-0.29-0.96-0.29-1.47c0-0.23,0.05-0.39,0.14-0.47c0.09-0.08,0.28-0.12,0.56-0.12h1.23
		c0.26,0,0.44,0.04,0.54,0.11C353.37,66.98,353.44,67.12,353.48,67.34z"/>
	<path class="st2" d="M375.63,70.51c0.03,0.12,0.04,0.2,0.04,0.24c0,0.26-0.16,0.39-0.48,0.39h-1.53c-0.28,0-0.46-0.04-0.54-0.12
		s-0.16-0.25-0.25-0.51l-1.01-3.09h-5.73l-0.99,3.11c-0.09,0.26-0.17,0.43-0.25,0.5s-0.26,0.11-0.54,0.11h-1.44
		c-0.32,0-0.48-0.13-0.48-0.39c0-0.04,0.01-0.12,0.04-0.24l4.93-14.56c0.06-0.18,0.14-0.29,0.24-0.33c0.1-0.04,0.26-0.07,0.46-0.07
		h1.97c0.2,0,0.36,0.02,0.46,0.07c0.1,0.04,0.18,0.15,0.24,0.33L375.63,70.51z M366.86,65.15h4.27l-2.14-6.65L366.86,65.15z"/>
	<path class="st2" d="M380.1,65.06v5.45c0,0.25-0.04,0.42-0.13,0.5c-0.09,0.09-0.28,0.13-0.57,0.13h-1.23
		c-0.29,0-0.48-0.04-0.57-0.13c-0.09-0.09-0.13-0.26-0.13-0.5V56.2c0-0.25,0.04-0.42,0.13-0.5c0.09-0.09,0.28-0.13,0.57-0.13h4.68
		c1.74,0,3.01,0.36,3.81,1.08s1.2,1.88,1.2,3.47v0.42c0,2.22-0.88,3.62-2.65,4.2l3.26,5.78c0.06,0.12,0.09,0.21,0.09,0.28
		c0,0.23-0.19,0.35-0.57,0.35h-1.64c-0.25,0-0.43-0.04-0.54-0.12s-0.24-0.25-0.38-0.51l-2.96-5.45H380.1z M380.1,62.79h2.74
		c0.85,0,1.45-0.17,1.79-0.51c0.35-0.34,0.53-0.93,0.53-1.76V60.2c0-0.88-0.17-1.49-0.51-1.84c-0.34-0.35-0.95-0.53-1.81-0.53h-2.74
		V62.79z"/>
</g>
<g class="st0">
	<path class="st2" d="M391.07,55.56c0.25,0,0.42,0.03,0.51,0.1s0.19,0.2,0.3,0.41l3.17,6.46l3.13-6.46c0.1-0.2,0.2-0.34,0.3-0.41
		s0.27-0.1,0.51-0.1h1.51c0.37,0,0.55,0.12,0.55,0.35c0,0.1-0.02,0.2-0.07,0.28l-4.68,9.04v5.28c0,0.26-0.05,0.43-0.14,0.51
		s-0.28,0.12-0.56,0.12h-1.27c-0.28,0-0.46-0.04-0.56-0.12c-0.1-0.08-0.14-0.25-0.14-0.51v-5.28l-4.68-9.04
		c-0.04-0.09-0.07-0.18-0.07-0.28c0-0.23,0.18-0.35,0.55-0.35H391.07z"/>
</g>
<g class="st0">
	<path d="M29.8,77.55c-1.86,0-3.11-0.75-3.74-2.26c-0.13-0.31-0.23-0.66-0.29-1.03c-0.06-0.37-0.08-0.85-0.08-1.43v-2.19
		c0-0.61,0.03-1.1,0.08-1.48s0.15-0.74,0.29-1.06c0.63-1.56,1.88-2.34,3.74-2.34c1.86,0,3.11,0.75,3.74,2.26
		c0.13,0.31,0.23,0.66,0.29,1.03s0.08,0.85,0.08,1.43v2.19c0,0.61-0.03,1.1-0.08,1.48s-0.15,0.74-0.29,1.06
		C32.91,76.77,31.67,77.55,29.8,77.55z M29.8,67.63c-0.37,0-0.68,0.05-0.93,0.15c-0.25,0.1-0.46,0.26-0.61,0.48
		c-0.16,0.22-0.27,0.51-0.34,0.86s-0.1,0.78-0.1,1.29v2.49c0,0.52,0.03,0.95,0.1,1.3c0.07,0.35,0.18,0.64,0.34,0.86
		c0.16,0.22,0.36,0.38,0.61,0.47c0.25,0.1,0.56,0.14,0.93,0.14c0.37,0,0.68-0.05,0.93-0.14c0.25-0.1,0.46-0.25,0.61-0.47
		c0.16-0.22,0.27-0.5,0.34-0.86c0.07-0.35,0.1-0.79,0.1-1.3v-2.49c0-0.5-0.03-0.93-0.1-1.29s-0.18-0.64-0.34-0.86
		c-0.16-0.22-0.36-0.38-0.61-0.48C30.49,67.68,30.17,67.63,29.8,67.63z"/>
</g>
<g>
	<polyline class="st3" points="33.91,77.55 25.7,77.55 25.7,65.76 33.91,65.76 33.91,77.55 	"/>
</g>
<g>
	<path d="M30.1,88L30.1,88 M30.1,88c-9.22,0.01-16.69-7.46-16.7-16.68c-0.01-9.22,7.46-16.69,16.68-16.7
		c9.22-0.01,16.69,7.46,16.7,16.68c0,0.01,0,0.01,0,0.02C46.78,80.53,39.31,88,30.1,88L30.1,88v-1.39c8.45,0,15.3-6.85,15.3-15.3
		s-6.85-15.3-15.3-15.3s-15.3,6.85-15.3,15.3c0,4.06,1.61,7.95,4.48,10.82c2.87,2.87,6.76,4.49,10.82,4.48V88L30.1,88"/>
</g>
<g class="st0">
	<path d="M67.53,76.82c0,0.2-0.04,0.33-0.11,0.4c-0.07,0.06-0.22,0.09-0.43,0.09h-0.93c-0.21,0-0.36-0.03-0.43-0.09
		c-0.07-0.06-0.11-0.19-0.11-0.4v-9.01h-1.72c-0.2,0-0.33-0.04-0.4-0.11c-0.06-0.07-0.09-0.22-0.09-0.43v-0.74
		c0-0.21,0.03-0.36,0.09-0.43s0.19-0.11,0.4-0.11h3.18c0.21,0,0.36,0.03,0.43,0.09c0.07,0.06,0.11,0.19,0.11,0.4V76.82z"/>
</g>
<g>
	<polyline class="st3" points="67.53,77.31 63.32,77.31 63.32,66 67.53,66 67.53,77.31 	"/>
</g>
<g>
	<path d="M66.28,88L66.28,88 M66.28,88c-9.22-0.02-16.68-7.5-16.66-16.72c0.02-9.22,7.5-16.68,16.72-16.66
		c9.21,0.02,16.67,7.49,16.66,16.7C83,80.53,75.53,88,66.32,88C66.31,88,66.29,88,66.28,88v-1.39c8.45,0,15.3-6.84,15.31-15.29
		c0-8.45-6.84-15.3-15.29-15.31c-8.45,0-15.3,6.84-15.31,15.29c0,4.06,1.61,7.96,4.48,10.83c2.86,2.87,6.75,4.48,10.81,4.48V88
		L66.28,88"/>
</g>
<g class="st0">
	<path d="M154.77,65.76c1.16,0,2.04,0.25,2.65,0.74c0.61,0.49,0.92,1.22,0.92,2.17v0.34c0,0.54-0.15,1.01-0.46,1.41
		c-0.3,0.4-0.72,0.71-1.26,0.93c0.61,0.16,1.07,0.44,1.39,0.86s0.48,0.94,0.48,1.58v0.62c0,0.99-0.35,1.76-1.04,2.31
		c-0.69,0.55-1.63,0.83-2.82,0.83c-0.72,0-1.35-0.09-1.89-0.26s-0.98-0.42-1.31-0.75c-0.22-0.22-0.4-0.51-0.54-0.85
		s-0.2-0.68-0.2-1.02c0-0.21,0.04-0.35,0.11-0.42c0.07-0.07,0.22-0.1,0.43-0.1h0.96c0.19,0,0.32,0.03,0.4,0.08
		c0.07,0.05,0.11,0.14,0.13,0.28c0.08,0.89,0.69,1.33,1.84,1.33c0.58,0,1.03-0.13,1.35-0.39c0.31-0.26,0.47-0.64,0.47-1.15v-0.4
		c0-1.05-0.58-1.58-1.73-1.58h-0.5c-0.2,0-0.33-0.04-0.4-0.11c-0.06-0.07-0.09-0.22-0.09-0.43v-0.74c0-0.21,0.03-0.36,0.09-0.43
		c0.06-0.07,0.19-0.11,0.4-0.11h0.3c1.21,0,1.82-0.5,1.82-1.52v-0.2c0-0.92-0.55-1.38-1.65-1.38c-0.55,0-0.97,0.11-1.25,0.33
		c-0.29,0.22-0.47,0.58-0.55,1.09c-0.02,0.13-0.07,0.23-0.14,0.28c-0.07,0.05-0.2,0.08-0.38,0.08h-0.89c-0.21,0-0.36-0.03-0.43-0.1
		c-0.07-0.07-0.11-0.21-0.11-0.42c0-0.34,0.06-0.67,0.19-0.99c0.13-0.32,0.31-0.6,0.55-0.83c0.36-0.37,0.79-0.64,1.29-0.81
		C153.38,65.84,154.01,65.76,154.77,65.76z"/>
</g>
<g>
	<polyline class="st3" points="158.5,77.55 150.7,77.55 150.7,65.76 158.5,65.76 158.5,77.55 	"/>
</g>
<g>
	<path d="M154.86,88L154.86,88 M154.86,88c-9.22,0.01-16.69-7.46-16.7-16.68c-0.01-9.22,7.46-16.69,16.68-16.7
		s16.69,7.46,16.7,16.68c0,0.01,0,0.01,0,0.02C171.54,80.53,164.07,88,154.86,88v-1.39c8.45,0,15.3-6.84,15.31-15.29
		c0-8.45-6.84-15.3-15.29-15.31c-8.45,0-15.3,6.84-15.31,15.29c0,4.06,1.61,7.96,4.48,10.83c2.86,2.87,6.75,4.48,10.81,4.48V88
		L154.86,88"/>
</g>
<g class="st0">
	<path d="M193.15,65.99c0.21,0,0.36,0.03,0.43,0.09c0.07,0.06,0.11,0.19,0.11,0.4v6.84h0.67c0.2,0,0.33,0.04,0.4,0.11
		c0.06,0.07,0.09,0.22,0.09,0.43v0.69c0,0.21-0.03,0.36-0.09,0.43c-0.06,0.07-0.19,0.11-0.4,0.11h-0.67v1.73
		c0,0.2-0.04,0.33-0.11,0.4c-0.07,0.06-0.22,0.09-0.43,0.09h-0.86c-0.21,0-0.36-0.03-0.43-0.09c-0.07-0.06-0.11-0.19-0.11-0.4v-1.73
		h-4.5c-0.2,0-0.33-0.04-0.4-0.11c-0.06-0.07-0.09-0.22-0.09-0.43v-1.18c0-0.13,0.01-0.26,0.03-0.38s0.08-0.24,0.17-0.36l4.24-6.16
		c0.13-0.19,0.24-0.32,0.31-0.38c0.07-0.06,0.19-0.09,0.35-0.09H193.15z M191.76,73.32v-4.73l-3.28,4.73H191.76z"/>
</g>
<g>
	<polyline class="st3" points="194.86,77.31 186.78,77.31 186.78,66 194.86,66 194.86,77.31 	"/>
</g>
<g>
	<path d="M191.05,88L191.05,88 M191.05,88c-9.22,0.01-16.69-7.46-16.7-16.68c-0.01-9.22,7.46-16.69,16.68-16.7
		s16.69,7.46,16.7,16.68c0,0.01,0,0.01,0,0.02C207.72,80.53,200.26,87.99,191.05,88v-1.39c8.44-0.01,15.28-6.85,15.27-15.29
		s-6.85-15.28-15.29-15.27c-8.44,0.01-15.28,6.85-15.27,15.29c0,4.05,1.61,7.93,4.47,10.79c2.87,2.87,6.76,4.49,10.82,4.48V88
		L191.05,88"/>
</g>
<g class="st0">
	<path d="M230.61,74.21c0,1.06-0.33,1.88-0.98,2.46c-0.66,0.58-1.56,0.88-2.72,0.88c-1.4,0-2.42-0.33-3.07-0.98
		c-0.22-0.22-0.4-0.49-0.53-0.81s-0.19-0.63-0.19-0.96c0-0.21,0.04-0.35,0.11-0.42c0.07-0.07,0.22-0.1,0.43-0.1h0.96
		c0.18,0,0.31,0.03,0.38,0.08c0.07,0.05,0.12,0.14,0.14,0.28c0.07,0.43,0.23,0.73,0.5,0.92s0.67,0.28,1.2,0.28
		c1.16,0,1.73-0.57,1.73-1.72v-0.64c0-1.21-0.54-1.82-1.63-1.82c-0.19,0-0.4,0.02-0.62,0.07s-0.42,0.11-0.57,0.19
		c-0.21,0.1-0.37,0.17-0.46,0.19c-0.1,0.03-0.22,0.04-0.36,0.04h-0.91c-0.22,0-0.37-0.03-0.44-0.1s-0.1-0.2-0.1-0.39v-5.17
		c0-0.19,0.03-0.32,0.1-0.39s0.21-0.1,0.44-0.1h5.78c0.19,0,0.32,0.03,0.39,0.1s0.1,0.21,0.1,0.44v0.74c0,0.23-0.03,0.37-0.1,0.44
		s-0.2,0.1-0.39,0.1h-4.48v2.63c0.36-0.17,0.7-0.29,1.04-0.37c0.33-0.08,0.68-0.12,1.05-0.12c2.14,0,3.22,1.17,3.22,3.5V74.21z"/>
</g>
<g>
	<polyline class="st3" points="230.61,77.55 223.11,77.55 223.11,66 230.61,66 230.61,77.55 	"/>
</g>
<g>
	<path d="M227.24,88L227.24,88 M227.24,88c-9.22,0.01-16.69-7.46-16.7-16.68c-0.01-9.22,7.46-16.69,16.68-16.7
		s16.69,7.46,16.7,16.68c0,0.01,0,0.01,0,0.02C243.92,80.53,236.45,88,227.24,88v-1.39c8.44-0.01,15.28-6.85,15.27-15.29
		s-6.85-15.28-15.29-15.27c-8.44,0.01-15.28,6.85-15.27,15.29c0,4.05,1.61,7.93,4.47,10.79c2.87,2.87,6.76,4.49,10.82,4.48V88
		L227.24,88"/>
</g>
<g>
	<path d="M110.57,96.1c13.69,0,24.78-11.09,24.78-24.78s-11.09-24.78-24.78-24.78c-13.69,0-24.78,11.09-24.78,24.78
		S96.88,96.1,110.57,96.1L110.57,96.1z"/>
</g>
<g class="st0">
	<path class="st2" d="M109.97,59.23c2.54,0,4.49,0.58,5.85,1.74c1.36,1.16,2.03,2.82,2.03,4.97v1.1c0,0.88-0.17,1.69-0.5,2.44
		c-0.33,0.75-0.77,1.43-1.32,2.05s-1.18,1.19-1.89,1.7c-0.71,0.51-1.43,0.99-2.16,1.43l-2.93,1.76c-0.66,0.39-1.18,0.75-1.56,1.08
		s-0.67,0.64-0.86,0.93c-0.2,0.29-0.32,0.59-0.37,0.88c-0.05,0.29-0.07,0.59-0.07,0.88v0.15h10.59c0.44,0,0.73,0.08,0.86,0.24
		c0.13,0.16,0.2,0.47,0.2,0.93v1.69c0,0.46-0.07,0.78-0.2,0.93c-0.13,0.16-0.42,0.24-0.86,0.24h-14.18c-0.46,0-0.78-0.07-0.93-0.2
		c-0.16-0.13-0.24-0.42-0.24-0.86v-1.8c0-1.1,0.13-2.08,0.4-2.95c0.27-0.87,0.63-1.64,1.08-2.31c0.45-0.67,0.98-1.26,1.59-1.76
		c0.61-0.5,1.26-0.95,1.94-1.34l3.12-1.8c0.49-0.29,0.96-0.59,1.41-0.9c0.45-0.31,0.85-0.65,1.19-1.04s0.62-0.82,0.82-1.3
		s0.31-1.01,0.31-1.59v-0.37c0-2.15-1.17-3.23-3.52-3.23c-1.17,0-2.03,0.23-2.58,0.7c-0.55,0.46-0.91,1.28-1.08,2.46
		c-0.05,0.29-0.15,0.49-0.31,0.6c-0.16,0.11-0.43,0.17-0.82,0.17h-2.09c-0.46,0-0.78-0.07-0.93-0.22c-0.16-0.15-0.24-0.45-0.24-0.92
		c0-0.76,0.15-1.52,0.44-2.29c0.29-0.77,0.68-1.4,1.17-1.89C104.88,60,107.09,59.23,109.97,59.23z"/>
</g>
</svg>
