<?xml version="1.0" encoding="utf-8"?>
<!-- Generator: Adobe Illustrator 27.0.1, SVG Export Plug-In . SVG Version: 6.00 Build 0)  -->
<svg version="1.1" id="Layer_1" xmlns="http://www.w3.org/2000/svg" xmlns:xlink="http://www.w3.org/1999/xlink" x="0px" y="0px"
	 viewBox="0 0 258.8 102" style="enable-background:new 0 0 258.8 102;" xml:space="preserve">
<style type="text/css">
	.st0{fill:#84BD00;}
	.st1{fill:none;stroke:#000000;}
	.st2{fill:none;stroke:#000000;stroke-width:1.4816;}
</style>
	<g>
	<path class="st0" d="M11.4,0.5c-6,0-10.9,4.9-10.9,10.9V91c0,5.8,4.7,10.5,10.5,10.5h236.7c5.8,0,10.5-4.7,10.5-10.5V11
		c0-5.8-4.7-10.5-10.5-10.5H11.4L11.4,0.5z"/>
		<path class="st1" d="M11.4,0.5c-6,0-10.9,4.9-10.9,10.9V91c0,5.8,4.7,10.5,10.5,10.5h236.7c5.8,0,10.5-4.7,10.5-10.5V11
		c0-5.8-4.7-10.5-10.5-10.5H11.4L11.4,0.5z"/>
		<line class="st2" x1="0.5" y1="41" x2="258.3" y2="41"/>
		<g>
		<path d="M24.7,22h-5.9v6.7c0,0.3-0.1,0.5-0.2,0.5c-0.1,0.1-0.3,0.1-0.6,0.1h-1.3c-0.3,0-0.5,0-0.6-0.1C16,29.2,16,29.1,16,28.8
			V13.6c0-0.3,0-0.5,0.2-0.5c0.1-0.1,0.3-0.1,0.6-0.1h8.6c0.3,0,0.5,0.1,0.5,0.2c0.1,0.1,0.1,0.3,0.1,0.6v1c0,0.3,0,0.5-0.1,0.6
			c-0.1,0.1-0.3,0.2-0.5,0.2h-6.5v4.1h5.9c0.3,0,0.5,0.1,0.5,0.2c0.1,0.1,0.1,0.3,0.1,0.6v1c0,0.3,0,0.5-0.1,0.6
			C25.1,22,25,22,24.7,22z"/>
			<path d="M34.1,12.6c2.8,0,4.6,1,5.5,3.1c0.2,0.4,0.3,0.9,0.4,1.5s0.1,1.3,0.1,2.2v3.4c0,0.8,0,1.5-0.1,2.1s-0.2,1.1-0.4,1.6
			c-0.4,1.1-1.1,1.9-2.1,2.5c-0.9,0.6-2.1,0.9-3.5,0.9c-2.8,0-4.6-1-5.5-3.1c-0.2-0.4-0.3-0.9-0.4-1.5S28,23.9,28,23v-3.4
			c0-0.8,0-1.5,0.1-2.1c0.1-0.6,0.2-1.1,0.4-1.6c0.4-1.1,1.1-1.9,2.1-2.5C31.6,12.9,32.7,12.6,34.1,12.6z M34.1,15.1
			c-1.1,0-2,0.3-2.4,1s-0.7,1.7-0.7,3.2v3.9c0,1.5,0.2,2.6,0.7,3.2s1.3,1,2.4,1c1.1,0,2-0.3,2.4-1s0.7-1.7,0.7-3.2v-3.9
			c0-1.5-0.2-2.6-0.7-3.2S35.2,15.1,34.1,15.1z"/>
			<path d="M48.7,12.6c2.8,0,4.6,1,5.5,3.1c0.2,0.4,0.3,0.9,0.4,1.5s0.1,1.3,0.1,2.2v3.4c0,0.8,0,1.5-0.1,2.1s-0.2,1.1-0.4,1.6
			c-0.4,1.1-1.1,1.9-2.1,2.5c-0.9,0.6-2.1,0.9-3.5,0.9c-2.8,0-4.6-1-5.5-3.1c-0.2-0.4-0.3-0.9-0.4-1.5s-0.1-1.3-0.1-2.2v-3.4
			c0-0.8,0-1.5,0.1-2.1c0.1-0.6,0.2-1.1,0.4-1.6c0.4-1.1,1.1-1.9,2.1-2.5C46.2,12.9,47.4,12.6,48.7,12.6z M48.7,15.1
			c-1.1,0-2,0.3-2.4,1s-0.7,1.7-0.7,3.2v3.9c0,1.5,0.2,2.6,0.7,3.2s1.3,1,2.4,1c1.1,0,2-0.3,2.4-1s0.7-1.7,0.7-3.2v-3.9
			c0-1.5-0.2-2.6-0.7-3.2S49.9,15.1,48.7,15.1z"/>
			<path d="M58.4,13h4.7c1.5,0,2.7,0.3,3.6,0.9s1.5,1.4,1.9,2.2c0.2,0.4,0.3,0.9,0.4,1.4c0.1,0.5,0.2,1.2,0.2,2.1v3.3
			c0,0.9-0.1,1.6-0.2,2.1c-0.1,0.5-0.2,1-0.4,1.4c-0.4,0.8-0.9,1.6-1.8,2.2c-0.8,0.6-1.9,0.9-3.4,0.9h-5.1c-0.3,0-0.5,0-0.6-0.1
			c-0.1-0.1-0.2-0.3-0.2-0.5V13.6c0-0.3,0-0.5,0.2-0.5C58,13,58.2,13,58.4,13z M60.5,15.5v11.5h2.6c0.7,0,1.3-0.1,1.7-0.4
			c0.5-0.2,0.8-0.7,1.1-1.2s0.4-1.4,0.4-2.4v-3.4c0-1.5-0.3-2.6-0.8-3.1c-0.6-0.6-1.3-0.9-2.4-0.9H60.5z"/>
			<path d="M88.7,13.6v15.1c0,0.3-0.1,0.5-0.2,0.5c-0.1,0.1-0.3,0.1-0.6,0.1h-1.3c-0.3,0-0.5,0-0.6-0.1c-0.1-0.1-0.2-0.3-0.2-0.5
			v-6.7h-6.3v6.7c0,0.3-0.1,0.5-0.2,0.5c-0.1,0.1-0.3,0.1-0.6,0.1h-1.3c-0.3,0-0.5,0-0.6-0.1c-0.1-0.1-0.2-0.3-0.2-0.5V13.6
			c0-0.3,0-0.5,0.2-0.5C77,13,77.2,13,77.5,13h1.3c0.3,0,0.5,0,0.6,0.1c0.1,0.1,0.2,0.3,0.2,0.5v5.9h6.3v-5.9c0-0.3,0-0.5,0.2-0.5
			c0.1-0.1,0.3-0.1,0.6-0.1h1.3c0.3,0,0.5,0,0.6,0.1C88.6,13.2,88.7,13.4,88.7,13.6z"/>
			<path d="M91.3,13h1.7c0.3,0,0.4,0,0.5,0.1c0.1,0.1,0.2,0.2,0.3,0.4l3.4,6.8l3.3-6.8c0.1-0.2,0.2-0.4,0.3-0.4
			c0.1-0.1,0.3-0.1,0.5-0.1h1.6c0.4,0,0.6,0.1,0.6,0.4c0,0.1,0,0.2-0.1,0.3l-5,9.6v5.6c0,0.3-0.1,0.5-0.2,0.5
			c-0.1,0.1-0.3,0.1-0.6,0.1h-1.3c-0.3,0-0.5,0-0.6-0.1c-0.1-0.1-0.2-0.3-0.2-0.5v-5.6l-5-9.6c0-0.1-0.1-0.2-0.1-0.3
			C90.8,13.1,90.9,13,91.3,13z"/>
	</g>
		<g>
		<path d="M104.7,23v-3.4c0-1.6,0.2-2.8,0.5-3.7c0.4-1.1,1.2-2,2.2-2.5c1-0.6,2.2-0.9,3.6-0.9c1,0,2,0.2,2.9,0.5
			c0.9,0.3,1.6,0.9,2.1,1.6c0.5,0.7,0.8,1.7,0.8,2.8c0,0.2-0.1,0.4-0.2,0.4c-0.1,0.1-0.3,0.1-0.6,0.1h-1.4c-0.3,0-0.5,0-0.6-0.1
			c-0.1-0.1-0.2-0.2-0.2-0.5c-0.1-0.9-0.3-1.5-0.8-1.9c-0.5-0.4-1.2-0.6-2.2-0.6c-0.8,0-1.4,0.1-1.8,0.4c-0.5,0.2-0.8,0.7-1,1.3
			s-0.3,1.5-0.3,2.5v3.9c0,1.6,0.3,2.7,0.8,3.3c0.5,0.6,1.3,0.9,2.4,0.9c1,0,1.8-0.3,2.3-0.8c0.5-0.5,0.8-1.4,0.8-2.7v-0.4h-1.8
			c-0.3,0-0.5,0-0.5-0.2c-0.1-0.1-0.1-0.3-0.1-0.6v-1c0-0.3,0-0.5,0.1-0.6c0.1-0.1,0.3-0.2,0.5-0.2h3.9c0.3,0,0.5,0,0.6,0.1
			c0.1,0.1,0.2,0.3,0.2,0.5v2.6c0,1-0.2,1.9-0.6,2.8c-0.4,0.8-1.1,1.5-2,2c-0.9,0.5-2,0.8-3.4,0.8c-1.5,0-2.7-0.3-3.6-0.8
			c-0.9-0.6-1.5-1.3-2-2.3c-0.2-0.4-0.3-0.9-0.4-1.5C104.8,24.6,104.7,23.9,104.7,23z"/>
			<path d="M122.5,13.6v15.1c0,0.3-0.1,0.5-0.2,0.5c-0.1,0.1-0.3,0.1-0.6,0.1h-1.3c-0.3,0-0.5,0-0.6-0.1c-0.1-0.1-0.2-0.3-0.2-0.5
			V13.6c0-0.3,0-0.5,0.2-0.5c0.1-0.1,0.3-0.1,0.6-0.1h1.3c0.3,0,0.5,0,0.6,0.1C122.5,13.2,122.5,13.4,122.5,13.6z"/>
			<path d="M136,27.7v1c0,0.3,0,0.5-0.1,0.6s-0.3,0.2-0.5,0.2h-8.7c-0.3,0-0.5,0-0.6-0.1c-0.1-0.1-0.2-0.3-0.2-0.5V13.6
			c0-0.3,0-0.5,0.2-0.5c0.1-0.1,0.3-0.1,0.6-0.1h8.6c0.3,0,0.5,0.1,0.5,0.2c0.1,0.1,0.1,0.3,0.1,0.6v1c0,0.3,0,0.5-0.1,0.6
			c-0.1,0.1-0.3,0.2-0.5,0.2h-6.6v4.3h6c0.3,0,0.5,0.1,0.5,0.2c0.1,0.1,0.1,0.3,0.1,0.6v1c0,0.3,0,0.5-0.1,0.6
			c-0.1,0.1-0.3,0.2-0.5,0.2h-6v4.7h6.6c0.3,0,0.5,0.1,0.5,0.2C136,27.2,136,27.4,136,27.7z"/>
			<path d="M147.2,28.8l-5.5-10.5v10.5c0,0.3,0,0.5-0.2,0.5c-0.1,0.1-0.3,0.1-0.6,0.1h-1.3c-0.3,0-0.5,0-0.6-0.1
			c-0.1-0.1-0.2-0.3-0.2-0.5V13.6c0-0.3,0-0.5,0.2-0.5c0.1-0.1,0.3-0.1,0.6-0.1h1.3c0.3,0,0.5,0,0.6,0.1c0.1,0.1,0.3,0.3,0.4,0.5
			l5.5,10.5V13.6c0-0.3,0-0.5,0.2-0.5c0.1-0.1,0.3-0.1,0.6-0.1h1.3c0.3,0,0.5,0,0.6,0.1c0.1,0.1,0.2,0.3,0.2,0.5v15.1
			c0,0.3-0.1,0.5-0.2,0.5c-0.1,0.1-0.3,0.1-0.6,0.1h-1.3c-0.3,0-0.5,0-0.6-0.1C147.5,29.3,147.4,29.1,147.2,28.8z"/>
			<path d="M163.8,27.7v1c0,0.3,0,0.5-0.1,0.6s-0.3,0.2-0.5,0.2h-8.7c-0.3,0-0.5,0-0.6-0.1c-0.1-0.1-0.2-0.3-0.2-0.5V13.6
			c0-0.3,0-0.5,0.2-0.5c0.1-0.1,0.3-0.1,0.6-0.1h8.6c0.3,0,0.5,0.1,0.5,0.2c0.1,0.1,0.1,0.3,0.1,0.6v1c0,0.3,0,0.5-0.1,0.6
			c-0.1,0.1-0.3,0.2-0.5,0.2h-6.6v4.3h6c0.3,0,0.5,0.1,0.5,0.2c0.1,0.1,0.1,0.3,0.1,0.6v1c0,0.3,0,0.5-0.1,0.6
			c-0.1,0.1-0.3,0.2-0.5,0.2h-6v4.7h6.6c0.3,0,0.5,0.1,0.5,0.2C163.8,27.2,163.8,27.4,163.8,27.7z"/>
			<path d="M176.7,23h-2.5v5.8c0,0.3,0,0.4-0.1,0.5c-0.1,0.1-0.3,0.1-0.6,0.1h-1.3c-0.3,0-0.5,0-0.6-0.1c-0.1-0.1-0.1-0.3-0.1-0.5
			V13.6c0-0.3,0-0.4,0.1-0.5c0.1-0.1,0.3-0.1,0.6-0.1h5c1.8,0,3.2,0.4,4,1.2s1.3,2,1.3,3.7v0.4c0,2.3-0.9,3.8-2.8,4.4l3.5,6.1
			c0.1,0.1,0.1,0.2,0.1,0.3c0,0.2-0.2,0.4-0.6,0.4h-1.7c-0.2,0-0.4,0-0.6-0.1c-0.1-0.1-0.3-0.3-0.4-0.5L176.7,23z M174.2,15.4v5.2
			h2.9c0.9,0,1.5-0.2,1.9-0.6c0.4-0.4,0.6-1,0.6-1.9v-0.3c0-0.9-0.2-1.6-0.5-1.9c-0.4-0.4-1-0.6-1.9-0.6H174.2z"/>
			<path d="M193.1,13.4l5.1,15.4c0,0.1,0,0.2,0,0.3c0,0.3-0.2,0.4-0.5,0.4h-1.6c-0.3,0-0.5,0-0.6-0.1c-0.1-0.1-0.2-0.3-0.3-0.5
			l-1.1-3.3h-6.1l-1,3.3c-0.1,0.3-0.2,0.5-0.3,0.5c-0.1,0.1-0.3,0.1-0.6,0.1h-1.5c-0.3,0-0.5-0.1-0.5-0.4c0,0,0-0.1,0-0.3l5.2-15.4
			c0.1-0.2,0.1-0.3,0.3-0.3c0.1,0,0.3-0.1,0.5-0.1h2.1c0.2,0,0.4,0,0.5,0.1C193,13.1,193.1,13.2,193.1,13.4z M191.2,16.1l-2.2,7h4.5
			L191.2,16.1z"/>
	</g>
		<g>
		<path d="M202.2,28.8V15.5h-4.1c-0.3,0-0.5-0.1-0.5-0.2c-0.1-0.1-0.1-0.3-0.1-0.6v-1c0-0.3,0-0.5,0.1-0.6c0.1-0.1,0.3-0.2,0.5-0.2
			h10.9c0.3,0,0.5,0.1,0.5,0.2c0.1,0.1,0.1,0.3,0.1,0.6v1c0,0.3,0,0.5-0.1,0.6c-0.1,0.1-0.3,0.2-0.5,0.2H205v13.3
			c0,0.3,0,0.5-0.2,0.5c-0.1,0.1-0.3,0.1-0.6,0.1H203c-0.3,0-0.5,0-0.6-0.1C202.3,29.2,202.2,29.1,202.2,28.8z"/>
			<path d="M214.8,13.6v15.1c0,0.3,0,0.5-0.2,0.5c-0.1,0.1-0.3,0.1-0.6,0.1h-1.3c-0.3,0-0.5,0-0.6-0.1c-0.1-0.1-0.2-0.3-0.2-0.5V13.6
			c0-0.3,0-0.5,0.2-0.5c0.1-0.1,0.3-0.1,0.6-0.1h1.3c0.3,0,0.5,0,0.6,0.1C214.8,13.2,214.8,13.4,214.8,13.6z"/>
			<path d="M226.5,28.8l-5.5-10.5v10.5c0,0.3,0,0.5-0.2,0.5c-0.1,0.1-0.3,0.1-0.6,0.1h-1.3c-0.3,0-0.5,0-0.6-0.1
			c-0.1-0.1-0.2-0.3-0.2-0.5V13.6c0-0.3,0-0.5,0.2-0.5c0.1-0.1,0.3-0.1,0.6-0.1h1.3c0.3,0,0.5,0,0.6,0.1c0.1,0.1,0.3,0.3,0.4,0.5
			l5.5,10.5V13.6c0-0.3,0-0.5,0.2-0.5c0.1-0.1,0.3-0.1,0.6-0.1h1.3c0.3,0,0.5,0,0.6,0.1c0.1,0.1,0.2,0.3,0.2,0.5v15.1
			c0,0.3-0.1,0.5-0.2,0.5c-0.1,0.1-0.3,0.1-0.6,0.1h-1.3c-0.3,0-0.5,0-0.6-0.1C226.8,29.3,226.6,29.1,226.5,28.8z"/>
			<path d="M232.5,23v-3.4c0-1.6,0.2-2.8,0.5-3.7c0.4-1.1,1.2-2,2.2-2.5c1-0.6,2.2-0.9,3.6-0.9c1,0,2,0.2,2.9,0.5
			c0.9,0.3,1.6,0.9,2.1,1.6c0.5,0.7,0.8,1.7,0.8,2.8c0,0.2-0.1,0.4-0.2,0.4c-0.1,0.1-0.3,0.1-0.6,0.1h-1.4c-0.3,0-0.5,0-0.6-0.1
			c-0.1-0.1-0.2-0.2-0.2-0.5c-0.1-0.9-0.3-1.5-0.8-1.9c-0.5-0.4-1.2-0.6-2.2-0.6c-0.8,0-1.4,0.1-1.8,0.4c-0.5,0.2-0.8,0.7-1,1.3
			c-0.2,0.6-0.3,1.5-0.3,2.5v3.9c0,1.6,0.3,2.7,0.8,3.3c0.5,0.6,1.3,0.9,2.4,0.9c1,0,1.8-0.3,2.3-0.8c0.5-0.5,0.8-1.4,0.8-2.7v-0.4
			h-1.8c-0.3,0-0.5,0-0.5-0.2c-0.1-0.1-0.1-0.3-0.1-0.6v-1c0-0.3,0-0.5,0.1-0.6c0.1-0.1,0.3-0.2,0.5-0.2h3.9c0.3,0,0.5,0,0.6,0.1
			s0.2,0.3,0.2,0.5v2.6c0,1-0.2,1.9-0.6,2.8c-0.4,0.8-1.1,1.5-2,2c-0.9,0.5-2,0.8-3.4,0.8c-1.5,0-2.7-0.3-3.6-0.8
			c-0.9-0.6-1.5-1.3-2-2.3c-0.2-0.4-0.3-0.9-0.4-1.5C232.6,24.6,232.5,23.9,232.5,23z"/>
	</g>
		<g>
		<path d="M100.1,77.8v1c0,0.3,0,0.5-0.1,0.6s-0.3,0.1-0.5,0.1H91c-0.3,0-0.5,0-0.6-0.1c-0.1-0.1-0.1-0.3-0.1-0.5V64.1
			c0-0.3,0-0.4,0.1-0.5c0.1-0.1,0.3-0.1,0.6-0.1h8.4c0.3,0,0.4,0,0.5,0.1s0.1,0.3,0.1,0.6v1c0,0.3,0,0.5-0.1,0.6s-0.3,0.1-0.5,0.1
			H93V70h5.8c0.3,0,0.4,0,0.5,0.1c0.1,0.1,0.1,0.3,0.1,0.6v1c0,0.3,0,0.5-0.1,0.6c-0.1,0.1-0.3,0.1-0.5,0.1H93V77h6.5
			c0.3,0,0.4,0,0.5,0.1C100.1,77.3,100.1,77.5,100.1,77.8z"/>
			<path d="M102.4,63.5h1.8c0.3,0,0.5,0,0.6,0.1c0.1,0.1,0.2,0.3,0.4,0.6l2.7,4.5l2.8-4.5c0.2-0.3,0.3-0.4,0.4-0.5
			c0.1-0.1,0.3-0.1,0.6-0.1h1.7c0.3,0,0.5,0.1,0.5,0.4c0,0.1,0,0.2-0.1,0.3l-4.3,6.8l4.5,7.8c0.1,0.1,0.1,0.2,0.1,0.3
			c0,0.3-0.2,0.4-0.5,0.4h-1.8c-0.3,0-0.5,0-0.6-0.1c-0.1-0.1-0.2-0.3-0.4-0.6l-2.9-5.3l-2.9,5.3c-0.2,0.3-0.3,0.5-0.4,0.6
			c-0.1,0.1-0.3,0.1-0.6,0.1h-1.7c-0.3,0-0.5-0.1-0.5-0.4c0-0.1,0-0.2,0.1-0.3l4.5-7.7l-4.3-6.9c-0.1-0.1-0.1-0.2-0.1-0.3
			C101.9,63.6,102.1,63.5,102.4,63.5z"/>
			<path d="M125.8,77.8v1c0,0.3,0,0.5-0.1,0.6s-0.3,0.1-0.5,0.1h-8.5c-0.3,0-0.5,0-0.6-0.1c-0.1-0.1-0.1-0.3-0.1-0.5V64.1
			c0-0.3,0-0.4,0.1-0.5c0.1-0.1,0.3-0.1,0.6-0.1h8.4c0.3,0,0.4,0,0.5,0.1s0.1,0.3,0.1,0.6v1c0,0.3,0,0.5-0.1,0.6s-0.3,0.1-0.5,0.1
			h-6.4V70h5.8c0.3,0,0.4,0,0.5,0.1c0.1,0.1,0.1,0.3,0.1,0.6v1c0,0.3,0,0.5-0.1,0.6c-0.1,0.1-0.3,0.1-0.5,0.1h-5.8V77h6.5
			c0.3,0,0.4,0,0.5,0.1C125.7,77.3,125.8,77.5,125.8,77.8z"/>
			<path d="M136,74.8h-1.3c-0.3,0-0.5,0-0.6-0.1c-0.1-0.1-0.2-0.3-0.3-0.5l-2.5-5.4v10.1c0,0.3,0,0.4-0.1,0.5
			c-0.1,0.1-0.3,0.1-0.6,0.1h-1.2c-0.3,0-0.5,0-0.6-0.1c-0.1-0.1-0.1-0.3-0.1-0.5V64.1c0-0.3,0-0.4,0.1-0.5c0.1-0.1,0.3-0.1,0.6-0.1
			h1.3c0.3,0,0.5,0,0.6,0.1c0.1,0.1,0.2,0.3,0.4,0.5l3.7,7.9l3.7-7.9c0.1-0.3,0.3-0.5,0.4-0.5c0.1-0.1,0.3-0.1,0.6-0.1h1.3
			c0.3,0,0.5,0,0.6,0.1s0.1,0.3,0.1,0.5v14.7c0,0.3,0,0.4-0.1,0.5c-0.1,0.1-0.3,0.1-0.6,0.1h-1.2c-0.3,0-0.5,0-0.6-0.1
			c-0.1-0.1-0.1-0.3-0.1-0.5V68.8l-2.5,5.4c-0.1,0.3-0.2,0.4-0.3,0.5C136.5,74.8,136.3,74.8,136,74.8z"/>
			<path d="M150.5,73.5H148v5.3c0,0.3,0,0.4-0.1,0.5c-0.1,0.1-0.3,0.1-0.6,0.1H146c-0.3,0-0.5,0-0.6-0.1c-0.1-0.1-0.1-0.3-0.1-0.5
			V64.1c0-0.3,0-0.4,0.1-0.5s0.3-0.1,0.6-0.1h4.5c1.8,0,3.1,0.4,4,1.1c0.9,0.7,1.4,2,1.4,3.8v0.5c0,1.6-0.5,2.8-1.4,3.6
			C153.6,73.2,152.2,73.5,150.5,73.5z M148,65.8v5.4h2.5c0.8,0,1.3-0.1,1.7-0.3c0.4-0.2,0.6-0.5,0.7-0.9s0.2-0.8,0.2-1.2v-0.3
			c0-0.5-0.1-0.9-0.2-1.3c-0.1-0.4-0.4-0.7-0.7-0.9c-0.4-0.2-0.9-0.3-1.7-0.3H148z"/>
			<path d="M161.8,78.8V65.9h-3.9c-0.3,0-0.4,0-0.5-0.1c-0.1-0.1-0.1-0.3-0.1-0.6v-1c0-0.3,0-0.5,0.1-0.6c0.1-0.1,0.3-0.1,0.5-0.1
			h10.6c0.3,0,0.4,0,0.5,0.1c0.1,0.1,0.1,0.3,0.1,0.6v1c0,0.3,0,0.5-0.1,0.6c-0.1,0.1-0.3,0.1-0.5,0.1h-3.9v12.9
			c0,0.3,0,0.4-0.1,0.5c-0.1,0.1-0.3,0.1-0.6,0.1h-1.3c-0.3,0-0.5,0-0.6-0.1C161.8,79.3,161.8,79.1,161.8,78.8z"/>
	</g>
</g>
</svg>
