<?xml version="1.0" encoding="utf-8"?>
<!-- Generator: Adobe Illustrator 26.0.1, SVG Export Plug-In . SVG Version: 6.00 Build 0)  -->
<svg version="1.1" id="Layer_1" xmlns="http://www.w3.org/2000/svg" xmlns:xlink="http://www.w3.org/1999/xlink" x="0px" y="0px"
	 viewBox="0 0 428.03 102.04" style="enable-background:new 0 0 428.03 102.04;" xml:space="preserve">
<style type="text/css">
	.st0{enable-background:new    ;}
	.st1{fill:#84BD00;}
	.st2{fill:#FFFFFF;}
	.st3{fill:none;}
</style>
<g class="st0">
	<path d="M19.09,22.03v6.74c0,0.28-0.05,0.46-0.15,0.54s-0.3,0.13-0.59,0.13h-1.34c-0.29,0-0.49-0.04-0.59-0.13
		s-0.15-0.27-0.15-0.54V13.62c0-0.28,0.05-0.46,0.15-0.54s0.3-0.13,0.59-0.13h8.59c0.28,0,0.46,0.05,0.54,0.15
		c0.08,0.1,0.13,0.3,0.13,0.59v1.02c0,0.29-0.04,0.49-0.13,0.59c-0.08,0.1-0.27,0.15-0.54,0.15h-6.51v4.08H25
		c0.28,0,0.46,0.05,0.54,0.15s0.13,0.3,0.13,0.59v1.02c0,0.29-0.04,0.49-0.13,0.59s-0.27,0.15-0.54,0.15H19.09z"/>
	<path d="M34.52,12.58c1.37,0,2.53,0.27,3.46,0.8c0.93,0.53,1.62,1.32,2.07,2.35c0.2,0.45,0.34,0.95,0.42,1.51s0.12,1.27,0.12,2.15
		v3.38c0,0.8-0.04,1.49-0.13,2.07c-0.09,0.58-0.22,1.11-0.41,1.59c-0.45,1.11-1.14,1.95-2.07,2.52s-2.09,0.86-3.46,0.86
		s-2.53-0.27-3.46-0.8c-0.93-0.53-1.62-1.32-2.07-2.35c-0.2-0.45-0.34-0.95-0.42-1.5c-0.08-0.56-0.12-1.27-0.12-2.15v-3.38
		c0-0.8,0.04-1.49,0.13-2.07s0.22-1.11,0.41-1.59c0.45-1.11,1.14-1.95,2.07-2.52C31.99,12.87,33.14,12.58,34.52,12.58z M34.52,15.06
		c-1.14,0-1.96,0.32-2.44,0.97c-0.49,0.65-0.73,1.72-0.73,3.22v3.89c0,1.5,0.24,2.57,0.73,3.22s1.3,0.97,2.44,0.97
		s1.96-0.32,2.44-0.97c0.49-0.65,0.73-1.72,0.73-3.22v-3.89c0-1.5-0.24-2.57-0.73-3.22C36.47,15.38,35.66,15.06,34.52,15.06z"/>
	<path d="M49.15,12.58c1.37,0,2.53,0.27,3.46,0.8c0.93,0.53,1.62,1.32,2.07,2.35c0.2,0.45,0.34,0.95,0.42,1.51s0.12,1.27,0.12,2.15
		v3.38c0,0.8-0.04,1.49-0.13,2.07c-0.09,0.58-0.22,1.11-0.41,1.59c-0.45,1.11-1.14,1.95-2.07,2.52s-2.09,0.86-3.46,0.86
		s-2.53-0.27-3.46-0.8c-0.93-0.53-1.62-1.32-2.07-2.35c-0.2-0.45-0.34-0.95-0.42-1.5c-0.08-0.56-0.12-1.27-0.12-2.15v-3.38
		c0-0.8,0.04-1.49,0.13-2.07s0.22-1.11,0.41-1.59c0.45-1.11,1.14-1.95,2.07-2.52C46.63,12.87,47.78,12.58,49.15,12.58z M49.15,15.06
		c-1.14,0-1.96,0.32-2.44,0.97c-0.49,0.65-0.73,1.72-0.73,3.22v3.89c0,1.5,0.24,2.57,0.73,3.22s1.3,0.97,2.44,0.97
		s1.96-0.32,2.44-0.97c0.49-0.65,0.73-1.72,0.73-3.22v-3.89c0-1.5-0.24-2.57-0.73-3.22C51.11,15.38,50.3,15.06,49.15,15.06z"/>
	<path d="M63.61,12.95c0.76,0,1.43,0.08,2.03,0.25s1.12,0.4,1.58,0.68c0.46,0.29,0.84,0.62,1.15,1c0.31,0.38,0.56,0.78,0.74,1.22
		c0.17,0.42,0.3,0.88,0.41,1.4c0.1,0.52,0.15,1.22,0.15,2.1v3.31c0,0.87-0.05,1.55-0.15,2.06s-0.24,0.96-0.41,1.37
		c-0.17,0.42-0.4,0.81-0.69,1.19c-0.29,0.38-0.65,0.71-1.07,1c-0.42,0.29-0.91,0.51-1.47,0.67c-0.56,0.16-1.2,0.24-1.91,0.24h-5.07
		c-0.29,0-0.49-0.04-0.59-0.13s-0.15-0.27-0.15-0.54V13.62c0-0.28,0.05-0.46,0.15-0.54s0.3-0.13,0.59-0.13H63.61z M60.97,26.94h2.59
		c0.52,0,0.98-0.07,1.38-0.2c0.39-0.13,0.73-0.35,1-0.66c0.27-0.31,0.47-0.72,0.61-1.24c0.14-0.52,0.21-1.16,0.21-1.93v-3.43
		c0-0.76-0.07-1.39-0.22-1.91c-0.15-0.52-0.36-0.93-0.63-1.24s-0.6-0.53-1-0.67s-0.85-0.21-1.35-0.21h-2.59V26.94z"/>
	<path d="M89.1,28.77c0,0.28-0.05,0.46-0.15,0.54c-0.1,0.08-0.3,0.13-0.59,0.13h-1.34c-0.29,0-0.49-0.04-0.59-0.13
		c-0.1-0.08-0.15-0.27-0.15-0.54v-6.72h-6.25v6.72c0,0.28-0.05,0.46-0.15,0.54s-0.3,0.13-0.59,0.13h-1.34
		c-0.29,0-0.49-0.04-0.59-0.13s-0.15-0.27-0.15-0.54V13.62c0-0.28,0.05-0.46,0.15-0.54s0.3-0.13,0.59-0.13h1.34
		c0.29,0,0.49,0.04,0.59,0.13s0.15,0.27,0.15,0.54v5.93h6.25v-5.93c0-0.28,0.05-0.46,0.15-0.54c0.1-0.08,0.3-0.13,0.59-0.13h1.34
		c0.29,0,0.49,0.04,0.59,0.13c0.1,0.08,0.15,0.27,0.15,0.54V28.77z"/>
	<path d="M93.32,12.95c0.26,0,0.44,0.04,0.54,0.1c0.1,0.07,0.2,0.21,0.31,0.43l3.36,6.83l3.31-6.83c0.11-0.22,0.21-0.36,0.31-0.43
		c0.1-0.07,0.28-0.1,0.54-0.1h1.6c0.39,0,0.58,0.12,0.58,0.37c0,0.11-0.02,0.21-0.07,0.3l-4.96,9.57v5.58
		c0,0.28-0.05,0.46-0.15,0.54s-0.3,0.13-0.59,0.13h-1.34c-0.29,0-0.49-0.04-0.59-0.13s-0.15-0.27-0.15-0.54v-5.58l-4.96-9.57
		c-0.05-0.09-0.07-0.19-0.07-0.3c0-0.25,0.19-0.37,0.58-0.37H93.32z"/>
</g>
<g class="st0">
	<path d="M104.77,19.62c0-1.59,0.18-2.81,0.53-3.66c0.45-1.11,1.17-1.95,2.17-2.52c1-0.57,2.19-0.86,3.58-0.86
		c0.79,0,1.53,0.1,2.23,0.29c0.7,0.19,1.32,0.49,1.84,0.89c0.52,0.4,0.94,0.92,1.25,1.54c0.31,0.63,0.46,1.37,0.46,2.24
		c0,0.22-0.05,0.36-0.16,0.44s-0.3,0.12-0.58,0.12h-1.44c-0.28,0-0.47-0.04-0.57-0.12c-0.1-0.08-0.16-0.23-0.17-0.46
		c-0.06-0.88-0.34-1.51-0.83-1.9s-1.24-0.58-2.22-0.58c-0.57,0-1.06,0.07-1.46,0.2c-0.4,0.13-0.73,0.36-0.98,0.68
		s-0.44,0.76-0.57,1.3c-0.12,0.54-0.19,1.22-0.19,2.04v3.89c0,1.56,0.26,2.66,0.78,3.29c0.52,0.63,1.32,0.95,2.42,0.95
		c1.02,0,1.79-0.26,2.32-0.79c0.52-0.52,0.79-1.42,0.79-2.69v-0.44h-1.78c-0.28,0-0.46-0.05-0.54-0.15c-0.08-0.1-0.13-0.3-0.13-0.59
		V21.7c0-0.29,0.04-0.49,0.13-0.59c0.08-0.1,0.27-0.15,0.54-0.15h3.91c0.29,0,0.49,0.04,0.59,0.13c0.1,0.09,0.15,0.27,0.15,0.54
		v2.62c0,0.76-0.12,1.47-0.36,2.14c-0.24,0.67-0.61,1.26-1.1,1.77c-0.49,0.51-1.12,0.91-1.88,1.2c-0.76,0.29-1.64,0.44-2.66,0.44
		c-1.5,0-2.68-0.27-3.55-0.82c-0.87-0.55-1.53-1.32-1.98-2.33c-0.2-0.45-0.34-0.95-0.42-1.49c-0.08-0.55-0.12-1.27-0.12-2.17V19.62z
		"/>
	<path d="M122.58,28.77c0,0.28-0.05,0.46-0.15,0.54s-0.3,0.13-0.59,0.13h-1.34c-0.29,0-0.49-0.04-0.59-0.13s-0.15-0.27-0.15-0.54
		V13.62c0-0.28,0.05-0.46,0.15-0.54s0.3-0.13,0.59-0.13h1.34c0.29,0,0.49,0.04,0.59,0.13s0.15,0.27,0.15,0.54V28.77z"/>
	<path d="M136.06,28.7c0,0.29-0.04,0.49-0.13,0.59s-0.27,0.15-0.54,0.15h-8.73c-0.29,0-0.49-0.04-0.59-0.13s-0.15-0.27-0.15-0.54
		V13.62c0-0.28,0.05-0.46,0.15-0.54s0.3-0.13,0.59-0.13h8.64c0.28,0,0.46,0.05,0.54,0.15c0.08,0.1,0.13,0.3,0.13,0.59v1.02
		c0,0.29-0.04,0.49-0.13,0.59c-0.09,0.1-0.27,0.15-0.54,0.15h-6.55v4.26h5.95c0.28,0,0.46,0.05,0.54,0.15s0.13,0.3,0.13,0.59v1.02
		c0,0.29-0.04,0.49-0.13,0.59s-0.27,0.15-0.54,0.15h-5.95v4.72h6.65c0.28,0,0.46,0.05,0.54,0.15s0.13,0.3,0.13,0.59V28.7z"/>
	<path d="M141.73,18.3v10.47c0,0.28-0.05,0.46-0.15,0.54c-0.1,0.08-0.3,0.13-0.59,0.13h-1.27c-0.29,0-0.49-0.04-0.59-0.13
		s-0.15-0.27-0.15-0.54V13.62c0-0.28,0.05-0.46,0.15-0.54s0.3-0.13,0.59-0.13h1.34c0.29,0,0.51,0.04,0.64,0.1s0.27,0.25,0.43,0.54
		l5.54,10.49V13.62c0-0.28,0.05-0.46,0.15-0.54s0.3-0.13,0.59-0.13h1.27c0.29,0,0.49,0.04,0.59,0.13c0.1,0.08,0.15,0.27,0.15,0.54
		v15.15c0,0.28-0.05,0.46-0.15,0.54c-0.1,0.08-0.3,0.13-0.59,0.13h-1.34c-0.29,0-0.51-0.04-0.64-0.1c-0.13-0.07-0.27-0.25-0.43-0.54
		L141.73,18.3z"/>
	<path d="M163.9,28.7c0,0.29-0.04,0.49-0.13,0.59s-0.27,0.15-0.54,0.15h-8.73c-0.29,0-0.49-0.04-0.59-0.13s-0.15-0.27-0.15-0.54
		V13.62c0-0.28,0.05-0.46,0.15-0.54s0.3-0.13,0.59-0.13h8.64c0.28,0,0.46,0.05,0.54,0.15c0.08,0.1,0.13,0.3,0.13,0.59v1.02
		c0,0.29-0.04,0.49-0.13,0.59c-0.09,0.1-0.27,0.15-0.54,0.15h-6.55v4.26h5.95c0.28,0,0.46,0.05,0.54,0.15s0.13,0.3,0.13,0.59v1.02
		c0,0.29-0.04,0.49-0.13,0.59s-0.27,0.15-0.54,0.15h-5.95v4.72h6.65c0.28,0,0.46,0.05,0.54,0.15s0.13,0.3,0.13,0.59V28.7z"/>
	<path d="M174.23,23v5.77c0,0.26-0.05,0.44-0.14,0.53c-0.09,0.09-0.29,0.14-0.6,0.14h-1.3c-0.31,0-0.51-0.05-0.6-0.14
		c-0.09-0.09-0.14-0.27-0.14-0.53V13.62c0-0.26,0.05-0.44,0.14-0.53c0.09-0.09,0.29-0.14,0.6-0.14h4.96c1.84,0,3.18,0.38,4.03,1.15
		c0.85,0.76,1.27,1.99,1.27,3.67v0.44c0,2.35-0.93,3.83-2.8,4.45l3.45,6.11c0.06,0.12,0.09,0.22,0.09,0.3c0,0.25-0.2,0.37-0.6,0.37
		h-1.74c-0.26,0-0.45-0.04-0.57-0.13s-0.25-0.27-0.41-0.54L176.75,23H174.23z M174.23,20.59h2.9c0.9,0,1.53-0.18,1.9-0.54
		c0.37-0.36,0.56-0.98,0.56-1.86v-0.32c0-0.93-0.18-1.58-0.54-1.95c-0.36-0.37-1-0.56-1.91-0.56h-2.9V20.59z"/>
	<path d="M198.17,28.77c0.03,0.12,0.05,0.21,0.05,0.25c0,0.28-0.17,0.42-0.51,0.42h-1.62c-0.29,0-0.48-0.04-0.57-0.13
		c-0.08-0.08-0.17-0.27-0.27-0.54l-1.07-3.27h-6.07l-1.04,3.29c-0.09,0.28-0.18,0.46-0.27,0.53c-0.08,0.08-0.27,0.12-0.57,0.12
		h-1.53c-0.34,0-0.51-0.14-0.51-0.42c0-0.05,0.02-0.13,0.05-0.25l5.21-15.4c0.06-0.19,0.15-0.3,0.25-0.35
		c0.11-0.05,0.27-0.07,0.49-0.07h2.08c0.22,0,0.38,0.02,0.49,0.07c0.11,0.05,0.19,0.16,0.25,0.35L198.17,28.77z M188.89,23.09h4.52
		l-2.27-7.04L188.89,23.09z"/>
</g>
<g class="st0">
	<path d="M202.02,15.45h-4.05c-0.28,0-0.46-0.05-0.54-0.15c-0.09-0.1-0.13-0.3-0.13-0.59v-1.02c0-0.29,0.04-0.49,0.13-0.59
		c0.08-0.1,0.27-0.15,0.54-0.15h10.93c0.28,0,0.46,0.05,0.54,0.15c0.08,0.1,0.13,0.3,0.13,0.59v1.02c0,0.29-0.04,0.49-0.13,0.59
		c-0.09,0.1-0.27,0.15-0.54,0.15h-4.05v13.32c0,0.28-0.05,0.46-0.15,0.54c-0.1,0.08-0.3,0.13-0.59,0.13h-1.34
		c-0.29,0-0.49-0.04-0.59-0.13c-0.1-0.08-0.15-0.27-0.15-0.54V15.45z"/>
	<path d="M214.52,28.77c0,0.28-0.05,0.46-0.15,0.54s-0.3,0.13-0.59,0.13h-1.34c-0.29,0-0.49-0.04-0.59-0.13s-0.15-0.27-0.15-0.54
		V13.62c0-0.28,0.05-0.46,0.15-0.54s0.3-0.13,0.59-0.13h1.34c0.29,0,0.49,0.04,0.59,0.13s0.15,0.27,0.15,0.54V28.77z"/>
	<path d="M220.61,18.3v10.47c0,0.28-0.05,0.46-0.15,0.54s-0.3,0.13-0.59,0.13h-1.27c-0.29,0-0.49-0.04-0.59-0.13
		s-0.15-0.27-0.15-0.54V13.62c0-0.28,0.05-0.46,0.15-0.54s0.3-0.13,0.59-0.13h1.34c0.29,0,0.5,0.04,0.64,0.1
		c0.13,0.07,0.27,0.25,0.43,0.54l5.54,10.49V13.62c0-0.28,0.05-0.46,0.15-0.54s0.3-0.13,0.59-0.13h1.27c0.29,0,0.49,0.04,0.59,0.13
		c0.1,0.08,0.15,0.27,0.15,0.54v15.15c0,0.28-0.05,0.46-0.15,0.54c-0.1,0.08-0.3,0.13-0.59,0.13h-1.34c-0.29,0-0.51-0.04-0.64-0.1
		s-0.27-0.25-0.43-0.54L220.61,18.3z"/>
	<path d="M232.22,19.62c0-1.59,0.18-2.81,0.53-3.66c0.45-1.11,1.17-1.95,2.17-2.52c1-0.57,2.19-0.86,3.58-0.86
		c0.79,0,1.53,0.1,2.23,0.29c0.7,0.19,1.32,0.49,1.84,0.89c0.52,0.4,0.94,0.92,1.25,1.54c0.31,0.63,0.46,1.37,0.46,2.24
		c0,0.22-0.05,0.36-0.16,0.44c-0.11,0.08-0.3,0.12-0.58,0.12h-1.44c-0.28,0-0.47-0.04-0.57-0.12c-0.1-0.08-0.16-0.23-0.17-0.46
		c-0.06-0.88-0.34-1.51-0.83-1.9s-1.24-0.58-2.22-0.58c-0.57,0-1.06,0.07-1.46,0.2c-0.4,0.13-0.73,0.36-0.98,0.68
		s-0.44,0.76-0.57,1.3c-0.12,0.54-0.19,1.22-0.19,2.04v3.89c0,1.56,0.26,2.66,0.78,3.29c0.52,0.63,1.32,0.95,2.42,0.95
		c1.02,0,1.79-0.26,2.32-0.79c0.52-0.52,0.79-1.42,0.79-2.69v-0.44h-1.78c-0.28,0-0.46-0.05-0.54-0.15c-0.08-0.1-0.13-0.3-0.13-0.59
		V21.7c0-0.29,0.04-0.49,0.13-0.59c0.08-0.1,0.27-0.15,0.54-0.15h3.91c0.29,0,0.49,0.04,0.59,0.13c0.1,0.09,0.15,0.27,0.15,0.54
		v2.62c0,0.76-0.12,1.47-0.36,2.14c-0.24,0.67-0.61,1.26-1.1,1.77c-0.49,0.51-1.12,0.91-1.88,1.2c-0.76,0.29-1.64,0.44-2.66,0.44
		c-1.5,0-2.68-0.27-3.55-0.82s-1.53-1.32-1.98-2.33c-0.2-0.45-0.34-0.95-0.42-1.49c-0.08-0.55-0.12-1.27-0.12-2.17V19.62z"/>
</g>
<g>
	<path class="st1" d="M11.37,0.5c-6,0-10.87,4.87-10.87,10.87V91c-0.01,5.81,4.69,10.53,10.5,10.55h406
		c5.82,0,10.53-4.71,10.53-10.53c0-0.01,0-0.01,0-0.02V11C427.51,5.2,422.8,0.5,417,0.5H11.37"/>
</g>
<g>
	<path d="M11.37,0.5V0C5.09,0,0,5.09,0,11.37V91c0,6.08,4.92,11,11,11l0,0h406c6.08,0,11-4.92,11-11l0,0V11c0-6.08-4.92-11-11-11
		l0,0H11.37v1H417c5.52,0,10,4.48,10,10v80c-0.03,5.51-4.49,9.97-10,10H11c-5.51-0.03-9.97-4.49-10-10V11.37
		C1.01,5.65,5.65,1.01,11.37,1V0.5"/>
</g>
<g>
	<path d="M428,90.93V11.11c0.02-5.84-4.7-10.59-10.54-10.61H258.32v101h159.17C423.3,101.46,427.99,96.74,428,90.93"/>
</g>
<g class="st0">
	<path d="M18.5,21.73v6.71c0,0.28-0.05,0.46-0.15,0.54c-0.1,0.08-0.3,0.13-0.59,0.13h-1.34c-0.29,0-0.49-0.04-0.59-0.13
		c-0.1-0.08-0.15-0.26-0.15-0.54V13.36c0-0.28,0.05-0.46,0.15-0.54c0.1-0.08,0.3-0.13,0.59-0.13h8.55c0.28,0,0.46,0.05,0.54,0.15
		c0.08,0.1,0.13,0.3,0.13,0.59v1.01c0,0.29-0.04,0.49-0.13,0.59c-0.08,0.1-0.26,0.15-0.54,0.15H18.5v4.05h5.88
		c0.28,0,0.46,0.05,0.54,0.15c0.08,0.1,0.13,0.3,0.13,0.59v1.01c0,0.29-0.04,0.49-0.13,0.59s-0.26,0.15-0.54,0.15H18.5z"/>
	<path d="M33.84,12.33c1.37,0,2.51,0.27,3.44,0.79c0.93,0.53,1.62,1.31,2.06,2.34c0.2,0.45,0.34,0.94,0.42,1.5
		c0.08,0.55,0.11,1.27,0.11,2.14v3.36c0,0.8-0.04,1.49-0.13,2.06c-0.08,0.58-0.22,1.1-0.4,1.58c-0.45,1.11-1.13,1.94-2.06,2.51
		c-0.93,0.57-2.08,0.85-3.44,0.85c-1.37,0-2.52-0.26-3.44-0.79c-0.93-0.53-1.62-1.31-2.06-2.34c-0.2-0.45-0.34-0.94-0.41-1.5
		c-0.08-0.55-0.12-1.27-0.12-2.14v-3.36c0-0.8,0.04-1.49,0.13-2.06c0.08-0.58,0.22-1.1,0.4-1.58c0.45-1.11,1.13-1.94,2.06-2.51
		C31.33,12.61,32.48,12.33,33.84,12.33z M33.84,14.79c-1.14,0-1.95,0.32-2.43,0.97c-0.48,0.64-0.73,1.71-0.73,3.2v3.87
		c0,1.49,0.24,2.56,0.73,3.2C31.9,26.68,32.71,27,33.84,27c1.14,0,1.95-0.32,2.43-0.97c0.48-0.64,0.73-1.71,0.73-3.2v-3.87
		c0-1.49-0.24-2.56-0.73-3.2C35.79,15.11,34.98,14.79,33.84,14.79z"/>
	<path d="M48.41,12.33c1.37,0,2.51,0.27,3.44,0.79c0.93,0.53,1.62,1.31,2.06,2.34c0.2,0.45,0.34,0.94,0.42,1.5
		c0.08,0.55,0.11,1.27,0.11,2.14v3.36c0,0.8-0.04,1.49-0.13,2.06c-0.08,0.58-0.22,1.1-0.4,1.58c-0.45,1.11-1.13,1.94-2.06,2.51
		c-0.93,0.57-2.08,0.85-3.44,0.85c-1.37,0-2.52-0.26-3.44-0.79c-0.93-0.53-1.62-1.31-2.06-2.34c-0.2-0.45-0.34-0.94-0.41-1.5
		c-0.08-0.55-0.12-1.27-0.12-2.14v-3.36c0-0.8,0.04-1.49,0.13-2.06c0.08-0.58,0.22-1.1,0.4-1.58c0.45-1.11,1.13-1.94,2.06-2.51
		C45.89,12.61,47.04,12.33,48.41,12.33z M48.41,14.79c-1.14,0-1.95,0.32-2.43,0.97c-0.48,0.64-0.73,1.71-0.73,3.2v3.87
		c0,1.49,0.24,2.56,0.73,3.2c0.48,0.65,1.29,0.97,2.43,0.97c1.14,0,1.95-0.32,2.43-0.97c0.48-0.64,0.73-1.71,0.73-3.2v-3.87
		c0-1.49-0.24-2.56-0.73-3.2C50.35,15.11,49.54,14.79,48.41,14.79z"/>
	<path d="M62.78,12.7c0.75,0,1.42,0.08,2.02,0.25c0.59,0.17,1.11,0.4,1.57,0.68c0.45,0.29,0.83,0.62,1.14,0.99s0.55,0.78,0.74,1.21
		c0.17,0.42,0.3,0.88,0.4,1.39c0.1,0.51,0.15,1.21,0.15,2.08v3.29c0,0.86-0.05,1.54-0.15,2.05c-0.1,0.51-0.23,0.96-0.4,1.36
		c-0.17,0.41-0.4,0.81-0.69,1.19c-0.29,0.38-0.65,0.71-1.06,0.99c-0.41,0.28-0.9,0.51-1.46,0.67c-0.56,0.16-1.19,0.24-1.9,0.24
		h-5.05c-0.29,0-0.49-0.04-0.59-0.13c-0.1-0.08-0.15-0.26-0.15-0.54V13.36c0-0.28,0.05-0.46,0.15-0.54c0.1-0.08,0.3-0.13,0.59-0.13
		H62.78z M60.16,26.61h2.58c0.52,0,0.98-0.07,1.37-0.2c0.39-0.13,0.72-0.35,0.99-0.66c0.27-0.31,0.47-0.72,0.61-1.23
		s0.21-1.16,0.21-1.92v-3.41c0-0.75-0.07-1.39-0.22-1.9s-0.35-0.93-0.62-1.23c-0.27-0.31-0.6-0.53-0.99-0.67
		c-0.39-0.14-0.84-0.21-1.35-0.21h-2.58V26.61z"/>
	<path d="M88.15,28.43c0,0.28-0.05,0.46-0.15,0.54c-0.1,0.08-0.3,0.13-0.59,0.13h-1.34c-0.29,0-0.49-0.04-0.59-0.13
		c-0.1-0.08-0.15-0.26-0.15-0.54v-6.68h-6.22v6.68c0,0.28-0.05,0.46-0.15,0.54c-0.1,0.08-0.3,0.13-0.59,0.13h-1.34
		c-0.29,0-0.49-0.04-0.59-0.13c-0.1-0.08-0.15-0.26-0.15-0.54V13.36c0-0.28,0.05-0.46,0.15-0.54c0.1-0.08,0.3-0.13,0.59-0.13h1.34
		c0.29,0,0.49,0.04,0.59,0.13c0.1,0.08,0.15,0.26,0.15,0.54v5.9h6.22v-5.9c0-0.28,0.05-0.46,0.15-0.54c0.1-0.08,0.3-0.13,0.59-0.13
		h1.34c0.29,0,0.49,0.04,0.59,0.13c0.1,0.08,0.15,0.26,0.15,0.54V28.43z"/>
	<path d="M92.34,12.7c0.26,0,0.44,0.03,0.54,0.1s0.2,0.21,0.31,0.43l3.34,6.8l3.29-6.8c0.11-0.21,0.21-0.36,0.31-0.43
		c0.1-0.07,0.28-0.1,0.54-0.1h1.59c0.38,0,0.58,0.12,0.58,0.37c0,0.11-0.02,0.21-0.07,0.3l-4.93,9.52v5.55
		c0,0.28-0.05,0.46-0.15,0.54c-0.1,0.08-0.3,0.13-0.59,0.13h-1.34c-0.29,0-0.49-0.04-0.59-0.13c-0.1-0.08-0.15-0.26-0.15-0.54v-5.55
		l-4.93-9.52c-0.05-0.09-0.07-0.19-0.07-0.3c0-0.25,0.19-0.37,0.58-0.37H92.34z"/>
</g>
<g class="st0">
	<path d="M103.75,19.33c0-1.58,0.18-2.8,0.53-3.64c0.45-1.11,1.16-1.94,2.15-2.51c0.99-0.57,2.18-0.85,3.56-0.85
		c0.78,0,1.52,0.1,2.22,0.29c0.7,0.19,1.31,0.49,1.83,0.89s0.94,0.91,1.24,1.53c0.31,0.62,0.46,1.36,0.46,2.22
		c0,0.22-0.05,0.36-0.16,0.44c-0.11,0.08-0.3,0.12-0.58,0.12h-1.43c-0.28,0-0.46-0.04-0.56-0.12c-0.1-0.08-0.16-0.23-0.17-0.46
		c-0.06-0.88-0.34-1.51-0.83-1.89s-1.23-0.58-2.21-0.58c-0.57,0-1.05,0.07-1.45,0.2s-0.73,0.36-0.98,0.68
		c-0.25,0.32-0.44,0.75-0.56,1.29c-0.12,0.54-0.18,1.21-0.18,2.03v3.87c0,1.55,0.26,2.64,0.77,3.27s1.32,0.94,2.41,0.94
		c1.01,0,1.78-0.26,2.3-0.78c0.52-0.52,0.78-1.41,0.78-2.67v-0.44h-1.77c-0.28,0-0.46-0.05-0.54-0.15c-0.08-0.1-0.13-0.3-0.13-0.59
		V21.4c0-0.29,0.04-0.49,0.13-0.59c0.08-0.1,0.26-0.15,0.54-0.15h3.89c0.29,0,0.49,0.04,0.59,0.13c0.1,0.08,0.15,0.26,0.15,0.54v2.6
		c0,0.75-0.12,1.46-0.36,2.13c-0.24,0.67-0.6,1.25-1.09,1.76c-0.49,0.51-1.11,0.91-1.87,1.2c-0.75,0.29-1.64,0.44-2.65,0.44
		c-1.49,0-2.67-0.27-3.54-0.82s-1.52-1.32-1.97-2.32c-0.2-0.45-0.34-0.94-0.42-1.49c-0.08-0.54-0.12-1.26-0.12-2.15V19.33z"/>
	<path d="M121.47,28.43c0,0.28-0.05,0.46-0.15,0.54c-0.1,0.08-0.3,0.13-0.59,0.13h-1.34c-0.29,0-0.49-0.04-0.59-0.13
		c-0.1-0.08-0.15-0.26-0.15-0.54V13.36c0-0.28,0.05-0.46,0.15-0.54c0.1-0.08,0.3-0.13,0.59-0.13h1.34c0.29,0,0.49,0.04,0.59,0.13
		c0.1,0.08,0.15,0.26,0.15,0.54V28.43z"/>
	<path d="M134.88,28.36c0,0.29-0.04,0.49-0.13,0.59c-0.08,0.1-0.26,0.15-0.54,0.15h-8.69c-0.29,0-0.49-0.04-0.59-0.13
		c-0.1-0.08-0.15-0.26-0.15-0.54V13.36c0-0.28,0.05-0.46,0.15-0.54c0.1-0.08,0.29-0.13,0.59-0.13h8.59c0.28,0,0.46,0.05,0.54,0.15
		c0.08,0.1,0.13,0.3,0.13,0.59v1.01c0,0.29-0.04,0.49-0.13,0.59c-0.08,0.1-0.26,0.15-0.54,0.15h-6.52v4.24h5.92
		c0.28,0,0.46,0.05,0.54,0.15c0.08,0.1,0.13,0.3,0.13,0.59v1.01c0,0.29-0.04,0.49-0.13,0.59c-0.08,0.1-0.27,0.15-0.54,0.15h-5.92
		v4.7h6.61c0.28,0,0.46,0.05,0.54,0.15c0.08,0.1,0.13,0.3,0.13,0.59V28.36z"/>
	<path d="M140.53,18.02v10.41c0,0.28-0.05,0.46-0.15,0.54c-0.1,0.08-0.3,0.13-0.59,0.13h-1.27c-0.29,0-0.49-0.04-0.59-0.13
		c-0.1-0.08-0.15-0.26-0.15-0.54V13.36c0-0.28,0.05-0.46,0.15-0.54c0.1-0.08,0.3-0.13,0.59-0.13h1.34c0.29,0,0.5,0.03,0.63,0.1
		s0.27,0.25,0.43,0.54l5.51,10.44V13.36c0-0.28,0.05-0.46,0.15-0.54c0.1-0.08,0.29-0.13,0.59-0.13h1.27c0.29,0,0.49,0.04,0.59,0.13
		c0.1,0.08,0.15,0.26,0.15,0.54v15.07c0,0.28-0.05,0.46-0.15,0.54c-0.1,0.08-0.3,0.13-0.59,0.13h-1.34c-0.29,0-0.5-0.03-0.63-0.1
		c-0.13-0.07-0.27-0.25-0.43-0.54L140.53,18.02z"/>
	<path d="M162.57,28.36c0,0.29-0.04,0.49-0.13,0.59c-0.08,0.1-0.26,0.15-0.54,0.15h-8.69c-0.29,0-0.49-0.04-0.59-0.13
		c-0.1-0.08-0.15-0.26-0.15-0.54V13.36c0-0.28,0.05-0.46,0.15-0.54c0.1-0.08,0.29-0.13,0.59-0.13h8.59c0.28,0,0.46,0.05,0.54,0.15
		c0.08,0.1,0.13,0.3,0.13,0.59v1.01c0,0.29-0.04,0.49-0.13,0.59c-0.08,0.1-0.26,0.15-0.54,0.15h-6.52v4.24h5.92
		c0.28,0,0.46,0.05,0.54,0.15c0.08,0.1,0.13,0.3,0.13,0.59v1.01c0,0.29-0.04,0.49-0.13,0.59c-0.08,0.1-0.27,0.15-0.54,0.15h-5.92
		v4.7h6.61c0.28,0,0.46,0.05,0.54,0.15c0.08,0.1,0.13,0.3,0.13,0.59V28.36z"/>
	<path d="M172.85,22.69v5.74c0,0.26-0.05,0.44-0.14,0.53c-0.09,0.09-0.29,0.14-0.6,0.14h-1.29c-0.31,0-0.51-0.05-0.6-0.14
		c-0.09-0.09-0.14-0.27-0.14-0.53V13.36c0-0.26,0.05-0.44,0.14-0.53c0.09-0.09,0.29-0.14,0.6-0.14h4.93c1.83,0,3.16,0.38,4.01,1.14
		c0.84,0.76,1.27,1.98,1.27,3.65v0.44c0,2.33-0.93,3.81-2.79,4.42l3.43,6.08c0.06,0.12,0.09,0.22,0.09,0.3c0,0.25-0.2,0.37-0.6,0.37
		h-1.73c-0.26,0-0.45-0.04-0.56-0.13c-0.12-0.08-0.25-0.26-0.4-0.54l-3.11-5.74H172.85z M172.85,20.3h2.88
		c0.89,0,1.52-0.18,1.89-0.54c0.37-0.36,0.55-0.98,0.55-1.85v-0.32c0-0.92-0.18-1.57-0.54-1.94c-0.36-0.37-0.99-0.55-1.9-0.55h-2.88
		V20.3z"/>
	<path d="M196.67,28.43c0.03,0.12,0.05,0.21,0.05,0.25c0,0.28-0.17,0.42-0.51,0.42h-1.61c-0.29,0-0.48-0.04-0.56-0.13
		c-0.08-0.08-0.17-0.26-0.26-0.54l-1.06-3.25h-6.04l-1.04,3.27c-0.09,0.28-0.18,0.45-0.27,0.53c-0.08,0.08-0.27,0.12-0.56,0.12
		h-1.52c-0.34,0-0.51-0.14-0.51-0.42c0-0.05,0.02-0.13,0.05-0.25l5.18-15.32c0.06-0.18,0.15-0.3,0.25-0.34
		c0.11-0.05,0.27-0.07,0.48-0.07h2.07c0.21,0,0.38,0.02,0.48,0.07c0.11,0.05,0.19,0.16,0.25,0.34L196.67,28.43z M187.43,22.79h4.49
		l-2.26-7L187.43,22.79z"/>
</g>
<g class="st0">
	<path d="M200.49,15.18h-4.03c-0.28,0-0.46-0.05-0.54-0.15c-0.08-0.1-0.13-0.29-0.13-0.59v-1.01c0-0.29,0.04-0.49,0.13-0.59
		c0.08-0.1,0.27-0.15,0.54-0.15h10.88c0.28,0,0.46,0.05,0.54,0.15c0.08,0.1,0.13,0.3,0.13,0.59v1.01c0,0.29-0.04,0.49-0.13,0.59
		c-0.08,0.1-0.27,0.15-0.54,0.15h-4.03v13.25c0,0.28-0.05,0.46-0.15,0.54c-0.1,0.08-0.3,0.13-0.59,0.13h-1.34
		c-0.29,0-0.49-0.04-0.59-0.13c-0.1-0.08-0.15-0.26-0.15-0.54V15.18z"/>
	<path d="M212.93,28.43c0,0.28-0.05,0.46-0.15,0.54c-0.1,0.08-0.3,0.13-0.59,0.13h-1.34c-0.29,0-0.49-0.04-0.59-0.13
		c-0.1-0.08-0.15-0.26-0.15-0.54V13.36c0-0.28,0.05-0.46,0.15-0.54c0.1-0.08,0.3-0.13,0.59-0.13h1.34c0.29,0,0.49,0.04,0.59,0.13
		c0.1,0.08,0.15,0.26,0.15,0.54V28.43z"/>
	<path d="M218.99,18.02v10.41c0,0.28-0.05,0.46-0.15,0.54c-0.1,0.08-0.3,0.13-0.59,0.13h-1.27c-0.29,0-0.49-0.04-0.59-0.13
		c-0.1-0.08-0.15-0.26-0.15-0.54V13.36c0-0.28,0.05-0.46,0.15-0.54c0.1-0.08,0.3-0.13,0.59-0.13h1.34c0.29,0,0.5,0.03,0.63,0.1
		s0.27,0.25,0.43,0.54l5.51,10.44V13.36c0-0.28,0.05-0.46,0.15-0.54c0.1-0.08,0.29-0.13,0.59-0.13h1.27c0.29,0,0.49,0.04,0.59,0.13
		c0.1,0.08,0.15,0.26,0.15,0.54v15.07c0,0.28-0.05,0.46-0.15,0.54c-0.1,0.08-0.3,0.13-0.59,0.13h-1.34c-0.29,0-0.5-0.03-0.63-0.1
		c-0.13-0.07-0.27-0.25-0.43-0.54L218.99,18.02z"/>
	<path d="M230.53,19.33c0-1.58,0.18-2.8,0.53-3.64c0.45-1.11,1.16-1.94,2.15-2.51c0.99-0.57,2.18-0.85,3.56-0.85
		c0.78,0,1.52,0.1,2.22,0.29c0.7,0.19,1.31,0.49,1.83,0.89s0.94,0.91,1.24,1.53c0.31,0.62,0.46,1.36,0.46,2.22
		c0,0.22-0.05,0.36-0.16,0.44c-0.11,0.08-0.3,0.12-0.58,0.12h-1.43c-0.28,0-0.46-0.04-0.56-0.12c-0.1-0.08-0.16-0.23-0.17-0.46
		c-0.06-0.88-0.34-1.51-0.83-1.89s-1.23-0.58-2.21-0.58c-0.57,0-1.05,0.07-1.45,0.2s-0.73,0.36-0.98,0.68
		c-0.25,0.32-0.44,0.75-0.56,1.29c-0.12,0.54-0.18,1.21-0.18,2.03v3.87c0,1.55,0.26,2.64,0.77,3.27s1.32,0.94,2.41,0.94
		c1.01,0,1.78-0.26,2.3-0.78c0.52-0.52,0.78-1.41,0.78-2.67v-0.44h-1.77c-0.28,0-0.46-0.05-0.54-0.15c-0.08-0.1-0.13-0.3-0.13-0.59
		V21.4c0-0.29,0.04-0.49,0.13-0.59c0.08-0.1,0.26-0.15,0.54-0.15h3.89c0.29,0,0.49,0.04,0.59,0.13c0.1,0.08,0.15,0.26,0.15,0.54v2.6
		c0,0.75-0.12,1.46-0.36,2.13c-0.24,0.67-0.6,1.25-1.09,1.76c-0.49,0.51-1.11,0.91-1.87,1.2c-0.75,0.29-1.64,0.44-2.65,0.44
		c-1.49,0-2.67-0.27-3.54-0.82s-1.52-1.32-1.97-2.32c-0.2-0.45-0.34-0.94-0.42-1.49c-0.08-0.54-0.12-1.26-0.12-2.15V19.33z"/>
</g>
<g>
	<polyline points="258.31,41.87 1,41.87 1,40.39 258.31,40.39 258.31,41.87 	"/>
</g>
<g>
	<polyline points="0.5,41.87 0,41.87 0,40.39 0.5,40.39 0.5,41.76 0.5,41.87 	"/>
</g>
<g>
	<polyline points="1,41.87 0.5,41.87 0.5,41.76 0.5,40.39 1,40.39 1,41.87 	"/>
</g>
<g>
	<polyline points="258.81,41.87 258.31,41.87 258.31,40.39 258.81,40.39 258.81,41.87 	"/>
</g>
<g>
	<path d="M428,90.52V11.65c-0.02-5.8-4.74-10.5-10.54-10.48h0H258.32V101h159.17C423.28,100.99,427.98,96.31,428,90.52z"/>
</g>
<g class="st0">
	<path class="st2" d="M315.29,28.51c0,1.91-0.46,3.35-1.38,4.32c-0.92,0.97-2.26,1.46-4.03,1.46h-0.17c-1.77,0-3.11-0.49-4.03-1.46
		c-0.92-0.97-1.38-2.41-1.38-4.32v-9.52c0-0.25,0.04-0.42,0.13-0.5c0.09-0.09,0.28-0.13,0.57-0.13h1.27c0.29,0,0.48,0.04,0.57,0.13
		c0.09,0.09,0.13,0.25,0.13,0.5v9.5c0,2.25,0.9,3.37,2.69,3.37h0.26c1.79,0,2.69-1.12,2.69-3.37v-9.5c0-0.25,0.04-0.42,0.13-0.5
		c0.09-0.09,0.28-0.13,0.57-0.13h1.27c0.29,0,0.48,0.04,0.57,0.13c0.09,0.09,0.13,0.25,0.13,0.5V28.51z"/>
	<path class="st2" d="M320.92,27.86v5.45c0,0.25-0.04,0.42-0.13,0.5c-0.09,0.09-0.28,0.13-0.57,0.13h-1.23
		c-0.29,0-0.48-0.04-0.57-0.13c-0.09-0.09-0.13-0.26-0.13-0.5V18.99c0-0.25,0.04-0.42,0.13-0.5c0.09-0.09,0.28-0.13,0.57-0.13h4.68
		c1.74,0,3.01,0.36,3.81,1.08c0.8,0.72,1.2,1.88,1.2,3.47v0.42c0,2.22-0.88,3.62-2.65,4.2l3.26,5.78c0.06,0.12,0.09,0.21,0.09,0.28
		c0,0.23-0.19,0.35-0.57,0.35h-1.64c-0.25,0-0.43-0.04-0.54-0.12s-0.24-0.25-0.38-0.51l-2.96-5.45H320.92z M320.92,25.58h2.74
		c0.85,0,1.44-0.17,1.79-0.51s0.53-0.93,0.53-1.76v-0.31c0-0.88-0.17-1.49-0.51-1.84c-0.34-0.35-0.95-0.53-1.81-0.53h-2.74V25.58z"
		/>
	<path class="st2" d="M331.1,24.66c0-1.5,0.17-2.66,0.5-3.46c0.42-1.05,1.11-1.85,2.05-2.39c0.94-0.54,2.07-0.81,3.38-0.81
		c0.74,0,1.45,0.09,2.11,0.27s1.24,0.46,1.74,0.84s0.89,0.86,1.18,1.46c0.29,0.59,0.44,1.3,0.44,2.11c0,0.2-0.05,0.34-0.15,0.42
		c-0.1,0.07-0.29,0.11-0.55,0.11h-1.36c-0.26,0-0.44-0.04-0.54-0.11c-0.09-0.07-0.15-0.22-0.16-0.44c-0.06-0.83-0.32-1.43-0.79-1.79
		c-0.47-0.36-1.17-0.55-2.1-0.55c-0.54,0-1,0.06-1.38,0.19s-0.69,0.34-0.93,0.65c-0.24,0.31-0.42,0.72-0.54,1.23
		c-0.12,0.51-0.17,1.15-0.17,1.93v3.68c0,1.47,0.24,2.51,0.73,3.11s1.25,0.9,2.29,0.9c0.96,0,1.69-0.25,2.19-0.74
		s0.74-1.34,0.74-2.54v-0.42h-1.69c-0.26,0-0.43-0.05-0.51-0.14c-0.08-0.09-0.12-0.28-0.12-0.56v-0.96c0-0.28,0.04-0.46,0.12-0.56
		s0.25-0.14,0.51-0.14h3.7c0.28,0,0.46,0.04,0.56,0.12c0.09,0.08,0.14,0.25,0.14,0.51v2.47c0,0.71-0.11,1.39-0.34,2.02
		s-0.57,1.19-1.04,1.67s-1.06,0.86-1.77,1.14c-0.72,0.28-1.55,0.42-2.52,0.42c-1.42,0-2.54-0.26-3.36-0.78s-1.45-1.25-1.87-2.2
		c-0.19-0.42-0.32-0.89-0.39-1.41c-0.07-0.52-0.11-1.2-0.11-2.05V24.66z"/>
	<path class="st2" d="M354.85,33.24c0,0.28-0.04,0.46-0.12,0.56c-0.08,0.1-0.25,0.14-0.51,0.14h-8.25c-0.28,0-0.46-0.04-0.56-0.12
		c-0.1-0.08-0.14-0.25-0.14-0.51V18.99c0-0.26,0.05-0.43,0.14-0.51c0.09-0.08,0.28-0.12,0.56-0.12h8.17c0.26,0,0.43,0.05,0.51,0.14
		s0.12,0.28,0.12,0.56v0.96c0,0.28-0.04,0.46-0.12,0.56c-0.08,0.1-0.25,0.14-0.51,0.14h-6.19v4.03h5.63c0.26,0,0.43,0.05,0.51,0.14
		c0.08,0.1,0.12,0.28,0.12,0.56v0.96c0,0.28-0.04,0.46-0.12,0.56s-0.25,0.14-0.51,0.14h-5.63v4.47h6.28c0.26,0,0.43,0.05,0.51,0.14
		c0.08,0.09,0.12,0.28,0.12,0.56V33.24z"/>
	<path class="st2" d="M360.21,23.41v9.89c0,0.26-0.05,0.43-0.14,0.51s-0.28,0.12-0.56,0.12h-1.2c-0.28,0-0.46-0.04-0.56-0.12
		c-0.1-0.08-0.14-0.25-0.14-0.51V18.99c0-0.26,0.05-0.43,0.14-0.51c0.09-0.08,0.28-0.12,0.56-0.12h1.27c0.28,0,0.48,0.03,0.6,0.1
		s0.26,0.24,0.41,0.51l5.23,9.92v-9.89c0-0.26,0.05-0.43,0.14-0.51c0.09-0.08,0.28-0.12,0.56-0.12h1.2c0.28,0,0.46,0.04,0.56,0.12
		c0.09,0.08,0.14,0.25,0.14,0.51v14.32c0,0.26-0.05,0.43-0.14,0.51c-0.1,0.08-0.28,0.12-0.56,0.12h-1.27c-0.28,0-0.48-0.03-0.6-0.1
		c-0.12-0.07-0.26-0.24-0.41-0.51L360.21,23.41z"/>
	<path class="st2" d="M374.9,20.72h-3.83c-0.26,0-0.43-0.05-0.51-0.14c-0.08-0.09-0.12-0.28-0.12-0.56v-0.96
		c0-0.28,0.04-0.46,0.12-0.56s0.25-0.14,0.51-0.14h10.33c0.26,0,0.43,0.05,0.51,0.14s0.12,0.28,0.12,0.56v0.96
		c0,0.28-0.04,0.46-0.12,0.56c-0.08,0.1-0.25,0.14-0.51,0.14h-3.83v12.59c0,0.26-0.05,0.43-0.14,0.51c-0.1,0.08-0.28,0.12-0.56,0.12
		h-1.27c-0.28,0-0.46-0.04-0.56-0.12c-0.09-0.08-0.14-0.25-0.14-0.51V20.72z"/>
</g>
<g class="st0">
	<path class="st2" d="M276.16,58.18c0,0.26-0.05,0.44-0.14,0.52c-0.1,0.08-0.28,0.12-0.56,0.12h-1.27c-0.28,0-0.46-0.04-0.56-0.12
		s-0.14-0.25-0.14-0.52V43.87c0-0.26,0.05-0.43,0.14-0.51s0.28-0.12,0.56-0.12h1.27c0.28,0,0.46,0.04,0.56,0.12
		c0.09,0.08,0.14,0.25,0.14,0.51V58.18z"/>
	<path class="st2" d="M285.22,54.27c-0.29,0-0.49-0.04-0.58-0.12c-0.09-0.08-0.2-0.25-0.32-0.51l-2.41-5.23v9.78
		c0,0.26-0.05,0.44-0.14,0.52s-0.28,0.12-0.56,0.12h-1.2c-0.28,0-0.46-0.04-0.56-0.12c-0.1-0.08-0.14-0.25-0.14-0.52V43.87
		c0-0.26,0.05-0.43,0.14-0.51c0.09-0.08,0.28-0.12,0.56-0.12h1.27c0.29,0,0.5,0.04,0.61,0.11c0.12,0.07,0.24,0.25,0.37,0.53
		l3.57,7.68l3.59-7.68c0.13-0.28,0.25-0.45,0.37-0.53c0.12-0.07,0.32-0.11,0.61-0.11h1.27c0.28,0,0.46,0.04,0.56,0.12
		s0.14,0.25,0.14,0.51v14.32c0,0.26-0.05,0.44-0.14,0.52s-0.28,0.12-0.56,0.12h-1.2c-0.28,0-0.46-0.04-0.56-0.12
		s-0.14-0.25-0.14-0.52V48.4l-2.41,5.23c-0.12,0.26-0.22,0.43-0.32,0.51c-0.09,0.08-0.29,0.12-0.58,0.12H285.22z"/>
	<path class="st2" d="M298.16,53.04v5.14c0,0.26-0.05,0.44-0.14,0.52c-0.1,0.08-0.28,0.12-0.56,0.12h-1.23
		c-0.28,0-0.46-0.04-0.56-0.12s-0.14-0.25-0.14-0.52V43.87c0-0.26,0.05-0.43,0.14-0.51s0.28-0.12,0.56-0.12h4.36
		c0.86,0,1.62,0.08,2.28,0.25c0.66,0.17,1.2,0.44,1.64,0.82c0.44,0.38,0.77,0.87,0.99,1.47c0.22,0.6,0.33,1.34,0.33,2.21v0.44
		c0,1.59-0.44,2.76-1.32,3.5c-0.88,0.74-2.19,1.12-3.91,1.12H298.16z M298.16,50.76h2.43c0.55,0,1-0.06,1.32-0.19
		s0.58-0.3,0.75-0.51s0.29-0.47,0.35-0.77c0.06-0.29,0.09-0.6,0.09-0.92v-0.31c0-0.36-0.03-0.7-0.09-1.01
		c-0.06-0.31-0.18-0.58-0.35-0.81s-0.43-0.42-0.75-0.55c-0.33-0.13-0.77-0.2-1.32-0.2h-2.43V50.76z"/>
	<path class="st2" d="M310.65,52.74v5.45c0,0.25-0.04,0.42-0.13,0.5s-0.28,0.13-0.57,0.13h-1.23c-0.29,0-0.48-0.04-0.57-0.13
		s-0.13-0.26-0.13-0.5V43.87c0-0.25,0.04-0.42,0.13-0.5c0.09-0.09,0.28-0.13,0.57-0.13h4.68c1.74,0,3.01,0.36,3.81,1.08
		s1.2,1.88,1.2,3.47v0.42c0,2.22-0.88,3.62-2.65,4.2l3.26,5.78c0.06,0.12,0.09,0.21,0.09,0.29c0,0.23-0.19,0.35-0.57,0.35h-1.64
		c-0.25,0-0.43-0.04-0.54-0.12s-0.24-0.25-0.38-0.52l-2.96-5.45H310.65z M310.65,50.46h2.74c0.85,0,1.45-0.17,1.79-0.51
		c0.35-0.34,0.53-0.93,0.53-1.76v-0.31c0-0.88-0.17-1.49-0.51-1.84c-0.34-0.35-0.95-0.53-1.81-0.53h-2.74V50.46z"/>
	<path class="st2" d="M326.57,42.88c1.3,0,2.39,0.25,3.27,0.75c0.88,0.5,1.54,1.24,1.96,2.22c0.19,0.42,0.32,0.9,0.39,1.42
		s0.11,1.2,0.11,2.04v3.19c0,0.76-0.04,1.41-0.12,1.96c-0.08,0.55-0.21,1.05-0.38,1.5c-0.42,1.05-1.08,1.85-1.96,2.39
		c-0.88,0.54-1.97,0.81-3.27,0.81c-1.3,0-2.39-0.25-3.27-0.76s-1.54-1.24-1.96-2.22c-0.19-0.42-0.32-0.9-0.39-1.42
		c-0.07-0.53-0.11-1.21-0.11-2.04v-3.2c0-0.76,0.04-1.41,0.12-1.96c0.08-0.55,0.21-1.05,0.38-1.5c0.42-1.05,1.08-1.85,1.96-2.39
		S325.27,42.88,326.57,42.88z M326.57,45.23c-1.08,0-1.85,0.31-2.31,0.92c-0.46,0.61-0.69,1.63-0.69,3.04v3.68
		c0,1.42,0.23,2.43,0.69,3.04c0.46,0.61,1.23,0.92,2.31,0.92c1.08,0,1.85-0.31,2.31-0.92c0.46-0.61,0.69-1.63,0.69-3.04v-3.68
		c0-1.42-0.23-2.43-0.69-3.04C328.42,45.53,327.65,45.23,326.57,45.23z"/>
</g>
<g class="st0">
	<path class="st2" d="M333.51,43.87c-0.03-0.12-0.04-0.2-0.04-0.24c0-0.26,0.16-0.39,0.48-0.39h1.58c0.28,0,0.46,0.04,0.55,0.12
		s0.17,0.25,0.24,0.51l3.35,11.65l3.35-11.65c0.07-0.26,0.15-0.43,0.24-0.51c0.09-0.08,0.27-0.12,0.55-0.12h1.51
		c0.32,0,0.48,0.13,0.48,0.39c0,0.04-0.01,0.12-0.04,0.24l-4.44,14.56c-0.06,0.17-0.14,0.28-0.24,0.33
		c-0.1,0.04-0.26,0.06-0.46,0.06h-1.95c-0.2,0-0.36-0.02-0.46-0.06c-0.1-0.04-0.18-0.15-0.24-0.33L333.51,43.87z"/>
	<path class="st2" d="M357.26,58.12c0,0.28-0.04,0.46-0.12,0.56c-0.08,0.1-0.25,0.14-0.51,0.14h-8.25c-0.28,0-0.46-0.04-0.56-0.12
		s-0.14-0.25-0.14-0.52V43.87c0-0.26,0.05-0.43,0.14-0.51s0.28-0.12,0.56-0.12h8.17c0.26,0,0.43,0.05,0.51,0.14
		c0.08,0.09,0.12,0.28,0.12,0.56v0.96c0,0.28-0.04,0.46-0.12,0.56c-0.08,0.1-0.25,0.14-0.51,0.14h-6.2v4.03h5.63
		c0.26,0,0.43,0.05,0.51,0.14c0.08,0.1,0.12,0.28,0.12,0.56v0.96c0,0.28-0.04,0.46-0.12,0.56c-0.08,0.09-0.25,0.14-0.51,0.14h-5.63
		v4.47h6.28c0.26,0,0.43,0.05,0.51,0.14c0.08,0.09,0.12,0.28,0.12,0.56V58.12z"/>
	<path class="st2" d="M365.93,54.27c-0.29,0-0.49-0.04-0.58-0.12c-0.09-0.08-0.2-0.25-0.32-0.51l-2.41-5.23v9.78
		c0,0.26-0.05,0.44-0.14,0.52s-0.28,0.12-0.56,0.12h-1.2c-0.28,0-0.46-0.04-0.56-0.12c-0.1-0.08-0.14-0.25-0.14-0.52V43.87
		c0-0.26,0.05-0.43,0.14-0.51c0.09-0.08,0.28-0.12,0.56-0.12h1.27c0.29,0,0.5,0.04,0.61,0.11c0.12,0.07,0.24,0.25,0.37,0.53
		l3.57,7.68l3.59-7.68c0.13-0.28,0.25-0.45,0.37-0.53c0.12-0.07,0.32-0.11,0.61-0.11h1.27c0.28,0,0.46,0.04,0.56,0.12
		s0.14,0.25,0.14,0.51v14.32c0,0.26-0.05,0.44-0.14,0.52s-0.28,0.12-0.56,0.12h-1.2c-0.28,0-0.46-0.04-0.56-0.12
		s-0.14-0.25-0.14-0.52V48.4l-2.41,5.23c-0.12,0.26-0.22,0.43-0.32,0.51c-0.09,0.08-0.29,0.12-0.58,0.12H365.93z"/>
	<path class="st2" d="M385.83,58.12c0,0.28-0.04,0.46-0.12,0.56c-0.08,0.1-0.25,0.14-0.51,0.14h-8.25c-0.28,0-0.46-0.04-0.56-0.12
		s-0.14-0.25-0.14-0.52V43.87c0-0.26,0.05-0.43,0.14-0.51s0.28-0.12,0.56-0.12h8.17c0.26,0,0.43,0.05,0.51,0.14
		c0.08,0.09,0.12,0.28,0.12,0.56v0.96c0,0.28-0.04,0.46-0.12,0.56c-0.08,0.1-0.25,0.14-0.51,0.14h-6.2v4.03h5.63
		c0.26,0,0.43,0.05,0.51,0.14c0.08,0.1,0.12,0.28,0.12,0.56v0.96c0,0.28-0.04,0.46-0.12,0.56c-0.08,0.09-0.25,0.14-0.51,0.14h-5.63
		v4.47h6.28c0.26,0,0.43,0.05,0.51,0.14c0.08,0.09,0.12,0.28,0.12,0.56V58.12z"/>
	<path class="st2" d="M391.19,48.29v9.89c0,0.26-0.05,0.44-0.14,0.52s-0.28,0.12-0.56,0.12h-1.2c-0.28,0-0.46-0.04-0.56-0.12
		s-0.14-0.25-0.14-0.52V43.87c0-0.26,0.05-0.43,0.14-0.51s0.28-0.12,0.56-0.12h1.27c0.28,0,0.48,0.03,0.6,0.1s0.26,0.24,0.41,0.51
		l5.23,9.92v-9.89c0-0.26,0.05-0.43,0.14-0.51s0.28-0.12,0.56-0.12h1.2c0.28,0,0.46,0.04,0.56,0.12s0.14,0.25,0.14,0.51v14.32
		c0,0.26-0.05,0.44-0.14,0.52s-0.28,0.12-0.56,0.12h-1.27c-0.28,0-0.48-0.03-0.6-0.1c-0.12-0.07-0.26-0.24-0.41-0.52L391.19,48.29z"
		/>
	<path class="st2" d="M405.88,45.6h-3.83c-0.26,0-0.43-0.05-0.51-0.14c-0.08-0.09-0.12-0.28-0.12-0.56v-0.96
		c0-0.28,0.04-0.46,0.12-0.56s0.25-0.14,0.51-0.14h10.33c0.26,0,0.43,0.05,0.51,0.14s0.12,0.28,0.12,0.56v0.96
		c0,0.28-0.04,0.46-0.12,0.56c-0.08,0.1-0.25,0.14-0.51,0.14h-3.83v12.59c0,0.26-0.05,0.44-0.14,0.52c-0.1,0.08-0.28,0.12-0.56,0.12
		h-1.27c-0.28,0-0.46-0.04-0.56-0.12c-0.09-0.08-0.14-0.25-0.14-0.52V45.6z"/>
</g>
<g class="st0">
	<path class="st2" d="M289.02,73.17v9.89c0,0.26-0.05,0.43-0.14,0.51s-0.28,0.12-0.56,0.12h-1.2c-0.28,0-0.46-0.04-0.56-0.12
		c-0.1-0.08-0.14-0.25-0.14-0.51V68.75c0-0.26,0.05-0.43,0.14-0.51c0.09-0.08,0.28-0.12,0.56-0.12h1.27c0.28,0,0.48,0.03,0.6,0.1
		s0.26,0.24,0.41,0.51l5.23,9.92v-9.89c0-0.26,0.05-0.43,0.14-0.51c0.09-0.08,0.28-0.12,0.56-0.12h1.2c0.28,0,0.46,0.04,0.56,0.12
		c0.09,0.08,0.14,0.25,0.14,0.51v14.32c0,0.26-0.05,0.43-0.14,0.51c-0.1,0.08-0.28,0.12-0.56,0.12h-1.27c-0.28,0-0.48-0.03-0.6-0.1
		c-0.12-0.07-0.26-0.24-0.41-0.51L289.02,73.17z"/>
	<path class="st2" d="M309.97,83c0,0.28-0.04,0.46-0.12,0.56c-0.08,0.1-0.25,0.14-0.51,0.14h-8.25c-0.28,0-0.46-0.04-0.56-0.12
		s-0.14-0.25-0.14-0.51V68.75c0-0.26,0.05-0.43,0.14-0.51s0.28-0.12,0.56-0.12h8.17c0.26,0,0.43,0.05,0.51,0.14
		c0.08,0.09,0.12,0.28,0.12,0.56v0.96c0,0.28-0.04,0.46-0.12,0.56c-0.08,0.1-0.25,0.14-0.51,0.14h-6.2v4.03h5.63
		c0.26,0,0.43,0.05,0.51,0.14c0.08,0.1,0.12,0.28,0.12,0.56v0.96c0,0.28-0.04,0.46-0.12,0.56s-0.25,0.14-0.51,0.14h-5.63v4.47h6.28
		c0.26,0,0.43,0.05,0.51,0.14s0.12,0.28,0.12,0.56V83z"/>
	<path class="st2" d="M320.72,79.1c0.01-0.22,0.07-0.37,0.16-0.44c0.09-0.07,0.27-0.11,0.54-0.11h1.31c0.28,0,0.46,0.04,0.56,0.12
		c0.09,0.08,0.14,0.24,0.14,0.47c0,0.79-0.09,1.44-0.28,1.96c-0.19,0.52-0.5,1-0.94,1.46c-0.96,0.99-2.42,1.49-4.38,1.49
		c-1.2,0-2.22-0.25-3.06-0.76c-0.85-0.5-1.49-1.24-1.93-2.22c-0.19-0.42-0.32-0.89-0.39-1.4c-0.07-0.51-0.11-1.2-0.11-2.06v-3.2
		c0-0.79,0.04-1.45,0.12-1.97c0.08-0.53,0.21-1.02,0.38-1.49c0.39-1.04,1.04-1.83,1.94-2.38c0.9-0.55,2.01-0.82,3.34-0.82
		c1.87,0,3.25,0.49,4.16,1.47c0.42,0.45,0.72,0.94,0.9,1.47c0.18,0.53,0.26,1.16,0.26,1.9c0,0.23-0.05,0.39-0.14,0.47
		c-0.1,0.08-0.28,0.12-0.56,0.12h-1.36c-0.26,0-0.44-0.04-0.54-0.11s-0.15-0.22-0.16-0.44c-0.03-0.92-0.25-1.58-0.66-1.97
		c-0.41-0.39-1.09-0.59-2.04-0.59c-1.07,0-1.82,0.3-2.25,0.91s-0.66,1.63-0.66,3.08v3.68c0,1.4,0.22,2.41,0.67,3.03
		s1.19,0.93,2.22,0.93c0.92,0,1.6-0.21,2.05-0.63C320.45,80.65,320.69,79.99,320.72,79.1z"/>
	<path class="st2" d="M335.51,83c0,0.28-0.04,0.46-0.12,0.56c-0.08,0.1-0.25,0.14-0.51,0.14h-8.25c-0.28,0-0.46-0.04-0.56-0.12
		c-0.1-0.08-0.14-0.25-0.14-0.51V68.75c0-0.26,0.05-0.43,0.14-0.51c0.09-0.08,0.28-0.12,0.56-0.12h8.17c0.26,0,0.43,0.05,0.51,0.14
		s0.12,0.28,0.12,0.56v0.96c0,0.28-0.04,0.46-0.12,0.56c-0.08,0.1-0.25,0.14-0.51,0.14h-6.19v4.03h5.63c0.26,0,0.43,0.05,0.51,0.14
		c0.08,0.1,0.12,0.28,0.12,0.56v0.96c0,0.28-0.04,0.46-0.12,0.56s-0.25,0.14-0.51,0.14h-5.63v4.47h6.28c0.26,0,0.43,0.05,0.51,0.14
		c0.08,0.09,0.12,0.28,0.12,0.56V83z"/>
	<path class="st2" d="M340.24,79.89c0.13,0.63,0.42,1.1,0.85,1.41c0.44,0.31,1.06,0.47,1.86,0.47c0.92,0,1.58-0.16,1.99-0.49
		c0.41-0.33,0.61-0.86,0.61-1.61c0-0.58-0.17-1.06-0.5-1.43s-0.88-0.67-1.62-0.91l-2.32-0.72c-1.08-0.33-1.91-0.85-2.48-1.55
		c-0.58-0.7-0.87-1.53-0.87-2.5v-0.2c0-1.46,0.46-2.59,1.39-3.39c0.93-0.8,2.24-1.2,3.95-1.2c1.84,0,3.2,0.49,4.09,1.47
		c0.61,0.7,0.92,1.55,0.92,2.54c0,0.23-0.05,0.39-0.14,0.47s-0.28,0.12-0.56,0.12h-1.25c-0.28,0-0.46-0.04-0.55-0.11
		c-0.09-0.07-0.15-0.22-0.17-0.44c-0.13-1.2-0.99-1.79-2.56-1.79c-1.61,0-2.41,0.72-2.41,2.17c0,0.29,0.04,0.55,0.11,0.77
		c0.07,0.22,0.2,0.41,0.37,0.58c0.17,0.17,0.4,0.32,0.69,0.46c0.28,0.14,0.64,0.27,1.06,0.4l2.32,0.72
		c1.11,0.34,1.94,0.87,2.48,1.59c0.55,0.72,0.82,1.6,0.82,2.64v0.29c0,1.42-0.46,2.51-1.38,3.27c-0.92,0.77-2.22,1.15-3.9,1.15
		c-1.99,0-3.44-0.46-4.36-1.38c-0.37-0.38-0.65-0.8-0.84-1.27c-0.2-0.47-0.3-0.96-0.3-1.47c0-0.23,0.05-0.39,0.14-0.47
		s0.28-0.12,0.56-0.12h1.23c0.26,0,0.44,0.04,0.54,0.11C340.13,79.53,340.2,79.67,340.24,79.89z"/>
	<path class="st2" d="M352.74,79.89c0.13,0.63,0.42,1.1,0.85,1.41c0.44,0.31,1.06,0.47,1.86,0.47c0.92,0,1.58-0.16,1.99-0.49
		c0.41-0.33,0.61-0.86,0.61-1.61c0-0.58-0.17-1.06-0.5-1.43s-0.88-0.67-1.62-0.91l-2.32-0.72c-1.08-0.33-1.91-0.85-2.48-1.55
		c-0.58-0.7-0.87-1.53-0.87-2.5v-0.2c0-1.46,0.46-2.59,1.39-3.39c0.93-0.8,2.24-1.2,3.95-1.2c1.84,0,3.2,0.49,4.09,1.47
		c0.61,0.7,0.92,1.55,0.92,2.54c0,0.23-0.05,0.39-0.14,0.47s-0.28,0.12-0.56,0.12h-1.25c-0.28,0-0.46-0.04-0.55-0.11
		c-0.09-0.07-0.15-0.22-0.17-0.44c-0.13-1.2-0.99-1.79-2.56-1.79c-1.61,0-2.41,0.72-2.41,2.17c0,0.29,0.04,0.55,0.11,0.77
		c0.07,0.22,0.2,0.41,0.37,0.58c0.17,0.17,0.4,0.32,0.69,0.46c0.28,0.14,0.64,0.27,1.06,0.4l2.32,0.72
		c1.11,0.34,1.94,0.87,2.48,1.59c0.55,0.72,0.82,1.6,0.82,2.64v0.29c0,1.42-0.46,2.51-1.38,3.27c-0.92,0.77-2.22,1.15-3.9,1.15
		c-1.99,0-3.44-0.46-4.36-1.38c-0.37-0.38-0.65-0.8-0.84-1.27c-0.2-0.47-0.3-0.96-0.3-1.47c0-0.23,0.05-0.39,0.14-0.47
		s0.28-0.12,0.56-0.12H352c0.26,0,0.44,0.04,0.54,0.11C352.63,79.53,352.7,79.67,352.74,79.89z"/>
	<path class="st2" d="M374.89,83.07c0.03,0.12,0.04,0.2,0.04,0.24c0,0.26-0.16,0.39-0.48,0.39h-1.53c-0.28,0-0.46-0.04-0.54-0.12
		s-0.16-0.25-0.25-0.51l-1.01-3.09h-5.74l-0.99,3.11c-0.09,0.26-0.17,0.43-0.25,0.5c-0.08,0.07-0.26,0.11-0.54,0.11h-1.44
		c-0.32,0-0.48-0.13-0.48-0.39c0-0.04,0.01-0.12,0.04-0.24l4.92-14.56c0.06-0.18,0.14-0.29,0.24-0.33c0.1-0.04,0.25-0.07,0.46-0.07
		h1.97c0.2,0,0.36,0.02,0.46,0.07c0.1,0.04,0.18,0.15,0.24,0.33L374.89,83.07z M366.12,77.7h4.27l-2.15-6.65L366.12,77.7z"/>
	<path class="st2" d="M379.36,77.62v5.45c0,0.25-0.04,0.42-0.13,0.5c-0.09,0.09-0.28,0.13-0.57,0.13h-1.23
		c-0.29,0-0.48-0.04-0.57-0.13c-0.09-0.09-0.13-0.26-0.13-0.5V68.75c0-0.25,0.04-0.42,0.13-0.5c0.09-0.09,0.28-0.13,0.57-0.13h4.68
		c1.74,0,3.01,0.36,3.81,1.08c0.8,0.72,1.2,1.88,1.2,3.47v0.42c0,2.22-0.88,3.62-2.65,4.2l3.26,5.78c0.06,0.12,0.09,0.21,0.09,0.28
		c0,0.23-0.19,0.35-0.57,0.35h-1.64c-0.25,0-0.43-0.04-0.54-0.12s-0.24-0.25-0.38-0.51l-2.96-5.45H379.36z M379.36,75.34h2.74
		c0.85,0,1.44-0.17,1.79-0.51s0.53-0.93,0.53-1.76v-0.31c0-0.88-0.17-1.49-0.51-1.84c-0.34-0.35-0.95-0.53-1.81-0.53h-2.74V75.34z"
		/>
</g>
<g class="st0">
	<path class="st2" d="M390.32,68.11c0.25,0,0.42,0.03,0.51,0.1s0.19,0.2,0.3,0.41l3.17,6.46l3.13-6.46c0.1-0.2,0.2-0.34,0.3-0.41
		s0.27-0.1,0.51-0.1h1.51c0.37,0,0.55,0.12,0.55,0.35c0,0.1-0.02,0.2-0.07,0.28l-4.68,9.04v5.28c0,0.26-0.05,0.43-0.14,0.51
		s-0.28,0.12-0.56,0.12h-1.27c-0.28,0-0.46-0.04-0.56-0.12c-0.1-0.08-0.14-0.25-0.14-0.51v-5.28l-4.68-9.04
		c-0.04-0.09-0.07-0.18-0.07-0.28c0-0.23,0.18-0.35,0.55-0.35H390.32z"/>
</g>
<g class="st0">
	<path d="M83.86,76.82c0,0.2-0.04,0.33-0.11,0.4c-0.07,0.06-0.22,0.09-0.43,0.09h-0.93c-0.21,0-0.36-0.03-0.43-0.09
		c-0.07-0.06-0.11-0.19-0.11-0.4v-9.01h-1.72c-0.2,0-0.33-0.04-0.4-0.11c-0.06-0.07-0.09-0.22-0.09-0.43v-0.74
		c0-0.21,0.03-0.36,0.09-0.43s0.19-0.11,0.4-0.11h3.18c0.21,0,0.36,0.03,0.43,0.09c0.07,0.06,0.11,0.19,0.11,0.4V76.82z"/>
</g>
<g>
	<polyline class="st3" points="83.85,77.31 79.64,77.31 79.64,66 83.85,66 83.85,77.31 	"/>
</g>
<g>
	<path d="M82.61,88L82.61,88 M82.61,88c-9.22,0-16.69-7.47-16.69-16.69s7.47-16.69,16.69-16.69S99.3,62.09,99.3,71.31
		c0,0,0,0.01,0,0.01C99.3,80.53,91.83,88,82.62,88C82.62,88,82.61,88,82.61,88v-1.39c8.45,0,15.3-6.84,15.31-15.29
		c0-8.45-6.84-15.3-15.29-15.31c-8.45,0-15.3,6.84-15.31,15.29c0,4.06,1.61,7.96,4.48,10.83c2.86,2.88,6.75,4.49,10.81,4.48V88
		L82.61,88"/>
</g>
<g class="st0">
	<path d="M118.56,65.76c1.17,0,2.06,0.27,2.69,0.8s0.93,1.29,0.93,2.28v0.51c0,0.4-0.08,0.78-0.23,1.12
		c-0.15,0.34-0.35,0.66-0.61,0.94c-0.25,0.29-0.54,0.55-0.87,0.78c-0.33,0.24-0.66,0.45-0.99,0.66l-1.35,0.81
		c-0.3,0.18-0.54,0.35-0.72,0.5c-0.17,0.15-0.31,0.29-0.4,0.43s-0.15,0.27-0.17,0.4c-0.02,0.13-0.03,0.27-0.03,0.4v0.07h4.87
		c0.2,0,0.33,0.04,0.4,0.11c0.06,0.07,0.09,0.22,0.09,0.43v0.77c0,0.21-0.03,0.36-0.09,0.43s-0.19,0.11-0.4,0.11h-6.52
		c-0.21,0-0.36-0.03-0.43-0.09s-0.11-0.19-0.11-0.4V76c0-0.5,0.06-0.96,0.19-1.36s0.29-0.75,0.5-1.06c0.21-0.31,0.45-0.58,0.73-0.81
		c0.28-0.23,0.58-0.44,0.89-0.62l1.43-0.83c0.22-0.13,0.44-0.27,0.65-0.41s0.39-0.3,0.55-0.48c0.16-0.18,0.28-0.38,0.38-0.6
		s0.14-0.46,0.14-0.73v-0.17c0-0.99-0.54-1.48-1.62-1.48c-0.54,0-0.93,0.11-1.19,0.32s-0.42,0.59-0.5,1.13
		c-0.02,0.13-0.07,0.23-0.14,0.28c-0.07,0.05-0.2,0.08-0.38,0.08h-0.96c-0.21,0-0.36-0.03-0.43-0.1c-0.07-0.07-0.11-0.21-0.11-0.42
		c0-0.35,0.07-0.7,0.2-1.05s0.31-0.64,0.54-0.87C116.22,66.11,117.24,65.76,118.56,65.76z"/>
</g>
<g>
	<polyline class="st3" points="122.18,77.31 114.64,77.31 114.64,65.76 122.18,65.76 122.18,77.31 	"/>
</g>
<g>
	<path d="M118.77,88L118.77,88 M118.77,88c-9.22,0.01-16.69-7.46-16.7-16.68c-0.01-9.22,7.46-16.69,16.68-16.7
		s16.69,7.46,16.7,16.68c0,0.01,0,0.01,0,0.02C135.45,80.53,127.98,88,118.77,88v-1.39c8.45,0.03,15.32-6.8,15.35-15.25
		c0.03-8.45-6.8-15.32-15.25-15.35c-8.45-0.03-15.32,6.8-15.35,15.25c-0.01,4.07,1.6,7.99,4.48,10.87
		c2.86,2.87,6.75,4.48,10.81,4.48V88l0,0"/>
</g>
<g class="st0">
	<path d="M154.84,65.76c1.16,0,2.04,0.25,2.65,0.74c0.61,0.49,0.92,1.22,0.92,2.17v0.34c0,0.54-0.15,1.01-0.46,1.41
		c-0.3,0.4-0.72,0.71-1.26,0.93c0.61,0.16,1.07,0.44,1.39,0.86s0.48,0.94,0.48,1.58v0.62c0,0.99-0.35,1.76-1.04,2.31
		c-0.69,0.55-1.63,0.83-2.82,0.83c-0.72,0-1.35-0.09-1.89-0.26s-0.98-0.42-1.31-0.75c-0.22-0.22-0.4-0.51-0.54-0.85
		s-0.2-0.68-0.2-1.02c0-0.21,0.04-0.35,0.11-0.42c0.07-0.07,0.22-0.1,0.43-0.1h0.96c0.19,0,0.32,0.03,0.4,0.08
		c0.07,0.05,0.11,0.14,0.13,0.28c0.08,0.89,0.69,1.33,1.84,1.33c0.58,0,1.03-0.13,1.35-0.39c0.31-0.26,0.47-0.64,0.47-1.15v-0.4
		c0-1.05-0.58-1.58-1.73-1.58h-0.5c-0.2,0-0.33-0.04-0.4-0.11c-0.06-0.07-0.09-0.22-0.09-0.43v-0.74c0-0.21,0.03-0.36,0.09-0.43
		c0.06-0.07,0.19-0.11,0.4-0.11h0.3c1.21,0,1.82-0.5,1.82-1.52v-0.2c0-0.92-0.55-1.38-1.65-1.38c-0.55,0-0.97,0.11-1.25,0.33
		c-0.29,0.22-0.47,0.58-0.55,1.09c-0.02,0.13-0.07,0.23-0.14,0.28c-0.07,0.05-0.2,0.08-0.38,0.08h-0.89c-0.21,0-0.36-0.03-0.43-0.1
		c-0.07-0.07-0.11-0.21-0.11-0.42c0-0.34,0.06-0.67,0.19-0.99c0.13-0.32,0.31-0.6,0.55-0.83c0.36-0.37,0.79-0.64,1.29-0.81
		C153.45,65.84,154.08,65.76,154.84,65.76z"/>
</g>
<g>
	<polyline class="st3" points="158.56,77.55 150.77,77.55 150.77,65.76 158.56,65.76 158.56,77.55 	"/>
</g>
<g>
	<path d="M154.92,88L154.92,88 M154.92,88c-9.22,0-16.69-7.47-16.69-16.69s7.47-16.69,16.69-16.69s16.69,7.47,16.69,16.69
		c0,0,0,0.01,0,0.01c0,9.21-7.47,16.68-16.68,16.68C154.93,88,154.92,88,154.92,88v-1.39c8.45,0,15.3-6.84,15.31-15.29
		c0-8.45-6.84-15.3-15.29-15.31c-8.45,0-15.3,6.84-15.31,15.29c0,4.06,1.61,7.96,4.48,10.83c2.86,2.87,6.75,4.48,10.81,4.48V88
		L154.92,88"/>
</g>
<g class="st0">
	<path d="M193.19,65.99c0.21,0,0.36,0.03,0.43,0.09c0.07,0.06,0.11,0.19,0.11,0.4v6.84h0.67c0.2,0,0.33,0.04,0.4,0.11
		c0.06,0.07,0.09,0.22,0.09,0.43v0.69c0,0.21-0.03,0.36-0.09,0.43c-0.06,0.07-0.19,0.11-0.4,0.11h-0.67v1.73
		c0,0.2-0.04,0.33-0.11,0.4c-0.07,0.06-0.22,0.09-0.43,0.09h-0.86c-0.21,0-0.36-0.03-0.43-0.09c-0.07-0.06-0.11-0.19-0.11-0.4v-1.73
		h-4.5c-0.2,0-0.33-0.04-0.4-0.11c-0.06-0.07-0.09-0.22-0.09-0.43v-1.18c0-0.13,0.01-0.26,0.03-0.38s0.08-0.24,0.17-0.36l4.24-6.16
		c0.13-0.19,0.24-0.32,0.31-0.38c0.07-0.06,0.19-0.09,0.35-0.09H193.19z M191.8,73.32v-4.73l-3.28,4.73H191.8z"/>
</g>
<g>
	<polyline class="st3" points="194.9,77.31 186.82,77.31 186.82,66 194.9,66 194.9,77.31 	"/>
</g>
<g>
	<path d="M191.08,88L191.08,88 M191.08,88c-9.22,0.01-16.69-7.46-16.7-16.68c-0.01-9.22,7.46-16.69,16.68-16.7
		s16.69,7.46,16.7,16.68c0,0.01,0,0.01,0,0.02C207.76,80.53,200.29,88,191.08,88v-1.39c8.45,0,15.3-6.84,15.31-15.29
		c0-8.45-6.84-15.3-15.29-15.31c-8.45,0-15.3,6.84-15.31,15.29c0,4.06,1.61,7.96,4.48,10.83c2.86,2.87,6.75,4.49,10.81,4.48V88
		L191.08,88"/>
</g>
<g class="st0">
	<path d="M230.61,74.21c0,1.06-0.33,1.88-0.98,2.46c-0.66,0.58-1.56,0.88-2.72,0.88c-1.4,0-2.42-0.33-3.07-0.98
		c-0.22-0.22-0.4-0.49-0.53-0.81s-0.19-0.63-0.19-0.96c0-0.21,0.04-0.35,0.11-0.42c0.07-0.07,0.22-0.1,0.43-0.1h0.96
		c0.18,0,0.31,0.03,0.38,0.08c0.07,0.05,0.12,0.14,0.14,0.28c0.07,0.43,0.23,0.73,0.5,0.92s0.67,0.28,1.2,0.28
		c1.16,0,1.73-0.57,1.73-1.72v-0.64c0-1.21-0.54-1.82-1.63-1.82c-0.19,0-0.4,0.02-0.62,0.07s-0.42,0.11-0.57,0.19
		c-0.21,0.1-0.37,0.17-0.46,0.19c-0.1,0.03-0.22,0.04-0.36,0.04h-0.91c-0.22,0-0.37-0.03-0.44-0.1s-0.1-0.2-0.1-0.39v-5.17
		c0-0.19,0.03-0.32,0.1-0.39s0.21-0.1,0.44-0.1h5.78c0.19,0,0.32,0.03,0.39,0.1s0.1,0.21,0.1,0.44v0.74c0,0.23-0.03,0.37-0.1,0.44
		s-0.2,0.1-0.39,0.1h-4.48v2.63c0.36-0.17,0.7-0.29,1.04-0.37c0.33-0.08,0.68-0.12,1.05-0.12c2.14,0,3.22,1.17,3.22,3.5V74.21z"/>
</g>
<g>
	<polyline class="st3" points="230.61,77.55 223.12,77.55 223.12,66 230.61,66 230.61,77.55 	"/>
</g>
<g>
	<path d="M227.24,88L227.24,88 M227.24,88c-9.22,0.01-16.69-7.46-16.7-16.68c-0.01-9.22,7.46-16.69,16.68-16.7
		s16.69,7.46,16.7,16.68c0,0.01,0,0.01,0,0.02C243.92,80.53,236.45,88,227.24,88v-1.39c8.44-0.01,15.28-6.85,15.27-15.29
		s-6.85-15.28-15.29-15.27c-8.44,0.01-15.28,6.85-15.27,15.29c0,4.05,1.61,7.93,4.47,10.79c2.87,2.87,6.76,4.49,10.82,4.48V88
		L227.24,88"/>
</g>
<g>
	<path d="M38.36,96.1c13.69,0,24.78-11.09,24.78-24.78S52.05,46.54,38.36,46.54S13.58,57.63,13.58,71.32l0,0
		C13.59,85,24.68,96.09,38.36,96.1z"/>
</g>
<g class="st0">
	<path class="st2" d="M37.58,84.88c-4.06,0-6.77-1.64-8.14-4.91c-0.29-0.68-0.5-1.43-0.62-2.24c-0.12-0.81-0.18-1.84-0.18-3.12
		v-4.76c0-1.32,0.06-2.39,0.18-3.22c0.12-0.83,0.33-1.6,0.62-2.31c1.37-3.4,4.08-5.09,8.14-5.09c4.06,0,6.77,1.64,8.14,4.91
		c0.29,0.68,0.5,1.43,0.62,2.24c0.12,0.81,0.18,1.84,0.18,3.12v4.76c0,1.32-0.06,2.39-0.18,3.22c-0.12,0.83-0.33,1.6-0.62,2.31
		C44.35,83.19,41.63,84.88,37.58,84.88z M37.58,63.3c-0.81,0-1.48,0.11-2.03,0.33s-1,0.57-1.34,1.04c-0.34,0.48-0.59,1.1-0.73,1.87
		c-0.15,0.77-0.22,1.7-0.22,2.8v5.42c0,1.12,0.07,2.07,0.22,2.84c0.15,0.77,0.39,1.39,0.73,1.87c0.34,0.48,0.79,0.82,1.34,1.03
		c0.55,0.21,1.23,0.31,2.03,0.31s1.48-0.1,2.03-0.31c0.55-0.21,1-0.55,1.34-1.03c0.34-0.48,0.59-1.1,0.73-1.87s0.22-1.72,0.22-2.84
		v-5.42c0-1.1-0.07-2.03-0.22-2.8s-0.39-1.39-0.73-1.87c-0.34-0.48-0.79-0.83-1.34-1.04S38.38,63.3,37.58,63.3z"/>
</g>
</svg>
